<?xml version="1.0" encoding="UTF-8" standalone="no"?>
<svg xmlns="http://www.w3.org/2000/svg"
   width="530.12"
   height="148.72"
   id="svg2"
   version="1.1">
  <defs>
    <style type="text/css"><![CDATA[
    path {
      fill:none;
      stroke-linecap:round;
      stroke-linejoin:round;
      stroke-miterlimit:4;
    }
    #circles path {
      stroke:#cb0000;
      stroke-width:5.5;
      stroke-opacity:1;
    }
    #text path {
      stroke:#000000;
      stroke-width:10;
      stroke-opacity:1;
    }
    ]]></style>
  </defs>
  <g id="img">
    <g id="circles">
      <path id="b"   d="m 22.5,13 a 9.65,9.65 0 1 1 -19.3,0 9.66,9.66 0 1 1 19.32,0 z" />
      <path id="a"   d="m 113.5,74 a 9.66,9.66 0 1 1 -19.32,0 9.66,9.66 0 1 1 19.32,0 z" />
      <path id="s-t" d="m 264,74 a 9.66,9.66 0 1 1 -19.32,0 9.66,9.66 0 1 1 19.32,0 z" />
      <path id="s-b" d="m 203,134.2 a 9.66,9.66 0 1 1 -19.32,0 9.66,9.66 0 1 1 19.32,0 z" />
      <path id="e"   d="m 353,134 a 9.66,9.66 0 1 1 -19.32,0 9.66,9.66 0 1 1 19.32,0 z" />
      <path id="4-b" d="m 443,134 a 9.66,9.66 0 1 1 -19.32,0 9.66,9.66 0 1 1 19.32,0 z" />
      <path id="4-l" d="m 383,13 a 9.66,9.66 0 1 1 -19.32,0 9.66,9.66 0 1 1 19.32,0 z" />
      <path id="4-r" d="m 443,13 a 9.66,9.66 0 1 1 -19.32,0 9.66,9.66 0 1 1 19.32,0 z" />
    </g>
    <g id="text">
      <path id="b"   d="m 13,13 0,120.97 60.1,0.25 0,-60.36 -60.1,-0.25" />
      <path id="a"   d="m 104,74 59.6,0 -0.25,59.85 -60.1,0 -0.25,-29.8 60.61,0" />
      <path id="s"   d="m 254,74 -60.61,0 0,30.3 59.85,0 0,30.05 -59.85,0" />
      <path id="e"   d="m 343,134 -60.1,0 0,-60.36 60.1,0 0,30.05 -59.6,0" />
      <path id="4"   d="m 373.5,13 0,60.36 59.85,0 0,60.61 0,-120.71" />
      <path id="8"   d="m 463,13 61.37,0 0,61 -60,0 60,0 0,60.22 -61.11,0 z" />
    </g>
  </g>
</svg>
