  0
SECTION
  2
HEADER
  9
$ACADVER
  1
AC1014
  9
$HANDSEED
  5
FFFF
  9
$MEASUREMENT
 70
     1
  0
ENDSEC
  0
SECTION
  2
TABLES
  0
TABLE
  2
VPORT
  5
8
330
0
100
AcDbSymbolTable
 70
     4
  0
VPORT
  5
2E
330
8
100
AcDbSymbolTableRecord
100
AcDbViewportTableRecord
  2
*ACTIVE
 70
     0
 10
0.0
 20
0.0
 11
1.0
 21
1.0
 12
210.0
 22
148.5
 13
0.0
 23
0.0
 14
10.0
 24
10.0
 15
10.0
 25
10.0
 16
0.0
 26
0.0
 36
1.0
 17
0.0
 27
0.0
 37
0.0
 40
341.0
 41
1.24
 42
50.0
 43
0.0
 44
0.0
 50
0.0
 51
0.0
 71
     0
 72
   100
 73
     1
 74
     3
 75
     0
 76
     0
 77
     0
 78
     0
  0
ENDTAB
  0
TABLE
  2
LTYPE
  5
5
330
0
100
AcDbSymbolTable
 70
     1
  0
LTYPE
  5
14
330
5
100
AcDbSymbolTableRecord
100
AcDbLinetypeTableRecord
  2
BYBLOCK
 70
     0
  3

 72
    65
 73
     0
 40
0.0
  0
LTYPE
  5
15
330
5
100
AcDbSymbolTableRecord
100
AcDbLinetypeTableRecord
  2
BYLAYER
 70
     0
  3

 72
    65
 73
     0
 40
0.0
  0
LTYPE
  5
16
330
5
100
AcDbSymbolTableRecord
100
AcDbLinetypeTableRecord
  2
CONTINUOUS
 70
     0
  3
Solid line
 72
    65
 73
     0
 40
0.0
  0
ENDTAB
  0
TABLE
  2
LAYER
  5
2
100
AcDbSymbolTable
 70
1
  0
LAYER
  5
50
100
AcDbSymbolTableRecord
100
AcDbLayerTableRecord
  2
0
 70
0
  6
CONTINUOUS
  0
ENDTAB
  0
TABLE
  2
STYLE
  5
3
330
0
100
AcDbSymbolTable
 70
     1
  0
STYLE
  5
11
330
3
100
AcDbSymbolTableRecord
100
AcDbTextStyleTableRecord
  2
STANDARD
 70
     0
 40
0.0
 41
1.0
 50
0.0
 71
     0
 42
2.5
  3
txt
  4

  0
ENDTAB
  0
TABLE
  2
VIEW
  5
6
330
0
100
AcDbSymbolTable
 70
     0
  0
ENDTAB
  0
TABLE
  2
UCS
  5
7
330
0
100
AcDbSymbolTable
 70
     0
  0
ENDTAB
  0
TABLE
  2
APPID
  5
9
330
0
100
AcDbSymbolTable
 70
     2
  0
APPID
  5
12
330
9
100
AcDbSymbolTableRecord
100
AcDbRegAppTableRecord
  2
ACAD
 70
     0
  0
ENDTAB
  0
TABLE
  2
DIMSTYLE
  5
A
330
0
100
AcDbSymbolTable
 70
     1
  0
DIMSTYLE
105
27
330
A
100
AcDbSymbolTableRecord
100
AcDbDimStyleTableRecord
  2
ISO-25
 70
     0
  3

  4

  5

  6

  7

 40
1.0
 41
2.5
 42
0.625
 43
3.75
 44
1.25
 45
0.0
 46
0.0
 47
0.0
 48
0.0
140
2.5
141
2.5
142
0.0
143
0.03937007874016
144
1.0
145
0.0
146
1.0
147
0.625
 71
     0
 72
     0
 73
     0
 74
     0
 75
     0
 76
     0
 77
     1
 78
     8
170
     0
171
     3
172
     1
173
     0
174
     0
175
     0
176
     0
177
     0
178
     0
270
     2
271
     2
272
     2
273
     2
274
     3
340
11
275
     0
280
     0
281
     0
282
     0
283
     0
284
     8
285
     0
286
     0
287
     3
288
     0
  0
ENDTAB
  0
TABLE
  2
BLOCK_RECORD
  5
1
330
0
100
AcDbSymbolTable
 70
     1
  0
BLOCK_RECORD
  5
1F
330
1
100
AcDbSymbolTableRecord
100
AcDbBlockTableRecord
  2
*MODEL_SPACE
  0
BLOCK_RECORD
  5
1B
330
1
100
AcDbSymbolTableRecord
100
AcDbBlockTableRecord
  2
*PAPER_SPACE
  0
ENDTAB
  0
ENDSEC
  0
SECTION
  2
BLOCKS
  0
BLOCK
  5
20
330
1F
100
AcDbEntity
  8
0
100
AcDbBlockBegin
  2
*MODEL_SPACE
 70
     0
 10
0.0
 20
0.0
 30
0.0
  3
*MODEL_SPACE
  1

  0
ENDBLK
  5
21
330
1F
100
AcDbEntity
  8
0
100
AcDbBlockEnd
  0
BLOCK
  5
1C
330
1B
100
AcDbEntity
 67
     1
  8
0
100
AcDbBlockBegin
  2
*PAPER_SPACE
  1

  0
ENDBLK
  5
1D
330
1B
100
AcDbEntity
 67
     1
  8
0
100
AcDbBlockEnd
  0
ENDSEC
  0
SECTION
  2
ENTITIES
  0
SPLINE
  5
100
100
AcDbEntity
  8
0
 62
7
100
AcDbSpline
 70
8
 71
3
 72
8
 73
4
 74
0
 40
0
 40
0
 40
0
 40
0
 40
1
 40
1
 40
1
 40
1
 10
6.350000
 20
38.303200
 30
0.0
 10
6.350000
 20
37.330207
 30
0.0
 10
5.830914
 20
36.431124
 30
0.0
 10
4.988278
 20
35.944628
 30
0.0
  0
SPLINE
  5
101
100
AcDbEntity
  8
0
 62
7
100
AcDbSpline
 70
8
 71
3
 72
8
 73
4
 74
0
 40
0
 40
0
 40
0
 40
0
 40
1
 40
1
 40
1
 40
1
 10
4.988278
 20
35.944628
 30
0.0
 10
4.145641
 20
35.458131
 30
0.0
 10
3.107470
 20
35.458131
 30
0.0
 10
2.264833
 20
35.944628
 30
0.0
  0
SPLINE
  5
102
100
AcDbEntity
  8
0
 62
7
100
AcDbSpline
 70
8
 71
3
 72
8
 73
4
 74
0
 40
0
 40
0
 40
0
 40
0
 40
1
 40
1
 40
1
 40
1
 10
2.264833
 20
35.944628
 30
0.0
 10
1.422197
 20
36.431124
 30
0.0
 10
0.903111
 20
37.330207
 30
0.0
 10
0.903111
 20
38.303200
 30
0.0
  0
SPLINE
  5
103
100
AcDbEntity
  8
0
 62
7
100
AcDbSpline
 70
8
 71
3
 72
8
 73
4
 74
0
 40
0
 40
0
 40
0
 40
0
 40
1
 40
1
 40
1
 40
1
 10
0.903111
 20
38.303200
 30
0.0
 10
0.903111
 20
39.277201
 30
0.0
 10
1.422735
 20
40.177216
 30
0.0
 10
2.266244
 20
40.664216
 30
0.0
  0
SPLINE
  5
104
100
AcDbEntity
  8
0
 62
7
100
AcDbSpline
 70
8
 71
3
 72
8
 73
4
 74
0
 40
0
 40
0
 40
0
 40
0
 40
1
 40
1
 40
1
 40
1
 10
2.266244
 20
40.664216
 30
0.0
 10
3.109754
 20
41.151217
 30
0.0
 10
4.149001
 20
41.151217
 30
0.0
 10
4.992511
 20
40.664216
 30
0.0
  0
SPLINE
  5
105
100
AcDbEntity
  8
0
 62
7
100
AcDbSpline
 70
8
 71
3
 72
8
 73
4
 74
0
 40
0
 40
0
 40
0
 40
0
 40
1
 40
1
 40
1
 40
1
 10
4.992511
 20
40.664216
 30
0.0
 10
5.836021
 20
40.177216
 30
0.0
 10
6.355644
 20
39.277201
 30
0.0
 10
6.355644
 20
38.303200
 30
0.0
  0
SPLINE
  5
106
100
AcDbEntity
  8
0
 62
7
100
AcDbSpline
 70
8
 71
3
 72
8
 73
4
 74
0
 40
0
 40
0
 40
0
 40
0
 40
1
 40
1
 40
1
 40
1
 10
32.032222
 20
21.087644
 30
0.0
 10
32.032222
 20
20.113643
 30
0.0
 10
31.512599
 20
19.213629
 30
0.0
 10
30.669089
 20
18.726628
 30
0.0
  0
SPLINE
  5
107
100
AcDbEntity
  8
0
 62
7
100
AcDbSpline
 70
8
 71
3
 72
8
 73
4
 74
0
 40
0
 40
0
 40
0
 40
0
 40
1
 40
1
 40
1
 40
1
 10
30.669089
 20
18.726628
 30
0.0
 10
29.825579
 20
18.239628
 30
0.0
 10
28.786332
 20
18.239628
 30
0.0
 10
27.942822
 20
18.726628
 30
0.0
  0
SPLINE
  5
108
100
AcDbEntity
  8
0
 62
7
100
AcDbSpline
 70
8
 71
3
 72
8
 73
4
 74
0
 40
0
 40
0
 40
0
 40
0
 40
1
 40
1
 40
1
 40
1
 10
27.942822
 20
18.726628
 30
0.0
 10
27.099312
 20
19.213629
 30
0.0
 10
26.579689
 20
20.113643
 30
0.0
 10
26.579689
 20
21.087644
 30
0.0
  0
SPLINE
  5
109
100
AcDbEntity
  8
0
 62
7
100
AcDbSpline
 70
8
 71
3
 72
8
 73
4
 74
0
 40
0
 40
0
 40
0
 40
0
 40
1
 40
1
 40
1
 40
1
 10
26.579689
 20
21.087644
 30
0.0
 10
26.579689
 20
22.061646
 30
0.0
 10
27.099312
 20
22.961660
 30
0.0
 10
27.942822
 20
23.448661
 30
0.0
  0
SPLINE
  5
10a
100
AcDbEntity
  8
0
 62
7
100
AcDbSpline
 70
8
 71
3
 72
8
 73
4
 74
0
 40
0
 40
0
 40
0
 40
0
 40
1
 40
1
 40
1
 40
1
 10
27.942822
 20
23.448661
 30
0.0
 10
28.786332
 20
23.935661
 30
0.0
 10
29.825579
 20
23.935661
 30
0.0
 10
30.669089
 20
23.448661
 30
0.0
  0
SPLINE
  5
10b
100
AcDbEntity
  8
0
 62
7
100
AcDbSpline
 70
8
 71
3
 72
8
 73
4
 74
0
 40
0
 40
0
 40
0
 40
0
 40
1
 40
1
 40
1
 40
1
 10
30.669089
 20
23.448661
 30
0.0
 10
31.512599
 20
22.961660
 30
0.0
 10
32.032222
 20
22.061646
 30
0.0
 10
32.032222
 20
21.087644
 30
0.0
  0
LWPOLYLINE
  5
10c
100
AcDbEntity
  8
0
 62
7
100
AcDbPolyline
 90
2
 70
0
 10
6.355644
 20
38.303200
 30
0.0
 10
6.350000
 20
38.303200
 30
0.0
  0
SPLINE
  5
10d
100
AcDbEntity
  8
0
 62
7
100
AcDbSpline
 70
8
 71
3
 72
8
 73
4
 74
0
 40
0
 40
0
 40
0
 40
0
 40
1
 40
1
 40
1
 40
1
 10
74.506667
 20
21.087644
 30
0.0
 10
74.506667
 20
20.113643
 30
0.0
 10
73.987043
 20
19.213629
 30
0.0
 10
73.143533
 20
18.726628
 30
0.0
  0
SPLINE
  5
10e
100
AcDbEntity
  8
0
 62
7
100
AcDbSpline
 70
8
 71
3
 72
8
 73
4
 74
0
 40
0
 40
0
 40
0
 40
0
 40
1
 40
1
 40
1
 40
1
 10
73.143533
 20
18.726628
 30
0.0
 10
72.300024
 20
18.239627
 30
0.0
 10
71.260776
 20
18.239627
 30
0.0
 10
70.417267
 20
18.726628
 30
0.0
  0
SPLINE
  5
10f
100
AcDbEntity
  8
0
 62
7
100
AcDbSpline
 70
8
 71
3
 72
8
 73
4
 74
0
 40
0
 40
0
 40
0
 40
0
 40
1
 40
1
 40
1
 40
1
 10
70.417267
 20
18.726628
 30
0.0
 10
69.573757
 20
19.213629
 30
0.0
 10
69.054133
 20
20.113643
 30
0.0
 10
69.054133
 20
21.087644
 30
0.0
  0
SPLINE
  5
110
100
AcDbEntity
  8
0
 62
7
100
AcDbSpline
 70
8
 71
3
 72
8
 73
4
 74
0
 40
0
 40
0
 40
0
 40
0
 40
1
 40
1
 40
1
 40
1
 10
69.054133
 20
21.087644
 30
0.0
 10
69.054133
 20
22.061646
 30
0.0
 10
69.573757
 20
22.961660
 30
0.0
 10
70.417267
 20
23.448661
 30
0.0
  0
SPLINE
  5
111
100
AcDbEntity
  8
0
 62
7
100
AcDbSpline
 70
8
 71
3
 72
8
 73
4
 74
0
 40
0
 40
0
 40
0
 40
0
 40
1
 40
1
 40
1
 40
1
 10
70.417267
 20
23.448661
 30
0.0
 10
71.260777
 20
23.935661
 30
0.0
 10
72.300023
 20
23.935661
 30
0.0
 10
73.143533
 20
23.448661
 30
0.0
  0
SPLINE
  5
112
100
AcDbEntity
  8
0
 62
7
100
AcDbSpline
 70
8
 71
3
 72
8
 73
4
 74
0
 40
0
 40
0
 40
0
 40
0
 40
1
 40
1
 40
1
 40
1
 10
73.143533
 20
23.448661
 30
0.0
 10
73.987043
 20
22.961660
 30
0.0
 10
74.506667
 20
22.061646
 30
0.0
 10
74.506667
 20
21.087644
 30
0.0
  0
LWPOLYLINE
  5
113
100
AcDbEntity
  8
0
 62
7
100
AcDbPolyline
 90
2
 70
0
 10
32.032222
 20
21.087644
 30
0.0
 10
32.032222
 20
21.087644
 30
0.0
  0
SPLINE
  5
114
100
AcDbEntity
  8
0
 62
7
100
AcDbSpline
 70
8
 71
3
 72
8
 73
4
 74
0
 40
0
 40
0
 40
0
 40
0
 40
1
 40
1
 40
1
 40
1
 10
57.291111
 20
4.097867
 30
0.0
 10
57.291111
 20
3.123865
 30
0.0
 10
56.771488
 20
2.223851
 30
0.0
 10
55.927978
 20
1.736850
 30
0.0
  0
SPLINE
  5
115
100
AcDbEntity
  8
0
 62
7
100
AcDbSpline
 70
8
 71
3
 72
8
 73
4
 74
0
 40
0
 40
0
 40
0
 40
0
 40
1
 40
1
 40
1
 40
1
 10
55.927978
 20
1.736850
 30
0.0
 10
55.084468
 20
1.249850
 30
0.0
 10
54.045221
 20
1.249850
 30
0.0
 10
53.201711
 20
1.736850
 30
0.0
  0
SPLINE
  5
116
100
AcDbEntity
  8
0
 62
7
100
AcDbSpline
 70
8
 71
3
 72
8
 73
4
 74
0
 40
0
 40
0
 40
0
 40
0
 40
1
 40
1
 40
1
 40
1
 10
53.201711
 20
1.736850
 30
0.0
 10
52.358201
 20
2.223851
 30
0.0
 10
51.838578
 20
3.123865
 30
0.0
 10
51.838578
 20
4.097867
 30
0.0
  0
SPLINE
  5
117
100
AcDbEntity
  8
0
 62
7
100
AcDbSpline
 70
8
 71
3
 72
8
 73
4
 74
0
 40
0
 40
0
 40
0
 40
0
 40
1
 40
1
 40
1
 40
1
 10
51.838578
 20
4.097867
 30
0.0
 10
51.838578
 20
5.071868
 30
0.0
 10
52.358201
 20
5.971882
 30
0.0
 10
53.201711
 20
6.458883
 30
0.0
  0
SPLINE
  5
118
100
AcDbEntity
  8
0
 62
7
100
AcDbSpline
 70
8
 71
3
 72
8
 73
4
 74
0
 40
0
 40
0
 40
0
 40
0
 40
1
 40
1
 40
1
 40
1
 10
53.201711
 20
6.458883
 30
0.0
 10
54.045221
 20
6.945883
 30
0.0
 10
55.084468
 20
6.945883
 30
0.0
 10
55.927978
 20
6.458883
 30
0.0
  0
SPLINE
  5
119
100
AcDbEntity
  8
0
 62
7
100
AcDbSpline
 70
8
 71
3
 72
8
 73
4
 74
0
 40
0
 40
0
 40
0
 40
0
 40
1
 40
1
 40
1
 40
1
 10
55.927978
 20
6.458883
 30
0.0
 10
56.771488
 20
5.971882
 30
0.0
 10
57.291111
 20
5.071868
 30
0.0
 10
57.291111
 20
4.097867
 30
0.0
  0
LWPOLYLINE
  5
11a
100
AcDbEntity
  8
0
 62
7
100
AcDbPolyline
 90
2
 70
0
 10
74.506667
 20
21.087644
 30
0.0
 10
74.506667
 20
21.087644
 30
0.0
  0
SPLINE
  5
11b
100
AcDbEntity
  8
0
 62
7
100
AcDbSpline
 70
8
 71
3
 72
8
 73
4
 74
0
 40
0
 40
0
 40
0
 40
0
 40
1
 40
1
 40
1
 40
1
 10
99.624444
 20
4.154311
 30
0.0
 10
99.624444
 20
3.180310
 30
0.0
 10
99.104821
 20
2.280296
 30
0.0
 10
98.261311
 20
1.793295
 30
0.0
  0
SPLINE
  5
11c
100
AcDbEntity
  8
0
 62
7
100
AcDbSpline
 70
8
 71
3
 72
8
 73
4
 74
0
 40
0
 40
0
 40
0
 40
0
 40
1
 40
1
 40
1
 40
1
 10
98.261311
 20
1.793295
 30
0.0
 10
97.417801
 20
1.306294
 30
0.0
 10
96.378554
 20
1.306294
 30
0.0
 10
95.535044
 20
1.793295
 30
0.0
  0
SPLINE
  5
11d
100
AcDbEntity
  8
0
 62
7
100
AcDbSpline
 70
8
 71
3
 72
8
 73
4
 74
0
 40
0
 40
0
 40
0
 40
0
 40
1
 40
1
 40
1
 40
1
 10
95.535044
 20
1.793295
 30
0.0
 10
94.691535
 20
2.280296
 30
0.0
 10
94.171911
 20
3.180310
 30
0.0
 10
94.171911
 20
4.154311
 30
0.0
  0
SPLINE
  5
11e
100
AcDbEntity
  8
0
 62
7
100
AcDbSpline
 70
8
 71
3
 72
8
 73
4
 74
0
 40
0
 40
0
 40
0
 40
0
 40
1
 40
1
 40
1
 40
1
 10
94.171911
 20
4.154311
 30
0.0
 10
94.171911
 20
5.128312
 30
0.0
 10
94.691535
 20
6.028327
 30
0.0
 10
95.535044
 20
6.515327
 30
0.0
  0
SPLINE
  5
11f
100
AcDbEntity
  8
0
 62
7
100
AcDbSpline
 70
8
 71
3
 72
8
 73
4
 74
0
 40
0
 40
0
 40
0
 40
0
 40
1
 40
1
 40
1
 40
1
 10
95.535044
 20
6.515327
 30
0.0
 10
96.378554
 20
7.002328
 30
0.0
 10
97.417801
 20
7.002328
 30
0.0
 10
98.261311
 20
6.515327
 30
0.0
  0
SPLINE
  5
120
100
AcDbEntity
  8
0
 62
7
100
AcDbSpline
 70
8
 71
3
 72
8
 73
4
 74
0
 40
0
 40
0
 40
0
 40
0
 40
1
 40
1
 40
1
 40
1
 10
98.261311
 20
6.515327
 30
0.0
 10
99.104821
 20
6.028327
 30
0.0
 10
99.624444
 20
5.128312
 30
0.0
 10
99.624444
 20
4.154311
 30
0.0
  0
LWPOLYLINE
  5
121
100
AcDbEntity
  8
0
 62
7
100
AcDbPolyline
 90
2
 70
0
 10
57.291111
 20
4.097867
 30
0.0
 10
57.291111
 20
4.097867
 30
0.0
  0
SPLINE
  5
122
100
AcDbEntity
  8
0
 62
7
100
AcDbSpline
 70
8
 71
3
 72
8
 73
4
 74
0
 40
0
 40
0
 40
0
 40
0
 40
1
 40
1
 40
1
 40
1
 10
125.024444
 20
4.154311
 30
0.0
 10
125.024444
 20
3.180310
 30
0.0
 10
124.504821
 20
2.280296
 30
0.0
 10
123.661311
 20
1.793295
 30
0.0
  0
SPLINE
  5
123
100
AcDbEntity
  8
0
 62
7
100
AcDbSpline
 70
8
 71
3
 72
8
 73
4
 74
0
 40
0
 40
0
 40
0
 40
0
 40
1
 40
1
 40
1
 40
1
 10
123.661311
 20
1.793295
 30
0.0
 10
122.817801
 20
1.306294
 30
0.0
 10
121.778554
 20
1.306294
 30
0.0
 10
120.935044
 20
1.793295
 30
0.0
  0
SPLINE
  5
124
100
AcDbEntity
  8
0
 62
7
100
AcDbSpline
 70
8
 71
3
 72
8
 73
4
 74
0
 40
0
 40
0
 40
0
 40
0
 40
1
 40
1
 40
1
 40
1
 10
120.935044
 20
1.793295
 30
0.0
 10
120.091535
 20
2.280296
 30
0.0
 10
119.571911
 20
3.180310
 30
0.0
 10
119.571911
 20
4.154311
 30
0.0
  0
SPLINE
  5
125
100
AcDbEntity
  8
0
 62
7
100
AcDbSpline
 70
8
 71
3
 72
8
 73
4
 74
0
 40
0
 40
0
 40
0
 40
0
 40
1
 40
1
 40
1
 40
1
 10
119.571911
 20
4.154311
 30
0.0
 10
119.571911
 20
5.128312
 30
0.0
 10
120.091535
 20
6.028327
 30
0.0
 10
120.935044
 20
6.515327
 30
0.0
  0
SPLINE
  5
126
100
AcDbEntity
  8
0
 62
7
100
AcDbSpline
 70
8
 71
3
 72
8
 73
4
 74
0
 40
0
 40
0
 40
0
 40
0
 40
1
 40
1
 40
1
 40
1
 10
120.935044
 20
6.515327
 30
0.0
 10
121.778554
 20
7.002328
 30
0.0
 10
122.817801
 20
7.002328
 30
0.0
 10
123.661311
 20
6.515327
 30
0.0
  0
SPLINE
  5
127
100
AcDbEntity
  8
0
 62
7
100
AcDbSpline
 70
8
 71
3
 72
8
 73
4
 74
0
 40
0
 40
0
 40
0
 40
0
 40
1
 40
1
 40
1
 40
1
 10
123.661311
 20
6.515327
 30
0.0
 10
124.504821
 20
6.028327
 30
0.0
 10
125.024444
 20
5.128312
 30
0.0
 10
125.024444
 20
4.154311
 30
0.0
  0
LWPOLYLINE
  5
128
100
AcDbEntity
  8
0
 62
7
100
AcDbPolyline
 90
2
 70
0
 10
99.624444
 20
4.154311
 30
0.0
 10
99.624444
 20
4.154311
 30
0.0
  0
SPLINE
  5
129
100
AcDbEntity
  8
0
 62
7
100
AcDbSpline
 70
8
 71
3
 72
8
 73
4
 74
0
 40
0
 40
0
 40
0
 40
0
 40
1
 40
1
 40
1
 40
1
 10
108.091111
 20
38.303200
 30
0.0
 10
108.091111
 20
37.329199
 30
0.0
 10
107.571488
 20
36.429184
 30
0.0
 10
106.727978
 20
35.942184
 30
0.0
  0
SPLINE
  5
12a
100
AcDbEntity
  8
0
 62
7
100
AcDbSpline
 70
8
 71
3
 72
8
 73
4
 74
0
 40
0
 40
0
 40
0
 40
0
 40
1
 40
1
 40
1
 40
1
 10
106.727978
 20
35.942184
 30
0.0
 10
105.884468
 20
35.455183
 30
0.0
 10
104.845221
 20
35.455183
 30
0.0
 10
104.001711
 20
35.942184
 30
0.0
  0
SPLINE
  5
12b
100
AcDbEntity
  8
0
 62
7
100
AcDbSpline
 70
8
 71
3
 72
8
 73
4
 74
0
 40
0
 40
0
 40
0
 40
0
 40
1
 40
1
 40
1
 40
1
 10
104.001711
 20
35.942184
 30
0.0
 10
103.158201
 20
36.429184
 30
0.0
 10
102.638578
 20
37.329199
 30
0.0
 10
102.638578
 20
38.303200
 30
0.0
  0
SPLINE
  5
12c
100
AcDbEntity
  8
0
 62
7
100
AcDbSpline
 70
8
 71
3
 72
8
 73
4
 74
0
 40
0
 40
0
 40
0
 40
0
 40
1
 40
1
 40
1
 40
1
 10
102.638578
 20
38.303200
 30
0.0
 10
102.638578
 20
39.277201
 30
0.0
 10
103.158201
 20
40.177216
 30
0.0
 10
104.001711
 20
40.664216
 30
0.0
  0
SPLINE
  5
12d
100
AcDbEntity
  8
0
 62
7
100
AcDbSpline
 70
8
 71
3
 72
8
 73
4
 74
0
 40
0
 40
0
 40
0
 40
0
 40
1
 40
1
 40
1
 40
1
 10
104.001711
 20
40.664216
 30
0.0
 10
104.845221
 20
41.151217
 30
0.0
 10
105.884468
 20
41.151217
 30
0.0
 10
106.727978
 20
40.664216
 30
0.0
  0
SPLINE
  5
12e
100
AcDbEntity
  8
0
 62
7
100
AcDbSpline
 70
8
 71
3
 72
8
 73
4
 74
0
 40
0
 40
0
 40
0
 40
0
 40
1
 40
1
 40
1
 40
1
 10
106.727978
 20
40.664216
 30
0.0
 10
107.571488
 20
40.177216
 30
0.0
 10
108.091111
 20
39.277201
 30
0.0
 10
108.091111
 20
38.303200
 30
0.0
  0
LWPOLYLINE
  5
12f
100
AcDbEntity
  8
0
 62
7
100
AcDbPolyline
 90
2
 70
0
 10
125.024444
 20
4.154311
 30
0.0
 10
125.024444
 20
4.154311
 30
0.0
  0
SPLINE
  5
130
100
AcDbEntity
  8
0
 62
7
100
AcDbSpline
 70
8
 71
3
 72
8
 73
4
 74
0
 40
0
 40
0
 40
0
 40
0
 40
1
 40
1
 40
1
 40
1
 10
125.024444
 20
38.303200
 30
0.0
 10
125.024444
 20
37.329199
 30
0.0
 10
124.504821
 20
36.429184
 30
0.0
 10
123.661311
 20
35.942184
 30
0.0
  0
SPLINE
  5
131
100
AcDbEntity
  8
0
 62
7
100
AcDbSpline
 70
8
 71
3
 72
8
 73
4
 74
0
 40
0
 40
0
 40
0
 40
0
 40
1
 40
1
 40
1
 40
1
 10
123.661311
 20
35.942184
 30
0.0
 10
122.817801
 20
35.455183
 30
0.0
 10
121.778554
 20
35.455183
 30
0.0
 10
120.935044
 20
35.942184
 30
0.0
  0
SPLINE
  5
132
100
AcDbEntity
  8
0
 62
7
100
AcDbSpline
 70
8
 71
3
 72
8
 73
4
 74
0
 40
0
 40
0
 40
0
 40
0
 40
1
 40
1
 40
1
 40
1
 10
120.935044
 20
35.942184
 30
0.0
 10
120.091535
 20
36.429184
 30
0.0
 10
119.571911
 20
37.329199
 30
0.0
 10
119.571911
 20
38.303200
 30
0.0
  0
SPLINE
  5
133
100
AcDbEntity
  8
0
 62
7
100
AcDbSpline
 70
8
 71
3
 72
8
 73
4
 74
0
 40
0
 40
0
 40
0
 40
0
 40
1
 40
1
 40
1
 40
1
 10
119.571911
 20
38.303200
 30
0.0
 10
119.571911
 20
39.277201
 30
0.0
 10
120.091535
 20
40.177216
 30
0.0
 10
120.935044
 20
40.664216
 30
0.0
  0
SPLINE
  5
134
100
AcDbEntity
  8
0
 62
7
100
AcDbSpline
 70
8
 71
3
 72
8
 73
4
 74
0
 40
0
 40
0
 40
0
 40
0
 40
1
 40
1
 40
1
 40
1
 10
120.935044
 20
40.664216
 30
0.0
 10
121.778554
 20
41.151217
 30
0.0
 10
122.817801
 20
41.151217
 30
0.0
 10
123.661311
 20
40.664216
 30
0.0
  0
SPLINE
  5
135
100
AcDbEntity
  8
0
 62
7
100
AcDbSpline
 70
8
 71
3
 72
8
 73
4
 74
0
 40
0
 40
0
 40
0
 40
0
 40
1
 40
1
 40
1
 40
1
 10
123.661311
 20
40.664216
 30
0.0
 10
124.504821
 20
40.177216
 30
0.0
 10
125.024444
 20
39.277201
 30
0.0
 10
125.024444
 20
38.303200
 30
0.0
  0
LWPOLYLINE
  5
136
100
AcDbEntity
  8
0
 62
7
100
AcDbPolyline
 90
2
 70
0
 10
108.091111
 20
38.303200
 30
0.0
 10
108.091111
 20
38.303200
 30
0.0
  0
LWPOLYLINE
  5
137
100
AcDbEntity
  8
0
 62
7
100
AcDbPolyline
 90
2
 70
0
 10
125.024444
 20
38.303200
 30
0.0
 10
125.024444
 20
38.303200
 30
0.0
  0
LWPOLYLINE
  5
138
100
AcDbEntity
  8
0
 62
7
100
AcDbPolyline
 90
5
 70
0
 10
3.668889
 20
38.303200
 30
0.0
 10
3.668889
 20
4.162778
 30
0.0
 10
20.630444
 20
4.092222
 30
0.0
 10
20.630444
 20
21.127156
 30
0.0
 10
3.668889
 20
21.197711
 30
0.0
  0
LWPOLYLINE
  5
139
100
AcDbEntity
  8
0
 62
7
100
AcDbPolyline
 90
6
 70
0
 10
29.351111
 20
21.087644
 30
0.0
 10
46.171556
 20
21.087644
 30
0.0
 10
46.101000
 20
4.196644
 30
0.0
 10
29.139444
 20
4.196644
 30
0.0
 10
29.068889
 20
12.606867
 30
0.0
 10
46.174378
 20
12.606867
 30
0.0
  0
LWPOLYLINE
  5
13a
100
AcDbEntity
  8
0
 62
7
100
AcDbPolyline
 90
6
 70
0
 10
71.684444
 20
21.087644
 30
0.0
 10
54.578956
 20
21.087644
 30
0.0
 10
54.578956
 20
12.536311
 30
0.0
 10
71.469956
 20
12.536311
 30
0.0
 10
71.469956
 20
4.055533
 30
0.0
 10
54.578956
 20
4.055533
 30
0.0
  0
LWPOLYLINE
  5
13b
100
AcDbEntity
  8
0
 62
7
100
AcDbPolyline
 90
6
 70
0
 10
96.802222
 20
4.154311
 30
0.0
 10
79.840667
 20
4.154311
 30
0.0
 10
79.840667
 20
21.189244
 30
0.0
 10
96.802222
 20
21.189244
 30
0.0
 10
96.802222
 20
12.708467
 30
0.0
 10
79.981778
 20
12.708467
 30
0.0
  0
LWPOLYLINE
  5
13c
100
AcDbEntity
  8
0
 62
7
100
AcDbPolyline
 90
5
 70
0
 10
105.410000
 20
38.303200
 30
0.0
 10
105.410000
 20
21.268267
 30
0.0
 10
122.301000
 20
21.268267
 30
0.0
 10
122.301000
 20
4.162778
 30
0.0
 10
122.301000
 20
38.229822
 30
0.0
  0
LWPOLYLINE
  5
13d
100
AcDbEntity
  8
0
 62
7
100
AcDbPolyline
 90
8
 70
0
 10
130.668889
 20
38.303200
 30
0.0
 10
147.988867
 20
38.303200
 30
0.0
 10
147.988867
 20
21.087644
 30
0.0
 10
131.055533
 20
21.087644
 30
0.0
 10
147.988867
 20
21.087644
 30
0.0
 10
147.988867
 20
4.092222
 30
0.0
 10
130.742267
 20
4.092222
 30
0.0
 10
130.668889
 20
38.303200
 30
0.0
  0
ENDSEC
  0
SECTION
  2
OBJECTS
  0
DICTIONARY
  5
C
330
0
100
AcDbDictionary
  3
ACAD_GROUP
350
D
  3
ACAD_MLINESTYLE
350
17
  0
DICTIONARY
  5
D
330
C
100
AcDbDictionary
  0
DICTIONARY
  5
1A
330
C
100
AcDbDictionary
  0
DICTIONARY
  5
17
330
C
100
AcDbDictionary
  3
STANDARD
350
18
  0
DICTIONARY
  5
19
330
C
100
AcDbDictionary
  0
ENDSEC
  0
EOF
