<?xml version="1.0" encoding="UTF-8" standalone="no"?>
<!-- Created with Inkscape (http://www.inkscape.org/) -->

<svg
   xmlns:dc="http://purl.org/dc/elements/1.1/"
   xmlns:cc="http://creativecommons.org/ns#"
   xmlns:rdf="http://www.w3.org/1999/02/22-rdf-syntax-ns#"
   xmlns:svg="http://www.w3.org/2000/svg"
   xmlns="http://www.w3.org/2000/svg"
   version="1.1"
   width="1052.3622"
   height="1488.189"
   id="svg2">
  <defs
     id="defs4">
    <style
       type="text/css"
       id="style3177" />
  </defs>
  <metadata
     id="metadata7">
    <rdf:RDF>
      <cc:Work
         rdf:about="">
        <dc:format>image/svg+xml</dc:format>
        <dc:type
           rdf:resource="http://purl.org/dc/dcmitype/StillImage" />
        <dc:title></dc:title>
      </cc:Work>
    </rdf:RDF>
  </metadata>
  <g
     transform="translate(0,435.82679)"
     id="layer1">
    <g
       transform="matrix(0,2.6097492,-2.6097492,0,683.89104,-390.41506)"
       id="img">
      <g
         id="circles">
        <path
           d="M 22.5,13 A 9.65,9.65 0 1 1 3.2,13 9.66,9.66 0 1 1 22.52,13 z"
           id="b"
           style="fill:none;stroke:#cb0000;stroke-width:5.5;stroke-linecap:round;stroke-linejoin:round;stroke-miterlimit:4;stroke-opacity:1" />
        <path
           d="m 113.5,74 a 9.66,9.66 0 1 1 -19.32,0 9.66,9.66 0 1 1 19.32,0 z"
           id="a"
           style="fill:none;stroke:#cb0000;stroke-width:5.5;stroke-linecap:round;stroke-linejoin:round;stroke-miterlimit:4;stroke-opacity:1" />
        <path
           d="M 264,74 A 9.66,9.66 0 1 1 244.68,74 9.66,9.66 0 1 1 264,74 z"
           id="s-t"
           style="fill:none;stroke:#cb0000;stroke-width:5.5;stroke-linecap:round;stroke-linejoin:round;stroke-miterlimit:4;stroke-opacity:1" />
        <path
           d="m 203,134.2 a 9.66,9.66 0 1 1 -19.32,0 9.66,9.66 0 1 1 19.32,0 z"
           id="s-b"
           style="fill:none;stroke:#cb0000;stroke-width:5.5;stroke-linecap:round;stroke-linejoin:round;stroke-miterlimit:4;stroke-opacity:1" />
        <path
           d="m 353,134 a 9.66,9.66 0 1 1 -19.32,0 9.66,9.66 0 1 1 19.32,0 z"
           id="e"
           style="fill:none;stroke:#cb0000;stroke-width:5.5;stroke-linecap:round;stroke-linejoin:round;stroke-miterlimit:4;stroke-opacity:1" />
        <path
           d="m 443,134 a 9.66,9.66 0 1 1 -19.32,0 9.66,9.66 0 1 1 19.32,0 z"
           id="4-b"
           style="fill:none;stroke:#cb0000;stroke-width:5.5;stroke-linecap:round;stroke-linejoin:round;stroke-miterlimit:4;stroke-opacity:1" />
        <path
           d="M 383,13 A 9.66,9.66 0 1 1 363.68,13 9.66,9.66 0 1 1 383,13 z"
           id="4-l"
           style="fill:none;stroke:#cb0000;stroke-width:5.5;stroke-linecap:round;stroke-linejoin:round;stroke-miterlimit:4;stroke-opacity:1" />
        <path
           d="M 443,13 A 9.66,9.66 0 1 1 423.68,13 9.66,9.66 0 1 1 443,13 z"
           id="4-r"
           style="fill:none;stroke:#cb0000;stroke-width:5.5;stroke-linecap:round;stroke-linejoin:round;stroke-miterlimit:4;stroke-opacity:1" />
      </g>
      <g
         id="text">
        <path
           d="m 13,13 0,120.97 60.1,0.25 0,-60.36 L 13,73.61"
           id="path3190"
           style="fill:none;stroke:#000000;stroke-width:10;stroke-linecap:round;stroke-linejoin:round;stroke-miterlimit:4;stroke-opacity:1" />
        <path
           d="m 104,74 59.6,0 -0.25,59.85 -60.1,0 -0.25,-29.8 60.61,0"
           id="path3192"
           style="fill:none;stroke:#000000;stroke-width:10;stroke-linecap:round;stroke-linejoin:round;stroke-miterlimit:4;stroke-opacity:1" />
        <path
           d="m 254,74 -60.61,0 0,30.3 59.85,0 0,30.05 -59.85,0"
           id="s"
           style="fill:none;stroke:#000000;stroke-width:10;stroke-linecap:round;stroke-linejoin:round;stroke-miterlimit:4;stroke-opacity:1" />
        <path
           d="m 343,134 -60.1,0 0,-60.36 60.1,0 0,30.05 -59.6,0"
           id="path3195"
           style="fill:none;stroke:#000000;stroke-width:10;stroke-linecap:round;stroke-linejoin:round;stroke-miterlimit:4;stroke-opacity:1" />
        <path
           d="m 373.5,13 0,60.36 59.85,0 0,60.61 0,-120.71"
           id="4"
           style="fill:none;stroke:#000000;stroke-width:10;stroke-linecap:round;stroke-linejoin:round;stroke-miterlimit:4;stroke-opacity:1" />
        <path
           d="m 463,13 61.37,0 0,61 -60,0 60,0 0,60.22 -61.11,0 z"
           id="8"
           style="fill:none;stroke:#000000;stroke-width:10;stroke-linecap:round;stroke-linejoin:round;stroke-miterlimit:4;stroke-opacity:1" />
      </g>
    </g>
  </g>
</svg>
