  0
SECTION
  2
BLOCKS
  0
ENDSEC
  0
SECTION
  2
ENTITIES
  0
LINE
  8
0
 10
-53.313
 11
-53.247
 20
11.022
 21
11.694
  0
LINE
  8
0
 10
-53.247
 11
-53.051
 20
11.694
 21
12.341
  0
LINE
  8
0
 10
-53.051
 11
-52.732
 20
12.341
 21
12.936
  0
LINE
  8
0
 10
-52.732
 11
-52.304
 20
12.936
 21
13.459
  0
LINE
  8
0
 10
-52.304
 11
-51.781
 20
13.459
 21
13.887
  0
LINE
  8
0
 10
-51.781
 11
-51.186
 20
13.887
 21
14.206
  0
LINE
  8
0
 10
-51.186
 11
-50.539
 20
14.206
 21
14.402
  0
LINE
  8
0
 10
-50.539
 11
-49.867
 20
14.402
 21
14.468
  0
LINE
  8
0
 10
-49.867
 11
-49.195
 20
14.468
 21
14.402
  0
LINE
  8
0
 10
-49.195
 11
-48.548
 20
14.402
 21
14.206
  0
LINE
  8
0
 10
-48.548
 11
-47.953
 20
14.206
 21
13.887
  0
LINE
  8
0
 10
-47.953
 11
-47.43
 20
13.887
 21
13.459
  0
LINE
  8
0
 10
-47.43
 11
-47.002
 20
13.459
 21
12.936
  0
LINE
  8
0
 10
-47.002
 11
-46.683
 20
12.936
 21
12.341
  0
LINE
  8
0
 10
-46.683
 11
-46.487
 20
12.341
 21
11.694
  0
LINE
  8
0
 10
-46.487
 11
-46.421
 20
11.694
 21
11.022
  0
LINE
  8
0
 10
-46.421
 11
-46.487
 20
11.022
 21
10.35
  0
LINE
  8
0
 10
-46.487
 11
-46.683
 20
10.35
 21
9.703
  0
LINE
  8
0
 10
-46.683
 11
-47.002
 20
9.703
 21
9.108
  0
LINE
  8
0
 10
-47.002
 11
-47.43
 20
9.108
 21
8.585
  0
LINE
  8
0
 10
-47.43
 11
-47.953
 20
8.585
 21
8.157
  0
LINE
  8
0
 10
-47.953
 11
-48.548
 20
8.157
 21
7.838
  0
LINE
  8
0
 10
-48.548
 11
-49.195
 20
7.838
 21
7.642
  0
LINE
  8
0
 10
-49.195
 11
-49.737
 20
7.642
 21
7.589
  0
LINE
  8
0
 10
-49.737
 11
-49.737
 20
7.589
 21
-1
  0
LINE
  8
0
 10
-49.737
 11
-37.817
 20
-1
 21
-1.05
  0
LINE
  8
0
 10
-37.817
 11
-37.797
 20
-1.05
 21
-1.052
  0
LINE
  8
0
 10
-37.797
 11
-37.779
 20
-1.052
 21
-1.058
  0
LINE
  8
0
 10
-37.779
 11
-37.761
 20
-1.058
 21
-1.067
  0
LINE
  8
0
 10
-37.761
 11
-37.746
 20
-1.067
 21
-1.079
  0
LINE
  8
0
 10
-37.746
 11
-37.734
 20
-1.079
 21
-1.094
  0
LINE
  8
0
 10
-37.734
 11
-37.725
 20
-1.094
 21
-1.112
  0
LINE
  8
0
 10
-37.725
 11
-37.719
 20
-1.112
 21
-1.13
  0
LINE
  8
0
 10
-37.719
 11
-37.717
 20
-1.13
 21
-1.15
  0
LINE
  8
0
 10
-37.717
 11
-37.717
 20
-1.15
 21
-13.222
  0
LINE
  8
0
 10
-37.717
 11
-37.719
 20
-13.222
 21
-13.242
  0
LINE
  8
0
 10
-37.719
 11
-37.725
 20
-13.242
 21
-13.26
  0
LINE
  8
0
 10
-37.725
 11
-37.734
 20
-13.26
 21
-13.278
  0
LINE
  8
0
 10
-37.734
 11
-37.746
 20
-13.278
 21
-13.293
  0
LINE
  8
0
 10
-37.746
 11
-37.761
 20
-13.293
 21
-13.305
  0
LINE
  8
0
 10
-37.761
 11
-37.779
 20
-13.305
 21
-13.314
  0
LINE
  8
0
 10
-37.779
 11
-37.797
 20
-13.314
 21
-13.32
  0
LINE
  8
0
 10
-37.797
 11
-37.817
 20
-13.32
 21
-13.322
  0
LINE
  8
0
 10
-37.817
 11
-49.837
 20
-13.322
 21
-13.272
  0
LINE
  8
0
 10
-49.837
 11
-49.857
 20
-13.272
 21
-13.27
  0
LINE
  8
0
 10
-49.857
 11
-49.875
 20
-13.27
 21
-13.264
  0
LINE
  8
0
 10
-49.875
 11
-49.893
 20
-13.264
 21
-13.255
  0
LINE
  8
0
 10
-49.893
 11
-49.908
 20
-13.255
 21
-13.243
  0
LINE
  8
0
 10
-49.908
 11
-49.92
 20
-13.243
 21
-13.228
  0
LINE
  8
0
 10
-49.92
 11
-49.929
 20
-13.228
 21
-13.21
  0
LINE
  8
0
 10
-49.929
 11
-49.935
 20
-13.21
 21
-13.192
  0
LINE
  8
0
 10
-49.935
 11
-49.937
 20
-13.192
 21
-13.172
  0
LINE
  8
0
 10
-49.937
 11
-49.937
 20
-13.172
 21
7.583
  0
LINE
  8
0
 10
-49.937
 11
-50.539
 20
7.583
 21
7.642
  0
LINE
  8
0
 10
-50.539
 11
-51.186
 20
7.642
 21
7.838
  0
LINE
  8
0
 10
-51.186
 11
-51.781
 20
7.838
 21
8.157
  0
LINE
  8
0
 10
-51.781
 11
-52.304
 20
8.157
 21
8.585
  0
LINE
  8
0
 10
-52.304
 11
-52.732
 20
8.585
 21
9.108
  0
LINE
  8
0
 10
-52.732
 11
-53.051
 20
9.108
 21
9.703
  0
LINE
  8
0
 10
-53.051
 11
-53.247
 20
9.703
 21
10.35
  0
LINE
  8
0
 10
-53.247
 11
-53.313
 20
10.35
 21
11.022
  0
LINE
  8
0
 10
-53.113
 11
-53.051
 20
11.022
 21
11.655
  0
LINE
  8
0
 10
-53.051
 11
-52.866
 20
11.655
 21
12.264
  0
LINE
  8
0
 10
-52.866
 11
-52.566
 20
12.264
 21
12.825
  0
LINE
  8
0
 10
-52.566
 11
-52.162
 20
12.825
 21
13.317
  0
LINE
  8
0
 10
-52.162
 11
-51.67
 20
13.317
 21
13.721
  0
LINE
  8
0
 10
-51.67
 11
-51.109
 20
13.721
 21
14.021
  0
LINE
  8
0
 10
-51.109
 11
-50.5
 20
14.021
 21
14.206
  0
LINE
  8
0
 10
-50.5
 11
-49.867
 20
14.206
 21
14.268
  0
LINE
  8
0
 10
-49.867
 11
-49.234
 20
14.268
 21
14.206
  0
LINE
  8
0
 10
-49.234
 11
-48.625
 20
14.206
 21
14.021
  0
LINE
  8
0
 10
-48.625
 11
-48.064
 20
14.021
 21
13.721
  0
LINE
  8
0
 10
-48.064
 11
-47.572
 20
13.721
 21
13.317
  0
LINE
  8
0
 10
-47.572
 11
-47.168
 20
13.317
 21
12.825
  0
LINE
  8
0
 10
-47.168
 11
-46.868
 20
12.825
 21
12.264
  0
LINE
  8
0
 10
-46.868
 11
-46.683
 20
12.264
 21
11.655
  0
LINE
  8
0
 10
-46.683
 11
-46.621
 20
11.655
 21
11.022
  0
LINE
  8
0
 10
-46.621
 11
-46.683
 20
11.022
 21
10.389
  0
LINE
  8
0
 10
-46.683
 11
-46.868
 20
10.389
 21
9.78
  0
LINE
  8
0
 10
-46.868
 11
-47.168
 20
9.78
 21
9.219
  0
LINE
  8
0
 10
-47.168
 11
-47.572
 20
9.219
 21
8.727
  0
LINE
  8
0
 10
-47.572
 11
-48.064
 20
8.727
 21
8.323
  0
LINE
  8
0
 10
-48.064
 11
-48.625
 20
8.323
 21
8.023
  0
LINE
  8
0
 10
-48.625
 11
-49.234
 20
8.023
 21
7.838
  0
LINE
  8
0
 10
-49.234
 11
-49.737
 20
7.838
 21
7.789
  0
LINE
  8
0
 10
-49.737
 11
-49.737
 20
7.789
 21
11.022
  0
LINE
  8
0
 10
-49.737
 11
-49.739
 20
11.022
 21
11.042
  0
LINE
  8
0
 10
-49.739
 11
-49.745
 20
11.042
 21
11.06
  0
LINE
  8
0
 10
-49.745
 11
-49.754
 20
11.06
 21
11.078
  0
LINE
  8
0
 10
-49.754
 11
-49.766
 20
11.078
 21
11.093
  0
LINE
  8
0
 10
-49.766
 11
-49.781
 20
11.093
 21
11.105
  0
LINE
  8
0
 10
-49.781
 11
-49.799
 20
11.105
 21
11.114
  0
LINE
  8
0
 10
-49.799
 11
-49.817
 20
11.114
 21
11.12
  0
LINE
  8
0
 10
-49.817
 11
-49.837
 20
11.12
 21
11.122
  0
LINE
  8
0
 10
-49.837
 11
-49.857
 20
11.122
 21
11.12
  0
LINE
  8
0
 10
-49.857
 11
-49.875
 20
11.12
 21
11.114
  0
LINE
  8
0
 10
-49.875
 11
-49.893
 20
11.114
 21
11.105
  0
LINE
  8
0
 10
-49.893
 11
-49.908
 20
11.105
 21
11.093
  0
LINE
  8
0
 10
-49.908
 11
-49.92
 20
11.093
 21
11.078
  0
LINE
  8
0
 10
-49.92
 11
-49.929
 20
11.078
 21
11.06
  0
LINE
  8
0
 10
-49.929
 11
-49.935
 20
11.06
 21
11.042
  0
LINE
  8
0
 10
-49.935
 11
-49.937
 20
11.042
 21
11.022
  0
LINE
  8
0
 10
-49.937
 11
-49.937
 20
11.022
 21
7.783
  0
LINE
  8
0
 10
-49.937
 11
-50.5
 20
7.783
 21
7.838
  0
LINE
  8
0
 10
-50.5
 11
-51.109
 20
7.838
 21
8.023
  0
LINE
  8
0
 10
-51.109
 11
-51.67
 20
8.023
 21
8.323
  0
LINE
  8
0
 10
-51.67
 11
-52.162
 20
8.323
 21
8.727
  0
LINE
  8
0
 10
-52.162
 11
-52.566
 20
8.727
 21
9.219
  0
LINE
  8
0
 10
-52.566
 11
-52.866
 20
9.219
 21
9.78
  0
LINE
  8
0
 10
-52.866
 11
-53.051
 20
9.78
 21
10.389
  0
LINE
  8
0
 10
-53.051
 11
-53.113
 20
10.389
 21
11.022
  0
LINE
  8
0
 10
-49.737
 11
-49.737
 20
-13.072
 21
-1.2
  0
LINE
  8
0
 10
-49.737
 11
-37.917
 20
-1.2
 21
-1.25
  0
LINE
  8
0
 10
-37.917
 11
-37.917
 20
-1.25
 21
-13.122
  0
LINE
  8
0
 10
-37.917
 11
-49.737
 20
-13.122
 21
-13.072
  0
LINE
  8
0
 10
-35.113
 11
-35.047
 20
-1.178
 21
-0.506
  0
LINE
  8
0
 10
-35.047
 11
-34.851
 20
-0.506
 21
0.141
  0
LINE
  8
0
 10
-34.851
 11
-34.532
 20
0.141
 21
0.736
  0
LINE
  8
0
 10
-34.532
 11
-34.104
 20
0.736
 21
1.259
  0
LINE
  8
0
 10
-34.104
 11
-33.581
 20
1.259
 21
1.687
  0
LINE
  8
0
 10
-33.581
 11
-32.986
 20
1.687
 21
2.006
  0
LINE
  8
0
 10
-32.986
 11
-32.339
 20
2.006
 21
2.202
  0
LINE
  8
0
 10
-32.339
 11
-31.667
 20
2.202
 21
2.268
  0
LINE
  8
0
 10
-31.667
 11
-30.995
 20
2.268
 21
2.202
  0
LINE
  8
0
 10
-30.995
 11
-30.348
 20
2.202
 21
2.006
  0
LINE
  8
0
 10
-30.348
 11
-29.753
 20
2.006
 21
1.687
  0
LINE
  8
0
 10
-29.753
 11
-29.23
 20
1.687
 21
1.259
  0
LINE
  8
0
 10
-29.23
 11
-28.802
 20
1.259
 21
0.736
  0
LINE
  8
0
 10
-28.802
 11
-28.483
 20
0.736
 21
0.141
  0
LINE
  8
0
 10
-28.483
 11
-28.287
 20
0.141
 21
-0.506
  0
LINE
  8
0
 10
-28.287
 11
-28.231
 20
-0.506
 21
-1.078
  0
LINE
  8
0
 10
-28.231
 11
-19.717
 20
-1.078
 21
-1.078
  0
LINE
  8
0
 10
-19.717
 11
-19.697
 20
-1.078
 21
-1.08
  0
LINE
  8
0
 10
-19.697
 11
-19.679
 20
-1.08
 21
-1.086
  0
LINE
  8
0
 10
-19.679
 11
-19.661
 20
-1.086
 21
-1.095
  0
LINE
  8
0
 10
-19.661
 11
-19.646
 20
-1.095
 21
-1.107
  0
LINE
  8
0
 10
-19.646
 11
-19.634
 20
-1.107
 21
-1.122
  0
LINE
  8
0
 10
-19.634
 11
-19.625
 20
-1.122
 21
-1.14
  0
LINE
  8
0
 10
-19.625
 11
-19.619
 20
-1.14
 21
-1.158
  0
LINE
  8
0
 10
-19.619
 11
-19.617
 20
-1.158
 21
-1.178
  0
LINE
  8
0
 10
-19.617
 11
-19.642
 20
-1.178
 21
-7.12
  0
LINE
  8
0
 10
-19.642
 11
-19.632
 20
-7.12
 21
-7.132
  0
LINE
  8
0
 10
-19.632
 11
-19.623
 20
-7.132
 21
-7.15
  0
LINE
  8
0
 10
-19.623
 11
-19.617
 20
-7.15
 21
-7.168
  0
LINE
  8
0
 10
-19.617
 11
-19.615
 20
-7.168
 21
-7.188
  0
LINE
  8
0
 10
-19.615
 11
-19.617
 20
-7.188
 21
-7.208
  0
LINE
  8
0
 10
-19.617
 11
-19.623
 20
-7.208
 21
-7.226
  0
LINE
  8
0
 10
-19.623
 11
-19.632
 20
-7.226
 21
-7.244
  0
LINE
  8
0
 10
-19.632
 11
-19.642
 20
-7.244
 21
-7.256
  0
LINE
  8
0
 10
-19.642
 11
-19.667
 20
-7.256
 21
-13.148
  0
LINE
  8
0
 10
-19.667
 11
-19.669
 20
-13.148
 21
-13.168
  0
LINE
  8
0
 10
-19.669
 11
-19.675
 20
-13.168
 21
-13.186
  0
LINE
  8
0
 10
-19.675
 11
-19.684
 20
-13.186
 21
-13.204
  0
LINE
  8
0
 10
-19.684
 11
-19.696
 20
-13.204
 21
-13.219
  0
LINE
  8
0
 10
-19.696
 11
-19.711
 20
-13.219
 21
-13.231
  0
LINE
  8
0
 10
-19.711
 11
-19.729
 20
-13.231
 21
-13.24
  0
LINE
  8
0
 10
-19.729
 11
-19.747
 20
-13.24
 21
-13.246
  0
LINE
  8
0
 10
-19.747
 11
-19.767
 20
-13.246
 21
-13.248
  0
LINE
  8
0
 10
-19.767
 11
-31.787
 20
-13.248
 21
-13.248
  0
LINE
  8
0
 10
-31.787
 11
-31.807
 20
-13.248
 21
-13.246
  0
LINE
  8
0
 10
-31.807
 11
-31.825
 20
-13.246
 21
-13.24
  0
LINE
  8
0
 10
-31.825
 11
-31.843
 20
-13.24
 21
-13.231
  0
LINE
  8
0
 10
-31.843
 11
-31.858
 20
-13.231
 21
-13.219
  0
LINE
  8
0
 10
-31.858
 11
-31.87
 20
-13.219
 21
-13.204
  0
LINE
  8
0
 10
-31.87
 11
-31.879
 20
-13.204
 21
-13.186
  0
LINE
  8
0
 10
-31.879
 11
-31.885
 20
-13.186
 21
-13.168
  0
LINE
  8
0
 10
-31.885
 11
-31.887
 20
-13.168
 21
-13.148
  0
LINE
  8
0
 10
-31.887
 11
-31.937
 20
-13.148
 21
-7.188
  0
LINE
  8
0
 10
-31.937
 11
-31.935
 20
-7.188
 21
-7.168
  0
LINE
  8
0
 10
-31.935
 11
-31.929
 20
-7.168
 21
-7.15
  0
LINE
  8
0
 10
-31.929
 11
-31.92
 20
-7.15
 21
-7.132
  0
LINE
  8
0
 10
-31.92
 11
-31.908
 20
-7.132
 21
-7.117
  0
LINE
  8
0
 10
-31.908
 11
-31.893
 20
-7.117
 21
-7.105
  0
LINE
  8
0
 10
-31.893
 11
-31.875
 20
-7.105
 21
-7.096
  0
LINE
  8
0
 10
-31.875
 11
-31.857
 20
-7.096
 21
-7.09
  0
LINE
  8
0
 10
-31.857
 11
-31.837
 20
-7.09
 21
-7.088
  0
LINE
  8
0
 10
-31.837
 11
-19.842
 20
-7.088
 21
-7.088
  0
LINE
  8
0
 10
-19.842
 11
-19.817
 20
-7.088
 21
-1.278
  0
LINE
  8
0
 10
-19.817
 11
-28.231
 20
-1.278
 21
-1.278
  0
LINE
  8
0
 10
-28.231
 11
-28.287
 20
-1.278
 21
-1.85
  0
LINE
  8
0
 10
-28.287
 11
-28.483
 20
-1.85
 21
-2.497
  0
LINE
  8
0
 10
-28.483
 11
-28.802
 20
-2.497
 21
-3.092
  0
LINE
  8
0
 10
-28.802
 11
-29.23
 20
-3.092
 21
-3.615
  0
LINE
  8
0
 10
-29.23
 11
-29.753
 20
-3.615
 21
-4.043
  0
LINE
  8
0
 10
-29.753
 11
-30.348
 20
-4.043
 21
-4.362
  0
LINE
  8
0
 10
-30.348
 11
-30.995
 20
-4.362
 21
-4.558
  0
LINE
  8
0
 10
-30.995
 11
-31.667
 20
-4.558
 21
-4.624
  0
LINE
  8
0
 10
-31.667
 11
-32.339
 20
-4.624
 21
-4.558
  0
LINE
  8
0
 10
-32.339
 11
-32.986
 20
-4.558
 21
-4.362
  0
LINE
  8
0
 10
-32.986
 11
-33.581
 20
-4.362
 21
-4.043
  0
LINE
  8
0
 10
-33.581
 11
-34.104
 20
-4.043
 21
-3.615
  0
LINE
  8
0
 10
-34.104
 11
-34.532
 20
-3.615
 21
-3.092
  0
LINE
  8
0
 10
-34.532
 11
-34.851
 20
-3.092
 21
-2.497
  0
LINE
  8
0
 10
-34.851
 11
-35.047
 20
-2.497
 21
-1.85
  0
LINE
  8
0
 10
-35.047
 11
-35.113
 20
-1.85
 21
-1.178
  0
LINE
  8
0
 10
-34.913
 11
-34.851
 20
-1.178
 21
-0.545
  0
LINE
  8
0
 10
-34.851
 11
-34.666
 20
-0.545
 21
0.064
  0
LINE
  8
0
 10
-34.666
 11
-34.366
 20
0.064
 21
0.625
  0
LINE
  8
0
 10
-34.366
 11
-33.962
 20
0.625
 21
1.117
  0
LINE
  8
0
 10
-33.962
 11
-33.47
 20
1.117
 21
1.521
  0
LINE
  8
0
 10
-33.47
 11
-32.909
 20
1.521
 21
1.821
  0
LINE
  8
0
 10
-32.909
 11
-32.3
 20
1.821
 21
2.006
  0
LINE
  8
0
 10
-32.3
 11
-31.667
 20
2.006
 21
2.068
  0
LINE
  8
0
 10
-31.667
 11
-31.034
 20
2.068
 21
2.006
  0
LINE
  8
0
 10
-31.034
 11
-30.425
 20
2.006
 21
1.821
  0
LINE
  8
0
 10
-30.425
 11
-29.864
 20
1.821
 21
1.521
  0
LINE
  8
0
 10
-29.864
 11
-29.372
 20
1.521
 21
1.117
  0
LINE
  8
0
 10
-29.372
 11
-28.968
 20
1.117
 21
0.625
  0
LINE
  8
0
 10
-28.968
 11
-28.668
 20
0.625
 21
0.064
  0
LINE
  8
0
 10
-28.668
 11
-28.483
 20
0.064
 21
-0.545
  0
LINE
  8
0
 10
-28.483
 11
-28.431
 20
-0.545
 21
-1.078
  0
LINE
  8
0
 10
-28.431
 11
-31.637
 20
-1.078
 21
-1.078
  0
LINE
  8
0
 10
-31.637
 11
-31.657
 20
-1.078
 21
-1.08
  0
LINE
  8
0
 10
-31.657
 11
-31.675
 20
-1.08
 21
-1.086
  0
LINE
  8
0
 10
-31.675
 11
-31.693
 20
-1.086
 21
-1.095
  0
LINE
  8
0
 10
-31.693
 11
-31.708
 20
-1.095
 21
-1.107
  0
LINE
  8
0
 10
-31.708
 11
-31.72
 20
-1.107
 21
-1.122
  0
LINE
  8
0
 10
-31.72
 11
-31.729
 20
-1.122
 21
-1.14
  0
LINE
  8
0
 10
-31.729
 11
-31.735
 20
-1.14
 21
-1.158
  0
LINE
  8
0
 10
-31.735
 11
-31.737
 20
-1.158
 21
-1.178
  0
LINE
  8
0
 10
-31.737
 11
-31.735
 20
-1.178
 21
-1.198
  0
LINE
  8
0
 10
-31.735
 11
-31.729
 20
-1.198
 21
-1.216
  0
LINE
  8
0
 10
-31.729
 11
-31.72
 20
-1.216
 21
-1.234
  0
LINE
  8
0
 10
-31.72
 11
-31.708
 20
-1.234
 21
-1.249
  0
LINE
  8
0
 10
-31.708
 11
-31.693
 20
-1.249
 21
-1.261
  0
LINE
  8
0
 10
-31.693
 11
-31.675
 20
-1.261
 21
-1.27
  0
LINE
  8
0
 10
-31.675
 11
-31.657
 20
-1.27
 21
-1.276
  0
LINE
  8
0
 10
-31.657
 11
-31.637
 20
-1.276
 21
-1.278
  0
LINE
  8
0
 10
-31.637
 11
-28.431
 20
-1.278
 21
-1.278
  0
LINE
  8
0
 10
-28.431
 11
-28.483
 20
-1.278
 21
-1.811
  0
LINE
  8
0
 10
-28.483
 11
-28.668
 20
-1.811
 21
-2.42
  0
LINE
  8
0
 10
-28.668
 11
-28.968
 20
-2.42
 21
-2.981
  0
LINE
  8
0
 10
-28.968
 11
-29.372
 20
-2.981
 21
-3.473
  0
LINE
  8
0
 10
-29.372
 11
-29.864
 20
-3.473
 21
-3.877
  0
LINE
  8
0
 10
-29.864
 11
-30.425
 20
-3.877
 21
-4.177
  0
LINE
  8
0
 10
-30.425
 11
-31.034
 20
-4.177
 21
-4.362
  0
LINE
  8
0
 10
-31.034
 11
-31.667
 20
-4.362
 21
-4.424
  0
LINE
  8
0
 10
-31.667
 11
-32.3
 20
-4.424
 21
-4.362
  0
LINE
  8
0
 10
-32.3
 11
-32.909
 20
-4.362
 21
-4.177
  0
LINE
  8
0
 10
-32.909
 11
-33.47
 20
-4.177
 21
-3.877
  0
LINE
  8
0
 10
-33.47
 11
-33.962
 20
-3.877
 21
-3.473
  0
LINE
  8
0
 10
-33.962
 11
-34.366
 20
-3.473
 21
-2.981
  0
LINE
  8
0
 10
-34.366
 11
-34.666
 20
-2.981
 21
-2.42
  0
LINE
  8
0
 10
-34.666
 11
-34.851
 20
-2.42
 21
-1.811
  0
LINE
  8
0
 10
-34.851
 11
-34.913
 20
-1.811
 21
-1.178
  0
LINE
  8
0
 10
-31.736
 11
-19.843
 20
-7.288
 21
-7.288
  0
LINE
  8
0
 10
-19.843
 11
-19.867
 20
-7.288
 21
-13.048
  0
LINE
  8
0
 10
-19.867
 11
-31.688
 20
-13.048
 21
-13.048
  0
LINE
  8
0
 10
-31.688
 11
-31.736
 20
-13.048
 21
-7.288
  0
LINE
  8
0
 10
-17.213
 11
-17.147
 20
-13.218
 21
-12.546
  0
LINE
  8
0
 10
-17.147
 11
-16.951
 20
-12.546
 21
-11.899
  0
LINE
  8
0
 10
-16.951
 11
-16.632
 20
-11.899
 21
-11.304
  0
LINE
  8
0
 10
-16.632
 11
-16.204
 20
-11.304
 21
-10.781
  0
LINE
  8
0
 10
-16.204
 11
-15.681
 20
-10.781
 21
-10.353
  0
LINE
  8
0
 10
-15.681
 11
-15.086
 20
-10.353
 21
-10.034
  0
LINE
  8
0
 10
-15.086
 11
-14.439
 20
-10.034
 21
-9.838
  0
LINE
  8
0
 10
-14.439
 11
-13.767
 20
-9.838
 21
-9.772
  0
LINE
  8
0
 10
-13.767
 11
-13.095
 20
-9.772
 21
-9.838
  0
LINE
  8
0
 10
-13.095
 11
-12.448
 20
-9.838
 21
-10.034
  0
LINE
  8
0
 10
-12.448
 11
-11.853
 20
-10.034
 21
-10.353
  0
LINE
  8
0
 10
-11.853
 11
-11.33
 20
-10.353
 21
-10.781
  0
LINE
  8
0
 10
-11.33
 11
-10.902
 20
-10.781
 21
-11.304
  0
LINE
  8
0
 10
-10.902
 11
-10.583
 20
-11.304
 21
-11.899
  0
LINE
  8
0
 10
-10.583
 11
-10.387
 20
-11.899
 21
-12.546
  0
LINE
  8
0
 10
-10.387
 11
-10.328
 20
-12.546
 21
-13.148
  0
LINE
  8
0
 10
-10.328
 11
-1.889
 20
-13.148
 21
-13.148
  0
LINE
  8
0
 10
-1.889
 11
-1.889
 20
-13.148
 21
-7.338
  0
LINE
  8
0
 10
-1.889
 11
-13.759
 20
-7.338
 21
-7.338
  0
LINE
  8
0
 10
-13.759
 11
-13.779
 20
-7.338
 21
-7.336
  0
LINE
  8
0
 10
-13.779
 11
-13.797
 20
-7.336
 21
-7.33
  0
LINE
  8
0
 10
-13.797
 11
-13.815
 20
-7.33
 21
-7.321
  0
LINE
  8
0
 10
-13.815
 11
-13.83
 20
-7.321
 21
-7.309
  0
LINE
  8
0
 10
-13.83
 11
-13.842
 20
-7.309
 21
-7.294
  0
LINE
  8
0
 10
-13.842
 11
-13.851
 20
-7.294
 21
-7.276
  0
LINE
  8
0
 10
-13.851
 11
-13.857
 20
-7.276
 21
-7.258
  0
LINE
  8
0
 10
-13.857
 11
-13.859
 20
-7.258
 21
-7.238
  0
LINE
  8
0
 10
-13.859
 11
-13.859
 20
-7.238
 21
-1.178
  0
LINE
  8
0
 10
-13.859
 11
-13.857
 20
-1.178
 21
-1.158
  0
LINE
  8
0
 10
-13.857
 11
-13.851
 20
-1.158
 21
-1.14
  0
LINE
  8
0
 10
-13.851
 11
-13.842
 20
-1.14
 21
-1.122
  0
LINE
  8
0
 10
-13.842
 11
-13.83
 20
-1.122
 21
-1.107
  0
LINE
  8
0
 10
-13.83
 11
-13.815
 20
-1.107
 21
-1.095
  0
LINE
  8
0
 10
-13.815
 11
-13.797
 20
-1.095
 21
-1.086
  0
LINE
  8
0
 10
-13.797
 11
-13.779
 20
-1.086
 21
-1.08
  0
LINE
  8
0
 10
-13.779
 11
-13.759
 20
-1.08
 21
-1.078
  0
LINE
  8
0
 10
-13.759
 11
-5.003
 20
-1.078
 21
-1.078
  0
LINE
  8
0
 10
-5.003
 11
-4.947
 20
-1.078
 21
-0.506
  0
LINE
  8
0
 10
-4.947
 11
-4.751
 20
-0.506
 21
0.141
  0
LINE
  8
0
 10
-4.751
 11
-4.432
 20
0.141
 21
0.736
  0
LINE
  8
0
 10
-4.432
 11
-4.004
 20
0.736
 21
1.259
  0
LINE
  8
0
 10
-4.004
 11
-3.481
 20
1.259
 21
1.687
  0
LINE
  8
0
 10
-3.481
 11
-2.886
 20
1.687
 21
2.006
  0
LINE
  8
0
 10
-2.886
 11
-2.239
 20
2.006
 21
2.202
  0
LINE
  8
0
 10
-2.239
 11
-1.567
 20
2.202
 21
2.268
  0
LINE
  8
0
 10
-1.567
 11
-0.895
 20
2.268
 21
2.202
  0
LINE
  8
0
 10
-0.895
 11
-0.248
 20
2.202
 21
2.006
  0
LINE
  8
0
 10
-0.248
 11
0.347
 20
2.006
 21
1.687
  0
LINE
  8
0
 10
0.347
 11
0.87
 20
1.687
 21
1.259
  0
LINE
  8
0
 10
0.87
 11
1.298
 20
1.259
 21
0.736
  0
LINE
  8
0
 10
1.298
 11
1.617
 20
0.736
 21
0.141
  0
LINE
  8
0
 10
1.617
 11
1.813
 20
0.141
 21
-0.506
  0
LINE
  8
0
 10
1.813
 11
1.879
 20
-0.506
 21
-1.178
  0
LINE
  8
0
 10
1.879
 11
1.813
 20
-1.178
 21
-1.85
  0
LINE
  8
0
 10
1.813
 11
1.617
 20
-1.85
 21
-2.497
  0
LINE
  8
0
 10
1.617
 11
1.298
 20
-2.497
 21
-3.092
  0
LINE
  8
0
 10
1.298
 11
0.87
 20
-3.092
 21
-3.615
  0
LINE
  8
0
 10
0.87
 11
0.347
 20
-3.615
 21
-4.043
  0
LINE
  8
0
 10
0.347
 11
-0.248
 20
-4.043
 21
-4.362
  0
LINE
  8
0
 10
-0.248
 11
-0.895
 20
-4.362
 21
-4.558
  0
LINE
  8
0
 10
-0.895
 11
-1.567
 20
-4.558
 21
-4.624
  0
LINE
  8
0
 10
-1.567
 11
-2.239
 20
-4.624
 21
-4.558
  0
LINE
  8
0
 10
-2.239
 11
-2.886
 20
-4.558
 21
-4.362
  0
LINE
  8
0
 10
-2.886
 11
-3.481
 20
-4.362
 21
-4.043
  0
LINE
  8
0
 10
-3.481
 11
-4.004
 20
-4.043
 21
-3.615
  0
LINE
  8
0
 10
-4.004
 11
-4.432
 20
-3.615
 21
-3.092
  0
LINE
  8
0
 10
-4.432
 11
-4.751
 20
-3.092
 21
-2.497
  0
LINE
  8
0
 10
-4.751
 11
-4.947
 20
-2.497
 21
-1.85
  0
LINE
  8
0
 10
-4.947
 11
-5.003
 20
-1.85
 21
-1.278
  0
LINE
  8
0
 10
-5.003
 11
-13.659
 20
-1.278
 21
-1.278
  0
LINE
  8
0
 10
-13.659
 11
-13.659
 20
-1.278
 21
-7.138
  0
LINE
  8
0
 10
-13.659
 11
-1.789
 20
-7.138
 21
-7.138
  0
LINE
  8
0
 10
-1.789
 11
-1.769
 20
-7.138
 21
-7.14
  0
LINE
  8
0
 10
-1.769
 11
-1.751
 20
-7.14
 21
-7.146
  0
LINE
  8
0
 10
-1.751
 11
-1.733
 20
-7.146
 21
-7.155
  0
LINE
  8
0
 10
-1.733
 11
-1.718
 20
-7.155
 21
-7.167
  0
LINE
  8
0
 10
-1.718
 11
-1.706
 20
-7.167
 21
-7.182
  0
LINE
  8
0
 10
-1.706
 11
-1.697
 20
-7.182
 21
-7.2
  0
LINE
  8
0
 10
-1.697
 11
-1.691
 20
-7.2
 21
-7.218
  0
LINE
  8
0
 10
-1.691
 11
-1.689
 20
-7.218
 21
-7.238
  0
LINE
  8
0
 10
-1.689
 11
-1.689
 20
-7.238
 21
-13.248
  0
LINE
  8
0
 10
-1.689
 11
-1.691
 20
-13.248
 21
-13.268
  0
LINE
  8
0
 10
-1.691
 11
-1.697
 20
-13.268
 21
-13.286
  0
LINE
  8
0
 10
-1.697
 11
-1.706
 20
-13.286
 21
-13.304
  0
LINE
  8
0
 10
-1.706
 11
-1.718
 20
-13.304
 21
-13.319
  0
LINE
  8
0
 10
-1.718
 11
-1.733
 20
-13.319
 21
-13.331
  0
LINE
  8
0
 10
-1.733
 11
-1.751
 20
-13.331
 21
-13.34
  0
LINE
  8
0
 10
-1.751
 11
-1.769
 20
-13.34
 21
-13.346
  0
LINE
  8
0
 10
-1.769
 11
-1.789
 20
-13.346
 21
-13.348
  0
LINE
  8
0
 10
-1.789
 11
-10.334
 20
-13.348
 21
-13.348
  0
LINE
  8
0
 10
-10.334
 11
-10.387
 20
-13.348
 21
-13.89
  0
LINE
  8
0
 10
-10.387
 11
-10.583
 20
-13.89
 21
-14.537
  0
LINE
  8
0
 10
-10.583
 11
-10.902
 20
-14.537
 21
-15.132
  0
LINE
  8
0
 10
-10.902
 11
-11.33
 20
-15.132
 21
-15.655
  0
LINE
  8
0
 10
-11.33
 11
-11.853
 20
-15.655
 21
-16.083
  0
LINE
  8
0
 10
-11.853
 11
-12.448
 20
-16.083
 21
-16.402
  0
LINE
  8
0
 10
-12.448
 11
-13.095
 20
-16.402
 21
-16.598
  0
LINE
  8
0
 10
-13.095
 11
-13.767
 20
-16.598
 21
-16.664
  0
LINE
  8
0
 10
-13.767
 11
-14.439
 20
-16.664
 21
-16.598
  0
LINE
  8
0
 10
-14.439
 11
-15.086
 20
-16.598
 21
-16.402
  0
LINE
  8
0
 10
-15.086
 11
-15.681
 20
-16.402
 21
-16.083
  0
LINE
  8
0
 10
-15.681
 11
-16.204
 20
-16.083
 21
-15.655
  0
LINE
  8
0
 10
-16.204
 11
-16.632
 20
-15.655
 21
-15.132
  0
LINE
  8
0
 10
-16.632
 11
-16.951
 20
-15.132
 21
-14.537
  0
LINE
  8
0
 10
-16.951
 11
-17.147
 20
-14.537
 21
-13.89
  0
LINE
  8
0
 10
-17.147
 11
-17.213
 20
-13.89
 21
-13.218
  0
LINE
  8
0
 10
-17.013
 11
-16.951
 20
-13.218
 21
-12.585
  0
LINE
  8
0
 10
-16.951
 11
-16.766
 20
-12.585
 21
-11.976
  0
LINE
  8
0
 10
-16.766
 11
-16.466
 20
-11.976
 21
-11.415
  0
LINE
  8
0
 10
-16.466
 11
-16.062
 20
-11.415
 21
-10.923
  0
LINE
  8
0
 10
-16.062
 11
-15.57
 20
-10.923
 21
-10.519
  0
LINE
  8
0
 10
-15.57
 11
-15.009
 20
-10.519
 21
-10.219
  0
LINE
  8
0
 10
-15.009
 11
-14.4
 20
-10.219
 21
-10.034
  0
LINE
  8
0
 10
-14.4
 11
-13.767
 20
-10.034
 21
-9.972
  0
LINE
  8
0
 10
-13.767
 11
-13.134
 20
-9.972
 21
-10.034
  0
LINE
  8
0
 10
-13.134
 11
-12.525
 20
-10.034
 21
-10.219
  0
LINE
  8
0
 10
-12.525
 11
-11.964
 20
-10.219
 21
-10.519
  0
LINE
  8
0
 10
-11.964
 11
-11.472
 20
-10.519
 21
-10.923
  0
LINE
  8
0
 10
-11.472
 11
-11.068
 20
-10.923
 21
-11.415
  0
LINE
  8
0
 10
-11.068
 11
-10.768
 20
-11.415
 21
-11.976
  0
LINE
  8
0
 10
-10.768
 11
-10.583
 20
-11.976
 21
-12.585
  0
LINE
  8
0
 10
-10.583
 11
-10.528
 20
-12.585
 21
-13.148
  0
LINE
  8
0
 10
-10.528
 11
-13.759
 20
-13.148
 21
-13.148
  0
LINE
  8
0
 10
-13.759
 11
-13.779
 20
-13.148
 21
-13.15
  0
LINE
  8
0
 10
-13.779
 11
-13.797
 20
-13.15
 21
-13.156
  0
LINE
  8
0
 10
-13.797
 11
-13.815
 20
-13.156
 21
-13.165
  0
LINE
  8
0
 10
-13.815
 11
-13.83
 20
-13.165
 21
-13.177
  0
LINE
  8
0
 10
-13.83
 11
-13.842
 20
-13.177
 21
-13.192
  0
LINE
  8
0
 10
-13.842
 11
-13.851
 20
-13.192
 21
-13.21
  0
LINE
  8
0
 10
-13.851
 11
-13.857
 20
-13.21
 21
-13.228
  0
LINE
  8
0
 10
-13.857
 11
-13.859
 20
-13.228
 21
-13.248
  0
LINE
  8
0
 10
-13.859
 11
-13.857
 20
-13.248
 21
-13.268
  0
LINE
  8
0
 10
-13.857
 11
-13.851
 20
-13.268
 21
-13.286
  0
LINE
  8
0
 10
-13.851
 11
-13.842
 20
-13.286
 21
-13.304
  0
LINE
  8
0
 10
-13.842
 11
-13.83
 20
-13.304
 21
-13.319
  0
LINE
  8
0
 10
-13.83
 11
-13.815
 20
-13.319
 21
-13.331
  0
LINE
  8
0
 10
-13.815
 11
-13.797
 20
-13.331
 21
-13.34
  0
LINE
  8
0
 10
-13.797
 11
-13.779
 20
-13.34
 21
-13.346
  0
LINE
  8
0
 10
-13.779
 11
-13.759
 20
-13.346
 21
-13.348
  0
LINE
  8
0
 10
-13.759
 11
-10.534
 20
-13.348
 21
-13.348
  0
LINE
  8
0
 10
-10.534
 11
-10.583
 20
-13.348
 21
-13.851
  0
LINE
  8
0
 10
-10.583
 11
-10.768
 20
-13.851
 21
-14.46
  0
LINE
  8
0
 10
-10.768
 11
-11.068
 20
-14.46
 21
-15.021
  0
LINE
  8
0
 10
-11.068
 11
-11.472
 20
-15.021
 21
-15.513
  0
LINE
  8
0
 10
-11.472
 11
-11.964
 20
-15.513
 21
-15.917
  0
LINE
  8
0
 10
-11.964
 11
-12.525
 20
-15.917
 21
-16.217
  0
LINE
  8
0
 10
-12.525
 11
-13.134
 20
-16.217
 21
-16.402
  0
LINE
  8
0
 10
-13.134
 11
-13.767
 20
-16.402
 21
-16.464
  0
LINE
  8
0
 10
-13.767
 11
-14.4
 20
-16.464
 21
-16.402
  0
LINE
  8
0
 10
-14.4
 11
-15.009
 20
-16.402
 21
-16.217
  0
LINE
  8
0
 10
-15.009
 11
-15.57
 20
-16.217
 21
-15.917
  0
LINE
  8
0
 10
-15.57
 11
-16.062
 20
-15.917
 21
-15.513
  0
LINE
  8
0
 10
-16.062
 11
-16.466
 20
-15.513
 21
-15.021
  0
LINE
  8
0
 10
-16.466
 11
-16.766
 20
-15.021
 21
-14.46
  0
LINE
  8
0
 10
-16.766
 11
-16.951
 20
-14.46
 21
-13.851
  0
LINE
  8
0
 10
-16.951
 11
-17.013
 20
-13.851
 21
-13.218
  0
LINE
  8
0
 10
-4.803
 11
-1.637
 20
-1.278
 21
-1.278
  0
LINE
  8
0
 10
-1.637
 11
-1.617
 20
-1.278
 21
-1.276
  0
LINE
  8
0
 10
-1.617
 11
-1.599
 20
-1.276
 21
-1.27
  0
LINE
  8
0
 10
-1.599
 11
-1.581
 20
-1.27
 21
-1.261
  0
LINE
  8
0
 10
-1.581
 11
-1.566
 20
-1.261
 21
-1.249
  0
LINE
  8
0
 10
-1.566
 11
-1.554
 20
-1.249
 21
-1.234
  0
LINE
  8
0
 10
-1.554
 11
-1.545
 20
-1.234
 21
-1.216
  0
LINE
  8
0
 10
-1.545
 11
-1.539
 20
-1.216
 21
-1.198
  0
LINE
  8
0
 10
-1.539
 11
-1.537
 20
-1.198
 21
-1.178
  0
LINE
  8
0
 10
-1.537
 11
-1.539
 20
-1.178
 21
-1.158
  0
LINE
  8
0
 10
-1.539
 11
-1.545
 20
-1.158
 21
-1.14
  0
LINE
  8
0
 10
-1.545
 11
-1.554
 20
-1.14
 21
-1.122
  0
LINE
  8
0
 10
-1.554
 11
-1.566
 20
-1.122
 21
-1.107
  0
LINE
  8
0
 10
-1.566
 11
-1.581
 20
-1.107
 21
-1.095
  0
LINE
  8
0
 10
-1.581
 11
-1.599
 20
-1.095
 21
-1.086
  0
LINE
  8
0
 10
-1.599
 11
-1.617
 20
-1.086
 21
-1.08
  0
LINE
  8
0
 10
-1.617
 11
-1.637
 20
-1.08
 21
-1.078
  0
LINE
  8
0
 10
-1.637
 11
-4.803
 20
-1.078
 21
-1.078
  0
LINE
  8
0
 10
-4.803
 11
-4.751
 20
-1.078
 21
-0.545
  0
LINE
  8
0
 10
-4.751
 11
-4.566
 20
-0.545
 21
0.064
  0
LINE
  8
0
 10
-4.566
 11
-4.266
 20
0.064
 21
0.625
  0
LINE
  8
0
 10
-4.266
 11
-3.862
 20
0.625
 21
1.117
  0
LINE
  8
0
 10
-3.862
 11
-3.37
 20
1.117
 21
1.521
  0
LINE
  8
0
 10
-3.37
 11
-2.809
 20
1.521
 21
1.821
  0
LINE
  8
0
 10
-2.809
 11
-2.2
 20
1.821
 21
2.006
  0
LINE
  8
0
 10
-2.2
 11
-1.567
 20
2.006
 21
2.068
  0
LINE
  8
0
 10
-1.567
 11
-0.934
 20
2.068
 21
2.006
  0
LINE
  8
0
 10
-0.934
 11
-0.325
 20
2.006
 21
1.821
  0
LINE
  8
0
 10
-0.325
 11
0.236
 20
1.821
 21
1.521
  0
LINE
  8
0
 10
0.236
 11
0.728
 20
1.521
 21
1.117
  0
LINE
  8
0
 10
0.728
 11
1.132
 20
1.117
 21
0.625
  0
LINE
  8
0
 10
1.132
 11
1.432
 20
0.625
 21
0.064
  0
LINE
  8
0
 10
1.432
 11
1.617
 20
0.064
 21
-0.545
  0
LINE
  8
0
 10
1.617
 11
1.679
 20
-0.545
 21
-1.178
  0
LINE
  8
0
 10
1.679
 11
1.617
 20
-1.178
 21
-1.811
  0
LINE
  8
0
 10
1.617
 11
1.432
 20
-1.811
 21
-2.42
  0
LINE
  8
0
 10
1.432
 11
1.132
 20
-2.42
 21
-2.981
  0
LINE
  8
0
 10
1.132
 11
0.728
 20
-2.981
 21
-3.473
  0
LINE
  8
0
 10
0.728
 11
0.236
 20
-3.473
 21
-3.877
  0
LINE
  8
0
 10
0.236
 11
-0.325
 20
-3.877
 21
-4.177
  0
LINE
  8
0
 10
-0.325
 11
-0.934
 20
-4.177
 21
-4.362
  0
LINE
  8
0
 10
-0.934
 11
-1.567
 20
-4.362
 21
-4.424
  0
LINE
  8
0
 10
-1.567
 11
-2.2
 20
-4.424
 21
-4.362
  0
LINE
  8
0
 10
-2.2
 11
-2.809
 20
-4.362
 21
-4.177
  0
LINE
  8
0
 10
-2.809
 11
-3.37
 20
-4.177
 21
-3.877
  0
LINE
  8
0
 10
-3.37
 11
-3.862
 20
-3.877
 21
-3.473
  0
LINE
  8
0
 10
-3.862
 11
-4.266
 20
-3.473
 21
-2.981
  0
LINE
  8
0
 10
-4.266
 11
-4.566
 20
-2.981
 21
-2.42
  0
LINE
  8
0
 10
-4.566
 11
-4.751
 20
-2.42
 21
-1.811
  0
LINE
  8
0
 10
-4.751
 11
-4.803
 20
-1.811
 21
-1.278
  0
LINE
  8
0
 10
4.043
 11
4.043
 20
-13.178
 21
-1.106
  0
LINE
  8
0
 10
4.043
 11
4.045
 20
-1.106
 21
-1.086
  0
LINE
  8
0
 10
4.045
 11
4.051
 20
-1.086
 21
-1.068
  0
LINE
  8
0
 10
4.051
 11
4.06
 20
-1.068
 21
-1.05
  0
LINE
  8
0
 10
4.06
 11
4.072
 20
-1.05
 21
-1.035
  0
LINE
  8
0
 10
4.072
 11
4.087
 20
-1.035
 21
-1.023
  0
LINE
  8
0
 10
4.087
 11
4.105
 20
-1.023
 21
-1.014
  0
LINE
  8
0
 10
4.105
 11
4.123
 20
-1.014
 21
-1.008
  0
LINE
  8
0
 10
4.123
 11
4.143
 20
-1.008
 21
-1.006
  0
LINE
  8
0
 10
4.143
 11
16.163
 20
-1.006
 21
-1.006
  0
LINE
  8
0
 10
16.163
 11
16.183
 20
-1.006
 21
-1.008
  0
LINE
  8
0
 10
16.183
 11
16.201
 20
-1.008
 21
-1.014
  0
LINE
  8
0
 10
16.201
 11
16.219
 20
-1.014
 21
-1.023
  0
LINE
  8
0
 10
16.219
 11
16.234
 20
-1.023
 21
-1.035
  0
LINE
  8
0
 10
16.234
 11
16.246
 20
-1.035
 21
-1.05
  0
LINE
  8
0
 10
16.246
 11
16.255
 20
-1.05
 21
-1.068
  0
LINE
  8
0
 10
16.255
 11
16.261
 20
-1.068
 21
-1.086
  0
LINE
  8
0
 10
16.261
 11
16.263
 20
-1.086
 21
-1.106
  0
LINE
  8
0
 10
16.263
 11
16.263
 20
-1.106
 21
-7.116
  0
LINE
  8
0
 10
16.263
 11
16.261
 20
-7.116
 21
-7.136
  0
LINE
  8
0
 10
16.261
 11
16.255
 20
-7.136
 21
-7.154
  0
LINE
  8
0
 10
16.255
 11
16.246
 20
-7.154
 21
-7.172
  0
LINE
  8
0
 10
16.246
 11
16.234
 20
-7.172
 21
-7.187
  0
LINE
  8
0
 10
16.234
 11
16.219
 20
-7.187
 21
-7.199
  0
LINE
  8
0
 10
16.219
 11
16.201
 20
-7.199
 21
-7.208
  0
LINE
  8
0
 10
16.201
 11
16.183
 20
-7.208
 21
-7.214
  0
LINE
  8
0
 10
16.183
 11
16.163
 20
-7.214
 21
-7.216
  0
LINE
  8
0
 10
16.163
 11
4.243
 20
-7.216
 21
-7.216
  0
LINE
  8
0
 10
4.243
 11
4.243
 20
-7.216
 21
-13.078
  0
LINE
  8
0
 10
4.243
 11
12.797
 20
-13.078
 21
-13.078
  0
LINE
  8
0
 10
12.797
 11
12.853
 20
-13.078
 21
-12.506
  0
LINE
  8
0
 10
12.853
 11
13.049
 20
-12.506
 21
-11.859
  0
LINE
  8
0
 10
13.049
 11
13.368
 20
-11.859
 21
-11.264
  0
LINE
  8
0
 10
13.368
 11
13.796
 20
-11.264
 21
-10.741
  0
LINE
  8
0
 10
13.796
 11
14.319
 20
-10.741
 21
-10.313
  0
LINE
  8
0
 10
14.319
 11
14.914
 20
-10.313
 21
-9.994
  0
LINE
  8
0
 10
14.914
 11
15.561
 20
-9.994
 21
-9.798
  0
LINE
  8
0
 10
15.561
 11
16.233
 20
-9.798
 21
-9.732
  0
LINE
  8
0
 10
16.233
 11
16.905
 20
-9.732
 21
-9.798
  0
LINE
  8
0
 10
16.905
 11
17.552
 20
-9.798
 21
-9.994
  0
LINE
  8
0
 10
17.552
 11
18.147
 20
-9.994
 21
-10.313
  0
LINE
  8
0
 10
18.147
 11
18.67
 20
-10.313
 21
-10.741
  0
LINE
  8
0
 10
18.67
 11
19.098
 20
-10.741
 21
-11.264
  0
LINE
  8
0
 10
19.098
 11
19.417
 20
-11.264
 21
-11.859
  0
LINE
  8
0
 10
19.417
 11
19.613
 20
-11.859
 21
-12.506
  0
LINE
  8
0
 10
19.613
 11
19.679
 20
-12.506
 21
-13.178
  0
LINE
  8
0
 10
19.679
 11
19.613
 20
-13.178
 21
-13.85
  0
LINE
  8
0
 10
19.613
 11
19.417
 20
-13.85
 21
-14.497
  0
LINE
  8
0
 10
19.417
 11
19.098
 20
-14.497
 21
-15.092
  0
LINE
  8
0
 10
19.098
 11
18.67
 20
-15.092
 21
-15.615
  0
LINE
  8
0
 10
18.67
 11
18.147
 20
-15.615
 21
-16.043
  0
LINE
  8
0
 10
18.147
 11
17.552
 20
-16.043
 21
-16.362
  0
LINE
  8
0
 10
17.552
 11
16.905
 20
-16.362
 21
-16.558
  0
LINE
  8
0
 10
16.905
 11
16.233
 20
-16.558
 21
-16.624
  0
LINE
  8
0
 10
16.233
 11
15.561
 20
-16.624
 21
-16.558
  0
LINE
  8
0
 10
15.561
 11
14.914
 20
-16.558
 21
-16.362
  0
LINE
  8
0
 10
14.914
 11
14.319
 20
-16.362
 21
-16.043
  0
LINE
  8
0
 10
14.319
 11
13.796
 20
-16.043
 21
-15.615
  0
LINE
  8
0
 10
13.796
 11
13.368
 20
-15.615
 21
-15.092
  0
LINE
  8
0
 10
13.368
 11
13.049
 20
-15.092
 21
-14.497
  0
LINE
  8
0
 10
13.049
 11
12.853
 20
-14.497
 21
-13.85
  0
LINE
  8
0
 10
12.853
 11
12.797
 20
-13.85
 21
-13.278
  0
LINE
  8
0
 10
12.797
 11
4.143
 20
-13.278
 21
-13.278
  0
LINE
  8
0
 10
4.143
 11
4.123
 20
-13.278
 21
-13.276
  0
LINE
  8
0
 10
4.123
 11
4.105
 20
-13.276
 21
-13.27
  0
LINE
  8
0
 10
4.105
 11
4.087
 20
-13.27
 21
-13.261
  0
LINE
  8
0
 10
4.087
 11
4.072
 20
-13.261
 21
-13.249
  0
LINE
  8
0
 10
4.072
 11
4.06
 20
-13.249
 21
-13.234
  0
LINE
  8
0
 10
4.06
 11
4.051
 20
-13.234
 21
-13.216
  0
LINE
  8
0
 10
4.051
 11
4.045
 20
-13.216
 21
-13.198
  0
LINE
  8
0
 10
4.045
 11
4.043
 20
-13.198
 21
-13.178
  0
LINE
  8
0
 10
4.243
 11
4.243
 20
-7.016
 21
-1.206
  0
LINE
  8
0
 10
4.243
 11
16.063
 20
-1.206
 21
-1.206
  0
LINE
  8
0
 10
16.063
 11
16.063
 20
-1.206
 21
-7.016
  0
LINE
  8
0
 10
16.063
 11
4.243
 20
-7.016
 21
-7.016
  0
LINE
  8
0
 10
12.997
 11
16.163
 20
-13.278
 21
-13.278
  0
LINE
  8
0
 10
16.163
 11
16.183
 20
-13.278
 21
-13.276
  0
LINE
  8
0
 10
16.183
 11
16.201
 20
-13.276
 21
-13.27
  0
LINE
  8
0
 10
16.201
 11
16.219
 20
-13.27
 21
-13.261
  0
LINE
  8
0
 10
16.219
 11
16.234
 20
-13.261
 21
-13.249
  0
LINE
  8
0
 10
16.234
 11
16.246
 20
-13.249
 21
-13.234
  0
LINE
  8
0
 10
16.246
 11
16.255
 20
-13.234
 21
-13.216
  0
LINE
  8
0
 10
16.255
 11
16.261
 20
-13.216
 21
-13.198
  0
LINE
  8
0
 10
16.261
 11
16.263
 20
-13.198
 21
-13.178
  0
LINE
  8
0
 10
16.263
 11
16.261
 20
-13.178
 21
-13.158
  0
LINE
  8
0
 10
16.261
 11
16.255
 20
-13.158
 21
-13.14
  0
LINE
  8
0
 10
16.255
 11
16.246
 20
-13.14
 21
-13.122
  0
LINE
  8
0
 10
16.246
 11
16.234
 20
-13.122
 21
-13.107
  0
LINE
  8
0
 10
16.234
 11
16.219
 20
-13.107
 21
-13.095
  0
LINE
  8
0
 10
16.219
 11
16.201
 20
-13.095
 21
-13.086
  0
LINE
  8
0
 10
16.201
 11
16.183
 20
-13.086
 21
-13.08
  0
LINE
  8
0
 10
16.183
 11
16.163
 20
-13.08
 21
-13.078
  0
LINE
  8
0
 10
16.163
 11
12.997
 20
-13.078
 21
-13.078
  0
LINE
  8
0
 10
12.997
 11
13.049
 20
-13.078
 21
-12.545
  0
LINE
  8
0
 10
13.049
 11
13.234
 20
-12.545
 21
-11.936
  0
LINE
  8
0
 10
13.234
 11
13.534
 20
-11.936
 21
-11.375
  0
LINE
  8
0
 10
13.534
 11
13.938
 20
-11.375
 21
-10.883
  0
LINE
  8
0
 10
13.938
 11
14.43
 20
-10.883
 21
-10.479
  0
LINE
  8
0
 10
14.43
 11
14.991
 20
-10.479
 21
-10.179
  0
LINE
  8
0
 10
14.991
 11
15.6
 20
-10.179
 21
-9.994
  0
LINE
  8
0
 10
15.6
 11
16.233
 20
-9.994
 21
-9.932
  0
LINE
  8
0
 10
16.233
 11
16.866
 20
-9.932
 21
-9.994
  0
LINE
  8
0
 10
16.866
 11
17.475
 20
-9.994
 21
-10.179
  0
LINE
  8
0
 10
17.475
 11
18.036
 20
-10.179
 21
-10.479
  0
LINE
  8
0
 10
18.036
 11
18.528
 20
-10.479
 21
-10.883
  0
LINE
  8
0
 10
18.528
 11
18.932
 20
-10.883
 21
-11.375
  0
LINE
  8
0
 10
18.932
 11
19.232
 20
-11.375
 21
-11.936
  0
LINE
  8
0
 10
19.232
 11
19.417
 20
-11.936
 21
-12.545
  0
LINE
  8
0
 10
19.417
 11
19.479
 20
-12.545
 21
-13.178
  0
LINE
  8
0
 10
19.479
 11
19.417
 20
-13.178
 21
-13.811
  0
LINE
  8
0
 10
19.417
 11
19.232
 20
-13.811
 21
-14.42
  0
LINE
  8
0
 10
19.232
 11
18.932
 20
-14.42
 21
-14.981
  0
LINE
  8
0
 10
18.932
 11
18.528
 20
-14.981
 21
-15.473
  0
LINE
  8
0
 10
18.528
 11
18.036
 20
-15.473
 21
-15.877
  0
LINE
  8
0
 10
18.036
 11
17.475
 20
-15.877
 21
-16.177
  0
LINE
  8
0
 10
17.475
 11
16.866
 20
-16.177
 21
-16.362
  0
LINE
  8
0
 10
16.866
 11
16.233
 20
-16.362
 21
-16.424
  0
LINE
  8
0
 10
16.233
 11
15.6
 20
-16.424
 21
-16.362
  0
LINE
  8
0
 10
15.6
 11
14.991
 20
-16.362
 21
-16.177
  0
LINE
  8
0
 10
14.991
 11
14.43
 20
-16.177
 21
-15.877
  0
LINE
  8
0
 10
14.43
 11
13.938
 20
-15.877
 21
-15.473
  0
LINE
  8
0
 10
13.938
 11
13.534
 20
-15.473
 21
-14.981
  0
LINE
  8
0
 10
13.534
 11
13.234
 20
-14.981
 21
-14.42
  0
LINE
  8
0
 10
13.234
 11
13.049
 20
-14.42
 21
-13.811
  0
LINE
  8
0
 10
13.049
 11
12.997
 20
-13.811
 21
-13.278
  0
LINE
  8
0
 10
18.987
 11
19.049
 20
11.022
 21
11.655
  0
LINE
  8
0
 10
19.049
 11
19.234
 20
11.655
 21
12.264
  0
LINE
  8
0
 10
19.234
 11
19.534
 20
12.264
 21
12.825
  0
LINE
  8
0
 10
19.534
 11
19.938
 20
12.825
 21
13.317
  0
LINE
  8
0
 10
19.938
 11
20.43
 20
13.317
 21
13.721
  0
LINE
  8
0
 10
20.43
 11
20.991
 20
13.721
 21
14.021
  0
LINE
  8
0
 10
20.991
 11
21.6
 20
14.021
 21
14.206
  0
LINE
  8
0
 10
21.6
 11
22.233
 20
14.206
 21
14.268
  0
LINE
  8
0
 10
22.233
 11
22.866
 20
14.268
 21
14.206
  0
LINE
  8
0
 10
22.866
 11
23.475
 20
14.206
 21
14.021
  0
LINE
  8
0
 10
23.475
 11
24.036
 20
14.021
 21
13.721
  0
LINE
  8
0
 10
24.036
 11
24.528
 20
13.721
 21
13.317
  0
LINE
  8
0
 10
24.528
 11
24.932
 20
13.317
 21
12.825
  0
LINE
  8
0
 10
24.932
 11
25.232
 20
12.825
 21
12.264
  0
LINE
  8
0
 10
25.232
 11
25.417
 20
12.264
 21
11.655
  0
LINE
  8
0
 10
25.417
 11
25.479
 20
11.655
 21
11.022
  0
LINE
  8
0
 10
25.479
 11
25.417
 20
11.022
 21
10.389
  0
LINE
  8
0
 10
25.417
 11
25.232
 20
10.389
 21
9.78
  0
LINE
  8
0
 10
25.232
 11
24.932
 20
9.78
 21
9.219
  0
LINE
  8
0
 10
24.932
 11
24.528
 20
9.219
 21
8.727
  0
LINE
  8
0
 10
24.528
 11
24.036
 20
8.727
 21
8.323
  0
LINE
  8
0
 10
24.036
 11
23.475
 20
8.323
 21
8.023
  0
LINE
  8
0
 10
23.475
 11
22.866
 20
8.023
 21
7.838
  0
LINE
  8
0
 10
22.866
 11
22.363
 20
7.838
 21
7.789
  0
LINE
  8
0
 10
22.363
 11
22.363
 20
7.789
 21
11.022
  0
LINE
  8
0
 10
22.363
 11
22.361
 20
11.022
 21
11.042
  0
LINE
  8
0
 10
22.361
 11
22.355
 20
11.042
 21
11.06
  0
LINE
  8
0
 10
22.355
 11
22.346
 20
11.06
 21
11.078
  0
LINE
  8
0
 10
22.346
 11
22.334
 20
11.078
 21
11.093
  0
LINE
  8
0
 10
22.334
 11
22.319
 20
11.093
 21
11.105
  0
LINE
  8
0
 10
22.319
 11
22.301
 20
11.105
 21
11.114
  0
LINE
  8
0
 10
22.301
 11
22.283
 20
11.114
 21
11.12
  0
LINE
  8
0
 10
22.283
 11
22.263
 20
11.12
 21
11.122
  0
LINE
  8
0
 10
22.263
 11
22.243
 20
11.122
 21
11.12
  0
LINE
  8
0
 10
22.243
 11
22.225
 20
11.12
 21
11.114
  0
LINE
  8
0
 10
22.225
 11
22.207
 20
11.114
 21
11.105
  0
LINE
  8
0
 10
22.207
 11
22.192
 20
11.105
 21
11.093
  0
LINE
  8
0
 10
22.192
 11
22.18
 20
11.093
 21
11.078
  0
LINE
  8
0
 10
22.18
 11
22.171
 20
11.078
 21
11.06
  0
LINE
  8
0
 10
22.171
 11
22.165
 20
11.06
 21
11.042
  0
LINE
  8
0
 10
22.165
 11
22.163
 20
11.042
 21
11.022
  0
LINE
  8
0
 10
22.163
 11
22.163
 20
11.022
 21
7.783
  0
LINE
  8
0
 10
22.163
 11
21.6
 20
7.783
 21
7.838
  0
LINE
  8
0
 10
21.6
 11
20.991
 20
7.838
 21
8.023
  0
LINE
  8
0
 10
20.991
 11
20.43
 20
8.023
 21
8.323
  0
LINE
  8
0
 10
20.43
 11
19.938
 20
8.323
 21
8.727
  0
LINE
  8
0
 10
19.938
 11
19.534
 20
8.727
 21
9.219
  0
LINE
  8
0
 10
19.534
 11
19.234
 20
9.219
 21
9.78
  0
LINE
  8
0
 10
19.234
 11
19.049
 20
9.78
 21
10.389
  0
LINE
  8
0
 10
19.049
 11
18.987
 20
10.389
 21
11.022
  0
LINE
  8
0
 10
18.787
 11
18.853
 20
11.022
 21
11.694
  0
LINE
  8
0
 10
18.853
 11
19.049
 20
11.694
 21
12.341
  0
LINE
  8
0
 10
19.049
 11
19.368
 20
12.341
 21
12.936
  0
LINE
  8
0
 10
19.368
 11
19.796
 20
12.936
 21
13.459
  0
LINE
  8
0
 10
19.796
 11
20.319
 20
13.459
 21
13.887
  0
LINE
  8
0
 10
20.319
 11
20.914
 20
13.887
 21
14.206
  0
LINE
  8
0
 10
20.914
 11
21.561
 20
14.206
 21
14.402
  0
LINE
  8
0
 10
21.561
 11
22.233
 20
14.402
 21
14.468
  0
LINE
  8
0
 10
22.233
 11
22.905
 20
14.468
 21
14.402
  0
LINE
  8
0
 10
22.905
 11
23.552
 20
14.402
 21
14.206
  0
LINE
  8
0
 10
23.552
 11
24.147
 20
14.206
 21
13.887
  0
LINE
  8
0
 10
24.147
 11
24.67
 20
13.887
 21
13.459
  0
LINE
  8
0
 10
24.67
 11
25.098
 20
13.459
 21
12.936
  0
LINE
  8
0
 10
25.098
 11
25.417
 20
12.936
 21
12.341
  0
LINE
  8
0
 10
25.417
 11
25.613
 20
12.341
 21
11.694
  0
LINE
  8
0
 10
25.613
 11
25.679
 20
11.694
 21
11.022
  0
LINE
  8
0
 10
25.679
 11
25.613
 20
11.022
 21
10.35
  0
LINE
  8
0
 10
25.613
 11
25.417
 20
10.35
 21
9.703
  0
LINE
  8
0
 10
25.417
 11
25.098
 20
9.703
 21
9.108
  0
LINE
  8
0
 10
25.098
 11
24.67
 20
9.108
 21
8.585
  0
LINE
  8
0
 10
24.67
 11
24.147
 20
8.585
 21
8.157
  0
LINE
  8
0
 10
24.147
 11
23.552
 20
8.157
 21
7.838
  0
LINE
  8
0
 10
23.552
 11
22.905
 20
7.838
 21
7.642
  0
LINE
  8
0
 10
22.905
 11
22.363
 20
7.642
 21
7.589
  0
LINE
  8
0
 10
22.363
 11
22.363
 20
7.589
 21
-0.95
  0
LINE
  8
0
 10
22.363
 11
34.133
 20
-0.95
 21
-0.95
  0
LINE
  8
0
 10
34.133
 11
34.133
 20
-0.95
 21
7.586
  0
LINE
  8
0
 10
34.133
 11
33.561
 20
7.586
 21
7.642
  0
LINE
  8
0
 10
33.561
 11
32.914
 20
7.642
 21
7.838
  0
LINE
  8
0
 10
32.914
 11
32.319
 20
7.838
 21
8.157
  0
LINE
  8
0
 10
32.319
 11
31.796
 20
8.157
 21
8.585
  0
LINE
  8
0
 10
31.796
 11
31.368
 20
8.585
 21
9.108
  0
LINE
  8
0
 10
31.368
 11
31.049
 20
9.108
 21
9.703
  0
LINE
  8
0
 10
31.049
 11
30.853
 20
9.703
 21
10.35
  0
LINE
  8
0
 10
30.853
 11
30.787
 20
10.35
 21
11.022
  0
LINE
  8
0
 10
30.787
 11
30.853
 20
11.022
 21
11.694
  0
LINE
  8
0
 10
30.853
 11
31.049
 20
11.694
 21
12.341
  0
LINE
  8
0
 10
31.049
 11
31.368
 20
12.341
 21
12.936
  0
LINE
  8
0
 10
31.368
 11
31.796
 20
12.936
 21
13.459
  0
LINE
  8
0
 10
31.796
 11
32.319
 20
13.459
 21
13.887
  0
LINE
  8
0
 10
32.319
 11
32.914
 20
13.887
 21
14.206
  0
LINE
  8
0
 10
32.914
 11
33.561
 20
14.206
 21
14.402
  0
LINE
  8
0
 10
33.561
 11
34.233
 20
14.402
 21
14.468
  0
LINE
  8
0
 10
34.233
 11
34.905
 20
14.468
 21
14.402
  0
LINE
  8
0
 10
34.905
 11
35.552
 20
14.402
 21
14.206
  0
LINE
  8
0
 10
35.552
 11
36.147
 20
14.206
 21
13.887
  0
LINE
  8
0
 10
36.147
 11
36.67
 20
13.887
 21
13.459
  0
LINE
  8
0
 10
36.67
 11
37.098
 20
13.459
 21
12.936
  0
LINE
  8
0
 10
37.098
 11
37.417
 20
12.936
 21
12.341
  0
LINE
  8
0
 10
37.417
 11
37.613
 20
12.341
 21
11.694
  0
LINE
  8
0
 10
37.613
 11
37.679
 20
11.694
 21
11.022
  0
LINE
  8
0
 10
37.679
 11
37.613
 20
11.022
 21
10.35
  0
LINE
  8
0
 10
37.613
 11
37.417
 20
10.35
 21
9.703
  0
LINE
  8
0
 10
37.417
 11
37.098
 20
9.703
 21
9.108
  0
LINE
  8
0
 10
37.098
 11
36.67
 20
9.108
 21
8.585
  0
LINE
  8
0
 10
36.67
 11
36.147
 20
8.585
 21
8.157
  0
LINE
  8
0
 10
36.147
 11
35.552
 20
8.157
 21
7.838
  0
LINE
  8
0
 10
35.552
 11
34.905
 20
7.838
 21
7.642
  0
LINE
  8
0
 10
34.905
 11
34.333
 20
7.642
 21
7.586
  0
LINE
  8
0
 10
34.333
 11
34.333
 20
7.586
 21
-9.742
  0
LINE
  8
0
 10
34.333
 11
34.905
 20
-9.742
 21
-9.798
  0
LINE
  8
0
 10
34.905
 11
35.552
 20
-9.798
 21
-9.994
  0
LINE
  8
0
 10
35.552
 11
36.147
 20
-9.994
 21
-10.313
  0
LINE
  8
0
 10
36.147
 11
36.67
 20
-10.313
 21
-10.741
  0
LINE
  8
0
 10
36.67
 11
37.098
 20
-10.741
 21
-11.264
  0
LINE
  8
0
 10
37.098
 11
37.417
 20
-11.264
 21
-11.859
  0
LINE
  8
0
 10
37.417
 11
37.613
 20
-11.859
 21
-12.506
  0
LINE
  8
0
 10
37.613
 11
37.679
 20
-12.506
 21
-13.178
  0
LINE
  8
0
 10
37.679
 11
37.613
 20
-13.178
 21
-13.85
  0
LINE
  8
0
 10
37.613
 11
37.417
 20
-13.85
 21
-14.497
  0
LINE
  8
0
 10
37.417
 11
37.098
 20
-14.497
 21
-15.092
  0
LINE
  8
0
 10
37.098
 11
36.67
 20
-15.092
 21
-15.615
  0
LINE
  8
0
 10
36.67
 11
36.147
 20
-15.615
 21
-16.043
  0
LINE
  8
0
 10
36.147
 11
35.552
 20
-16.043
 21
-16.362
  0
LINE
  8
0
 10
35.552
 11
34.905
 20
-16.362
 21
-16.558
  0
LINE
  8
0
 10
34.905
 11
34.233
 20
-16.558
 21
-16.624
  0
LINE
  8
0
 10
34.233
 11
33.561
 20
-16.624
 21
-16.558
  0
LINE
  8
0
 10
33.561
 11
32.914
 20
-16.558
 21
-16.362
  0
LINE
  8
0
 10
32.914
 11
32.319
 20
-16.362
 21
-16.043
  0
LINE
  8
0
 10
32.319
 11
31.796
 20
-16.043
 21
-15.615
  0
LINE
  8
0
 10
31.796
 11
31.368
 20
-15.615
 21
-15.092
  0
LINE
  8
0
 10
31.368
 11
31.049
 20
-15.092
 21
-14.497
  0
LINE
  8
0
 10
31.049
 11
30.853
 20
-14.497
 21
-13.85
  0
LINE
  8
0
 10
30.853
 11
30.787
 20
-13.85
 21
-13.178
  0
LINE
  8
0
 10
30.787
 11
30.853
 20
-13.178
 21
-12.506
  0
LINE
  8
0
 10
30.853
 11
31.049
 20
-12.506
 21
-11.859
  0
LINE
  8
0
 10
31.049
 11
31.368
 20
-11.859
 21
-11.264
  0
LINE
  8
0
 10
31.368
 11
31.796
 20
-11.264
 21
-10.741
  0
LINE
  8
0
 10
31.796
 11
32.319
 20
-10.741
 21
-10.313
  0
LINE
  8
0
 10
32.319
 11
32.914
 20
-10.313
 21
-9.994
  0
LINE
  8
0
 10
32.914
 11
33.561
 20
-9.994
 21
-9.798
  0
LINE
  8
0
 10
33.561
 11
34.133
 20
-9.798
 21
-9.742
  0
LINE
  8
0
 10
34.133
 11
34.133
 20
-9.742
 21
-1.15
  0
LINE
  8
0
 10
34.133
 11
22.263
 20
-1.15
 21
-1.15
  0
LINE
  8
0
 10
22.263
 11
22.243
 20
-1.15
 21
-1.148
  0
LINE
  8
0
 10
22.243
 11
22.225
 20
-1.148
 21
-1.142
  0
LINE
  8
0
 10
22.225
 11
22.207
 20
-1.142
 21
-1.133
  0
LINE
  8
0
 10
22.207
 11
22.192
 20
-1.133
 21
-1.121
  0
LINE
  8
0
 10
22.192
 11
22.18
 20
-1.121
 21
-1.106
  0
LINE
  8
0
 10
22.18
 11
22.171
 20
-1.106
 21
-1.088
  0
LINE
  8
0
 10
22.171
 11
22.165
 20
-1.088
 21
-1.07
  0
LINE
  8
0
 10
22.165
 11
22.163
 20
-1.07
 21
-1.05
  0
LINE
  8
0
 10
22.163
 11
22.163
 20
-1.05
 21
7.583
  0
LINE
  8
0
 10
22.163
 11
21.561
 20
7.583
 21
7.642
  0
LINE
  8
0
 10
21.561
 11
20.914
 20
7.642
 21
7.838
  0
LINE
  8
0
 10
20.914
 11
20.319
 20
7.838
 21
8.157
  0
LINE
  8
0
 10
20.319
 11
19.796
 20
8.157
 21
8.585
  0
LINE
  8
0
 10
19.796
 11
19.368
 20
8.585
 21
9.108
  0
LINE
  8
0
 10
19.368
 11
19.049
 20
9.108
 21
9.703
  0
LINE
  8
0
 10
19.049
 11
18.853
 20
9.703
 21
10.35
  0
LINE
  8
0
 10
18.853
 11
18.787
 20
10.35
 21
11.022
  0
LINE
  8
0
 10
30.987
 11
31.049
 20
-13.178
 21
-12.545
  0
LINE
  8
0
 10
31.049
 11
31.234
 20
-12.545
 21
-11.936
  0
LINE
  8
0
 10
31.234
 11
31.534
 20
-11.936
 21
-11.375
  0
LINE
  8
0
 10
31.534
 11
31.938
 20
-11.375
 21
-10.883
  0
LINE
  8
0
 10
31.938
 11
32.43
 20
-10.883
 21
-10.479
  0
LINE
  8
0
 10
32.43
 11
32.991
 20
-10.479
 21
-10.179
  0
LINE
  8
0
 10
32.991
 11
33.6
 20
-10.179
 21
-9.994
  0
LINE
  8
0
 10
33.6
 11
34.133
 20
-9.994
 21
-9.942
  0
LINE
  8
0
 10
34.133
 11
34.133
 20
-9.942
 21
-13.172
  0
LINE
  8
0
 10
34.133
 11
34.135
 20
-13.172
 21
-13.192
  0
LINE
  8
0
 10
34.135
 11
34.141
 20
-13.192
 21
-13.21
  0
LINE
  8
0
 10
34.141
 11
34.15
 20
-13.21
 21
-13.228
  0
LINE
  8
0
 10
34.15
 11
34.162
 20
-13.228
 21
-13.243
  0
LINE
  8
0
 10
34.162
 11
34.177
 20
-13.243
 21
-13.255
  0
LINE
  8
0
 10
34.177
 11
34.195
 20
-13.255
 21
-13.264
  0
LINE
  8
0
 10
34.195
 11
34.213
 20
-13.264
 21
-13.27
  0
LINE
  8
0
 10
34.213
 11
34.233
 20
-13.27
 21
-13.272
  0
LINE
  8
0
 10
34.233
 11
34.253
 20
-13.272
 21
-13.27
  0
LINE
  8
0
 10
34.253
 11
34.271
 20
-13.27
 21
-13.264
  0
LINE
  8
0
 10
34.271
 11
34.289
 20
-13.264
 21
-13.255
  0
LINE
  8
0
 10
34.289
 11
34.304
 20
-13.255
 21
-13.243
  0
LINE
  8
0
 10
34.304
 11
34.316
 20
-13.243
 21
-13.228
  0
LINE
  8
0
 10
34.316
 11
34.325
 20
-13.228
 21
-13.21
  0
LINE
  8
0
 10
34.325
 11
34.331
 20
-13.21
 21
-13.192
  0
LINE
  8
0
 10
34.331
 11
34.333
 20
-13.192
 21
-13.172
  0
LINE
  8
0
 10
34.333
 11
34.333
 20
-13.172
 21
-9.942
  0
LINE
  8
0
 10
34.333
 11
34.866
 20
-9.942
 21
-9.994
  0
LINE
  8
0
 10
34.866
 11
35.475
 20
-9.994
 21
-10.179
  0
LINE
  8
0
 10
35.475
 11
36.036
 20
-10.179
 21
-10.479
  0
LINE
  8
0
 10
36.036
 11
36.528
 20
-10.479
 21
-10.883
  0
LINE
  8
0
 10
36.528
 11
36.932
 20
-10.883
 21
-11.375
  0
LINE
  8
0
 10
36.932
 11
37.232
 20
-11.375
 21
-11.936
  0
LINE
  8
0
 10
37.232
 11
37.417
 20
-11.936
 21
-12.545
  0
LINE
  8
0
 10
37.417
 11
37.479
 20
-12.545
 21
-13.178
  0
LINE
  8
0
 10
37.479
 11
37.417
 20
-13.178
 21
-13.811
  0
LINE
  8
0
 10
37.417
 11
37.232
 20
-13.811
 21
-14.42
  0
LINE
  8
0
 10
37.232
 11
36.932
 20
-14.42
 21
-14.981
  0
LINE
  8
0
 10
36.932
 11
36.528
 20
-14.981
 21
-15.473
  0
LINE
  8
0
 10
36.528
 11
36.036
 20
-15.473
 21
-15.877
  0
LINE
  8
0
 10
36.036
 11
35.475
 20
-15.877
 21
-16.177
  0
LINE
  8
0
 10
35.475
 11
34.866
 20
-16.177
 21
-16.362
  0
LINE
  8
0
 10
34.866
 11
34.233
 20
-16.362
 21
-16.424
  0
LINE
  8
0
 10
34.233
 11
33.6
 20
-16.424
 21
-16.362
  0
LINE
  8
0
 10
33.6
 11
32.991
 20
-16.362
 21
-16.177
  0
LINE
  8
0
 10
32.991
 11
32.43
 20
-16.177
 21
-15.877
  0
LINE
  8
0
 10
32.43
 11
31.938
 20
-15.877
 21
-15.473
  0
LINE
  8
0
 10
31.938
 11
31.534
 20
-15.473
 21
-14.981
  0
LINE
  8
0
 10
31.534
 11
31.234
 20
-14.981
 21
-14.42
  0
LINE
  8
0
 10
31.234
 11
31.049
 20
-14.42
 21
-13.811
  0
LINE
  8
0
 10
31.049
 11
30.987
 20
-13.811
 21
-13.178
  0
LINE
  8
0
 10
30.987
 11
31.049
 20
11.022
 21
11.655
  0
LINE
  8
0
 10
31.049
 11
31.234
 20
11.655
 21
12.264
  0
LINE
  8
0
 10
31.234
 11
31.534
 20
12.264
 21
12.825
  0
LINE
  8
0
 10
31.534
 11
31.938
 20
12.825
 21
13.317
  0
LINE
  8
0
 10
31.938
 11
32.43
 20
13.317
 21
13.721
  0
LINE
  8
0
 10
32.43
 11
32.991
 20
13.721
 21
14.021
  0
LINE
  8
0
 10
32.991
 11
33.6
 20
14.021
 21
14.206
  0
LINE
  8
0
 10
33.6
 11
34.233
 20
14.206
 21
14.268
  0
LINE
  8
0
 10
34.233
 11
34.866
 20
14.268
 21
14.206
  0
LINE
  8
0
 10
34.866
 11
35.475
 20
14.206
 21
14.021
  0
LINE
  8
0
 10
35.475
 11
36.036
 20
14.021
 21
13.721
  0
LINE
  8
0
 10
36.036
 11
36.528
 20
13.721
 21
13.317
  0
LINE
  8
0
 10
36.528
 11
36.932
 20
13.317
 21
12.825
  0
LINE
  8
0
 10
36.932
 11
37.232
 20
12.825
 21
12.264
  0
LINE
  8
0
 10
37.232
 11
37.417
 20
12.264
 21
11.655
  0
LINE
  8
0
 10
37.417
 11
37.479
 20
11.655
 21
11.022
  0
LINE
  8
0
 10
37.479
 11
37.417
 20
11.022
 21
10.389
  0
LINE
  8
0
 10
37.417
 11
37.232
 20
10.389
 21
9.78
  0
LINE
  8
0
 10
37.232
 11
36.932
 20
9.78
 21
9.219
  0
LINE
  8
0
 10
36.932
 11
36.528
 20
9.219
 21
8.727
  0
LINE
  8
0
 10
36.528
 11
36.036
 20
8.727
 21
8.323
  0
LINE
  8
0
 10
36.036
 11
35.475
 20
8.323
 21
8.023
  0
LINE
  8
0
 10
35.475
 11
34.866
 20
8.023
 21
7.838
  0
LINE
  8
0
 10
34.866
 11
34.333
 20
7.838
 21
7.786
  0
LINE
  8
0
 10
34.333
 11
34.333
 20
7.786
 21
10.97
  0
LINE
  8
0
 10
34.333
 11
34.331
 20
10.97
 21
10.99
  0
LINE
  8
0
 10
34.331
 11
34.325
 20
10.99
 21
11.008
  0
LINE
  8
0
 10
34.325
 11
34.316
 20
11.008
 21
11.026
  0
LINE
  8
0
 10
34.316
 11
34.304
 20
11.026
 21
11.041
  0
LINE
  8
0
 10
34.304
 11
34.289
 20
11.041
 21
11.053
  0
LINE
  8
0
 10
34.289
 11
34.271
 20
11.053
 21
11.062
  0
LINE
  8
0
 10
34.271
 11
34.253
 20
11.062
 21
11.068
  0
LINE
  8
0
 10
34.253
 11
34.233
 20
11.068
 21
11.07
  0
LINE
  8
0
 10
34.233
 11
34.213
 20
11.07
 21
11.068
  0
LINE
  8
0
 10
34.213
 11
34.195
 20
11.068
 21
11.062
  0
LINE
  8
0
 10
34.195
 11
34.177
 20
11.062
 21
11.053
  0
LINE
  8
0
 10
34.177
 11
34.162
 20
11.053
 21
11.041
  0
LINE
  8
0
 10
34.162
 11
34.15
 20
11.041
 21
11.026
  0
LINE
  8
0
 10
34.15
 11
34.141
 20
11.026
 21
11.008
  0
LINE
  8
0
 10
34.141
 11
34.135
 20
11.008
 21
10.99
  0
LINE
  8
0
 10
34.135
 11
34.133
 20
10.99
 21
10.97
  0
LINE
  8
0
 10
34.133
 11
34.133
 20
10.97
 21
7.786
  0
LINE
  8
0
 10
34.133
 11
33.6
 20
7.786
 21
7.838
  0
LINE
  8
0
 10
33.6
 11
32.991
 20
7.838
 21
8.023
  0
LINE
  8
0
 10
32.991
 11
32.43
 20
8.023
 21
8.323
  0
LINE
  8
0
 10
32.43
 11
31.938
 20
8.323
 21
8.727
  0
LINE
  8
0
 10
31.938
 11
31.534
 20
8.727
 21
9.219
  0
LINE
  8
0
 10
31.534
 11
31.234
 20
9.219
 21
9.78
  0
LINE
  8
0
 10
31.234
 11
31.049
 20
9.78
 21
10.389
  0
LINE
  8
0
 10
31.049
 11
30.987
 20
10.389
 21
11.022
  0
LINE
  8
0
 10
40.063
 11
40.065
 20
11.022
 21
11.042
  0
LINE
  8
0
 10
40.065
 11
40.071
 20
11.042
 21
11.06
  0
LINE
  8
0
 10
40.071
 11
40.08
 20
11.06
 21
11.078
  0
LINE
  8
0
 10
40.08
 11
40.092
 20
11.078
 21
11.093
  0
LINE
  8
0
 10
40.092
 11
40.107
 20
11.093
 21
11.105
  0
LINE
  8
0
 10
40.107
 11
40.125
 20
11.105
 21
11.114
  0
LINE
  8
0
 10
40.125
 11
40.143
 20
11.114
 21
11.12
  0
LINE
  8
0
 10
40.143
 11
40.163
 20
11.12
 21
11.122
  0
LINE
  8
0
 10
40.163
 11
52.437
 20
11.122
 21
11.122
  0
LINE
  8
0
 10
52.437
 11
52.457
 20
11.122
 21
11.12
  0
LINE
  8
0
 10
52.457
 11
52.475
 20
11.12
 21
11.114
  0
LINE
  8
0
 10
52.475
 11
52.493
 20
11.114
 21
11.105
  0
LINE
  8
0
 10
52.493
 11
52.508
 20
11.105
 21
11.093
  0
LINE
  8
0
 10
52.508
 11
52.52
 20
11.093
 21
11.078
  0
LINE
  8
0
 10
52.52
 11
52.529
 20
11.078
 21
11.06
  0
LINE
  8
0
 10
52.529
 11
52.535
 20
11.06
 21
11.042
  0
LINE
  8
0
 10
52.535
 11
52.537
 20
11.042
 21
11.022
  0
LINE
  8
0
 10
52.537
 11
52.537
 20
11.022
 21
-13.222
  0
LINE
  8
0
 10
52.537
 11
52.535
 20
-13.222
 21
-13.242
  0
LINE
  8
0
 10
52.535
 11
52.529
 20
-13.242
 21
-13.26
  0
LINE
  8
0
 10
52.529
 11
52.52
 20
-13.26
 21
-13.278
  0
LINE
  8
0
 10
52.52
 11
52.508
 20
-13.278
 21
-13.293
  0
LINE
  8
0
 10
52.508
 11
52.493
 20
-13.293
 21
-13.305
  0
LINE
  8
0
 10
52.493
 11
52.475
 20
-13.305
 21
-13.314
  0
LINE
  8
0
 10
52.475
 11
52.457
 20
-13.314
 21
-13.32
  0
LINE
  8
0
 10
52.457
 11
52.437
 20
-13.32
 21
-13.322
  0
LINE
  8
0
 10
52.437
 11
40.215
 20
-13.322
 21
-13.722
  0
LINE
  8
0
 10
40.215
 11
40.195
 20
-13.722
 21
-13.72
  0
LINE
  8
0
 10
40.195
 11
40.177
 20
-13.72
 21
-13.714
  0
LINE
  8
0
 10
40.177
 11
40.159
 20
-13.714
 21
-13.705
  0
LINE
  8
0
 10
40.159
 11
40.144
 20
-13.705
 21
-13.693
  0
LINE
  8
0
 10
40.144
 11
40.132
 20
-13.693
 21
-13.678
  0
LINE
  8
0
 10
40.132
 11
40.123
 20
-13.678
 21
-13.66
  0
LINE
  8
0
 10
40.123
 11
40.117
 20
-13.66
 21
-13.642
  0
LINE
  8
0
 10
40.117
 11
40.115
 20
-13.642
 21
-13.622
  0
LINE
  8
0
 10
40.115
 11
40.063
 20
-13.622
 21
11.022
  0
LINE
  8
0
 10
40.263
 11
52.337
 20
10.922
 21
10.922
  0
LINE
  8
0
 10
52.337
 11
52.337
 20
10.922
 21
-1.078
  0
LINE
  8
0
 10
52.337
 11
40.437
 20
-1.078
 21
-1.078
  0
LINE
  8
0
 10
40.437
 11
40.417
 20
-1.078
 21
-1.08
  0
LINE
  8
0
 10
40.417
 11
40.399
 20
-1.08
 21
-1.086
  0
LINE
  8
0
 10
40.399
 11
40.381
 20
-1.086
 21
-1.095
  0
LINE
  8
0
 10
40.381
 11
40.366
 20
-1.095
 21
-1.107
  0
LINE
  8
0
 10
40.366
 11
40.354
 20
-1.107
 21
-1.122
  0
LINE
  8
0
 10
40.354
 11
40.345
 20
-1.122
 21
-1.14
  0
LINE
  8
0
 10
40.345
 11
40.339
 20
-1.14
 21
-1.158
  0
LINE
  8
0
 10
40.339
 11
40.337
 20
-1.158
 21
-1.178
  0
LINE
  8
0
 10
40.337
 11
40.339
 20
-1.178
 21
-1.198
  0
LINE
  8
0
 10
40.339
 11
40.345
 20
-1.198
 21
-1.216
  0
LINE
  8
0
 10
40.345
 11
40.354
 20
-1.216
 21
-1.234
  0
LINE
  8
0
 10
40.354
 11
40.366
 20
-1.234
 21
-1.249
  0
LINE
  8
0
 10
40.366
 11
40.381
 20
-1.249
 21
-1.261
  0
LINE
  8
0
 10
40.381
 11
40.399
 20
-1.261
 21
-1.27
  0
LINE
  8
0
 10
40.399
 11
40.417
 20
-1.27
 21
-1.276
  0
LINE
  8
0
 10
40.417
 11
40.437
 20
-1.276
 21
-1.278
  0
LINE
  8
0
 10
40.437
 11
52.337
 20
-1.278
 21
-1.278
  0
LINE
  8
0
 10
52.337
 11
52.337
 20
-1.278
 21
-13.125
  0
LINE
  8
0
 10
52.337
 11
40.315
 20
-13.125
 21
-13.519
  0
LINE
  8
0
 10
40.315
 11
40.263
 20
-13.519
 21
10.922
  0
ENDSEC
  0
SECTION
  2
OBJECTS
  0
DICTIONARY
  0
ENDSEC
  0
EOF
