  0
SECTION
  2
BLOCKS
  0
ENDSEC
  0
SECTION
  2
ENTITIES
  0
LINE
  8
0
 10
-79.97
 11
-79.87
 20
16.533
 21
17.541
  0
LINE
  8
0
 10
-79.87
 11
-79.576
 20
17.541
 21
18.511
  0
LINE
  8
0
 10
-79.576
 11
-79.098
 20
18.511
 21
19.405
  0
LINE
  8
0
 10
-79.098
 11
-78.456
 20
19.405
 21
20.188
  0
LINE
  8
0
 10
-78.456
 11
-77.672
 20
20.188
 21
20.831
  0
LINE
  8
0
 10
-77.672
 11
-76.779
 20
20.831
 21
21.309
  0
LINE
  8
0
 10
-76.779
 11
-75.809
 20
21.309
 21
21.603
  0
LINE
  8
0
 10
-75.809
 11
-74.8
 20
21.603
 21
21.702
  0
LINE
  8
0
 10
-74.8
 11
-73.792
 20
21.702
 21
21.603
  0
LINE
  8
0
 10
-73.792
 11
-72.822
 20
21.603
 21
21.309
  0
LINE
  8
0
 10
-72.822
 11
-71.929
 20
21.309
 21
20.831
  0
LINE
  8
0
 10
-71.929
 11
-71.145
 20
20.831
 21
20.188
  0
LINE
  8
0
 10
-71.145
 11
-70.503
 20
20.188
 21
19.405
  0
LINE
  8
0
 10
-70.503
 11
-70.025
 20
19.405
 21
18.511
  0
LINE
  8
0
 10
-70.025
 11
-69.731
 20
18.511
 21
17.541
  0
LINE
  8
0
 10
-69.731
 11
-69.631
 20
17.541
 21
16.533
  0
LINE
  8
0
 10
-69.631
 11
-69.731
 20
16.533
 21
15.525
  0
LINE
  8
0
 10
-69.731
 11
-70.025
 20
15.525
 21
14.555
  0
LINE
  8
0
 10
-70.025
 11
-70.503
 20
14.555
 21
13.661
  0
LINE
  8
0
 10
-70.503
 11
-71.145
 20
13.661
 21
12.878
  0
LINE
  8
0
 10
-71.145
 11
-71.929
 20
12.878
 21
12.235
  0
LINE
  8
0
 10
-71.929
 11
-72.822
 20
12.235
 21
11.757
  0
LINE
  8
0
 10
-72.822
 11
-73.256
 20
11.757
 21
11.626
  0
LINE
  8
0
 10
-73.256
 11
-73.256
 20
11.626
 21
-0.156
  0
LINE
  8
0
 10
-73.256
 11
-56.725
 20
-0.156
 21
-0.225
  0
LINE
  8
0
 10
-56.725
 11
-56.433
 20
-0.225
 21
-0.254
  0
LINE
  8
0
 10
-56.433
 11
-56.151
 20
-0.254
 21
-0.339
  0
LINE
  8
0
 10
-56.151
 11
-55.892
 20
-0.339
 21
-0.478
  0
LINE
  8
0
 10
-55.892
 11
-55.665
 20
-0.478
 21
-0.664
  0
LINE
  8
0
 10
-55.665
 11
-55.478
 20
-0.664
 21
-0.892
  0
LINE
  8
0
 10
-55.478
 11
-55.34
 20
-0.892
 21
-1.151
  0
LINE
  8
0
 10
-55.34
 11
-55.254
 20
-1.151
 21
-1.432
  0
LINE
  8
0
 10
-55.254
 11
-55.225
 20
-1.432
 21
-1.725
  0
LINE
  8
0
 10
-55.225
 11
-55.225
 20
-1.725
 21
-19.833
  0
LINE
  8
0
 10
-55.225
 11
-55.254
 20
-19.833
 21
-20.126
  0
LINE
  8
0
 10
-55.254
 11
-55.34
 20
-20.126
 21
-20.407
  0
LINE
  8
0
 10
-55.34
 11
-55.478
 20
-20.407
 21
-20.666
  0
LINE
  8
0
 10
-55.478
 11
-55.665
 20
-20.666
 21
-20.894
  0
LINE
  8
0
 10
-55.665
 11
-55.892
 20
-20.894
 21
-21.08
  0
LINE
  8
0
 10
-55.892
 11
-56.151
 20
-21.08
 21
-21.219
  0
LINE
  8
0
 10
-56.151
 11
-56.433
 20
-21.219
 21
-21.304
  0
LINE
  8
0
 10
-56.433
 11
-56.725
 20
-21.304
 21
-21.333
  0
LINE
  8
0
 10
-56.725
 11
-74.756
 20
-21.333
 21
-21.258
  0
LINE
  8
0
 10
-74.756
 11
-75.048
 20
-21.258
 21
-21.229
  0
LINE
  8
0
 10
-75.048
 11
-75.33
 20
-21.229
 21
-21.144
  0
LINE
  8
0
 10
-75.33
 11
-75.589
 20
-21.144
 21
-21.005
  0
LINE
  8
0
 10
-75.589
 11
-75.816
 20
-21.005
 21
-20.819
  0
LINE
  8
0
 10
-75.816
 11
-76.003
 20
-20.819
 21
-20.591
  0
LINE
  8
0
 10
-76.003
 11
-76.141
 20
-20.591
 21
-20.332
  0
LINE
  8
0
 10
-76.141
 11
-76.227
 20
-20.332
 21
-20.051
  0
LINE
  8
0
 10
-76.227
 11
-76.256
 20
-20.051
 21
-19.758
  0
LINE
  8
0
 10
-76.256
 11
-76.256
 20
-19.758
 21
11.599
  0
LINE
  8
0
 10
-76.256
 11
-76.779
 20
11.599
 21
11.757
  0
LINE
  8
0
 10
-76.779
 11
-77.672
 20
11.757
 21
12.235
  0
LINE
  8
0
 10
-77.672
 11
-78.456
 20
12.235
 21
12.878
  0
LINE
  8
0
 10
-78.456
 11
-79.098
 20
12.878
 21
13.661
  0
LINE
  8
0
 10
-79.098
 11
-79.576
 20
13.661
 21
14.555
  0
LINE
  8
0
 10
-79.576
 11
-79.87
 20
14.555
 21
15.525
  0
LINE
  8
0
 10
-79.87
 11
-79.97
 20
15.525
 21
16.533
  0
LINE
  8
0
 10
-77.454
 11
-77.403
 20
16.533
 21
17.051
  0
LINE
  8
0
 10
-77.403
 11
-77.252
 20
17.051
 21
17.548
  0
LINE
  8
0
 10
-77.252
 11
-77.007
 20
17.548
 21
18.007
  0
LINE
  8
0
 10
-77.007
 11
-76.677
 20
18.007
 21
18.409
  0
LINE
  8
0
 10
-76.677
 11
-76.275
 20
18.409
 21
18.739
  0
LINE
  8
0
 10
-76.275
 11
-75.816
 20
18.739
 21
18.985
  0
LINE
  8
0
 10
-75.816
 11
-75.318
 20
18.985
 21
19.136
  0
LINE
  8
0
 10
-75.318
 11
-74.8
 20
19.136
 21
19.187
  0
LINE
  8
0
 10
-74.8
 11
-74.283
 20
19.187
 21
19.136
  0
LINE
  8
0
 10
-74.283
 11
-73.785
 20
19.136
 21
18.985
  0
LINE
  8
0
 10
-73.785
 11
-73.326
 20
18.985
 21
18.739
  0
LINE
  8
0
 10
-73.326
 11
-72.924
 20
18.739
 21
18.409
  0
LINE
  8
0
 10
-72.924
 11
-72.594
 20
18.409
 21
18.007
  0
LINE
  8
0
 10
-72.594
 11
-72.349
 20
18.007
 21
17.548
  0
LINE
  8
0
 10
-72.349
 11
-72.198
 20
17.548
 21
17.051
  0
LINE
  8
0
 10
-72.198
 11
-72.147
 20
17.051
 21
16.533
  0
LINE
  8
0
 10
-72.147
 11
-72.198
 20
16.533
 21
16.015
  0
LINE
  8
0
 10
-72.198
 11
-72.349
 20
16.015
 21
15.518
  0
LINE
  8
0
 10
-72.349
 11
-72.594
 20
15.518
 21
15.059
  0
LINE
  8
0
 10
-72.594
 11
-72.924
 20
15.059
 21
14.657
  0
LINE
  8
0
 10
-72.924
 11
-73.256
 20
14.657
 21
14.385
  0
LINE
  8
0
 10
-73.256
 11
-73.256
 20
14.385
 21
16.533
  0
LINE
  8
0
 10
-73.256
 11
-73.284
 20
16.533
 21
16.826
  0
LINE
  8
0
 10
-73.284
 11
-73.37
 20
16.826
 21
17.107
  0
LINE
  8
0
 10
-73.37
 11
-73.508
 20
17.107
 21
17.366
  0
LINE
  8
0
 10
-73.508
 11
-73.695
 20
17.366
 21
17.594
  0
LINE
  8
0
 10
-73.695
 11
-73.922
 20
17.594
 21
17.78
  0
LINE
  8
0
 10
-73.922
 11
-74.181
 20
17.78
 21
17.919
  0
LINE
  8
0
 10
-74.181
 11
-74.463
 20
17.919
 21
18.004
  0
LINE
  8
0
 10
-74.463
 11
-74.756
 20
18.004
 21
18.033
  0
LINE
  8
0
 10
-74.756
 11
-75.048
 20
18.033
 21
18.004
  0
LINE
  8
0
 10
-75.048
 11
-75.33
 20
18.004
 21
17.919
  0
LINE
  8
0
 10
-75.33
 11
-75.589
 20
17.919
 21
17.78
  0
LINE
  8
0
 10
-75.589
 11
-75.816
 20
17.78
 21
17.594
  0
LINE
  8
0
 10
-75.816
 11
-76.003
 20
17.594
 21
17.366
  0
LINE
  8
0
 10
-76.003
 11
-76.141
 20
17.366
 21
17.107
  0
LINE
  8
0
 10
-76.141
 11
-76.227
 20
17.107
 21
16.826
  0
LINE
  8
0
 10
-76.227
 11
-76.256
 20
16.826
 21
16.533
  0
LINE
  8
0
 10
-76.256
 11
-76.256
 20
16.533
 21
14.316
  0
LINE
  8
0
 10
-76.256
 11
-76.275
 20
14.316
 21
14.327
  0
LINE
  8
0
 10
-76.275
 11
-76.677
 20
14.327
 21
14.657
  0
LINE
  8
0
 10
-76.677
 11
-77.007
 20
14.657
 21
15.059
  0
LINE
  8
0
 10
-77.007
 11
-77.252
 20
15.059
 21
15.518
  0
LINE
  8
0
 10
-77.252
 11
-77.403
 20
15.518
 21
16.015
  0
LINE
  8
0
 10
-77.403
 11
-77.454
 20
16.015
 21
16.533
  0
LINE
  8
0
 10
-73.256
 11
-73.256
 20
-18.264
 21
-3.156
  0
LINE
  8
0
 10
-73.256
 11
-58.225
 20
-3.156
 21
-3.219
  0
LINE
  8
0
 10
-58.225
 11
-58.225
 20
-3.219
 21
-18.327
  0
LINE
  8
0
 10
-58.225
 11
-73.256
 20
-18.327
 21
-18.264
  0
LINE
  8
0
 10
-52.67
 11
-52.57
 20
-1.767
 21
-0.759
  0
LINE
  8
0
 10
-52.57
 11
-52.276
 20
-0.759
 21
0.211
  0
LINE
  8
0
 10
-52.276
 11
-51.798
 20
0.211
 21
1.105
  0
LINE
  8
0
 10
-51.798
 11
-51.156
 20
1.105
 21
1.888
  0
LINE
  8
0
 10
-51.156
 11
-50.372
 20
1.888
 21
2.531
  0
LINE
  8
0
 10
-50.372
 11
-49.479
 20
2.531
 21
3.009
  0
LINE
  8
0
 10
-49.479
 11
-48.509
 20
3.009
 21
3.303
  0
LINE
  8
0
 10
-48.509
 11
-47.5
 20
3.303
 21
3.402
  0
LINE
  8
0
 10
-47.5
 11
-46.492
 20
3.402
 21
3.303
  0
LINE
  8
0
 10
-46.492
 11
-45.522
 20
3.303
 21
3.009
  0
LINE
  8
0
 10
-45.522
 11
-44.629
 20
3.009
 21
2.531
  0
LINE
  8
0
 10
-44.629
 11
-43.845
 20
2.531
 21
1.888
  0
LINE
  8
0
 10
-43.845
 11
-43.203
 20
1.888
 21
1.105
  0
LINE
  8
0
 10
-43.203
 11
-42.725
 20
1.105
 21
0.211
  0
LINE
  8
0
 10
-42.725
 11
-42.58
 20
0.211
 21
-0.267
  0
LINE
  8
0
 10
-42.58
 11
-29.575
 20
-0.267
 21
-0.267
  0
LINE
  8
0
 10
-29.575
 11
-29.283
 20
-0.267
 21
-0.296
  0
LINE
  8
0
 10
-29.283
 11
-29.001
 20
-0.296
 21
-0.381
  0
LINE
  8
0
 10
-29.001
 11
-28.742
 20
-0.381
 21
-0.52
  0
LINE
  8
0
 10
-28.742
 11
-28.515
 20
-0.52
 21
-0.706
  0
LINE
  8
0
 10
-28.515
 11
-28.328
 20
-0.706
 21
-0.934
  0
LINE
  8
0
 10
-28.328
 11
-28.19
 20
-0.934
 21
-1.193
  0
LINE
  8
0
 10
-28.19
 11
-28.104
 20
-1.193
 21
-1.474
  0
LINE
  8
0
 10
-28.104
 11
-28.075
 20
-1.474
 21
-1.767
  0
LINE
  8
0
 10
-28.075
 11
-28.112
 20
-1.767
 21
-10.455
  0
LINE
  8
0
 10
-28.112
 11
-28.101
 20
-10.455
 21
-10.489
  0
LINE
  8
0
 10
-28.101
 11
-28.072
 20
-10.489
 21
-10.782
  0
LINE
  8
0
 10
-28.072
 11
-28.101
 20
-10.782
 21
-11.075
  0
LINE
  8
0
 10
-28.101
 11
-28.115
 20
-11.075
 21
-11.118
  0
LINE
  8
0
 10
-28.115
 11
-28.151
 20
-11.118
 21
-19.722
  0
LINE
  8
0
 10
-28.151
 11
-28.179
 20
-19.722
 21
-20.015
  0
LINE
  8
0
 10
-28.179
 11
-28.265
 20
-20.015
 21
-20.296
  0
LINE
  8
0
 10
-28.265
 11
-28.403
 20
-20.296
 21
-20.555
  0
LINE
  8
0
 10
-28.403
 11
-28.59
 20
-20.555
 21
-20.783
  0
LINE
  8
0
 10
-28.59
 11
-28.817
 20
-20.783
 21
-20.969
  0
LINE
  8
0
 10
-28.817
 11
-29.076
 20
-20.969
 21
-21.108
  0
LINE
  8
0
 10
-29.076
 11
-29.358
 20
-21.108
 21
-21.193
  0
LINE
  8
0
 10
-29.358
 11
-29.651
 20
-21.193
 21
-21.222
  0
LINE
  8
0
 10
-29.651
 11
-47.68
 20
-21.222
 21
-21.222
  0
LINE
  8
0
 10
-47.68
 11
-47.973
 20
-21.222
 21
-21.193
  0
LINE
  8
0
 10
-47.973
 11
-48.255
 20
-21.193
 21
-21.108
  0
LINE
  8
0
 10
-48.255
 11
-48.514
 20
-21.108
 21
-20.969
  0
LINE
  8
0
 10
-48.514
 11
-48.741
 20
-20.969
 21
-20.783
  0
LINE
  8
0
 10
-48.741
 11
-48.928
 20
-20.783
 21
-20.555
  0
LINE
  8
0
 10
-48.928
 11
-49.066
 20
-20.555
 21
-20.296
  0
LINE
  8
0
 10
-49.066
 11
-49.152
 20
-20.296
 21
-20.015
  0
LINE
  8
0
 10
-49.152
 11
-49.18
 20
-20.015
 21
-19.722
  0
LINE
  8
0
 10
-49.18
 11
-49.256
 20
-19.722
 21
-10.782
  0
LINE
  8
0
 10
-49.256
 11
-49.227
 20
-10.782
 21
-10.489
  0
LINE
  8
0
 10
-49.227
 11
-49.141
 20
-10.489
 21
-10.208
  0
LINE
  8
0
 10
-49.141
 11
-49.003
 20
-10.208
 21
-9.949
  0
LINE
  8
0
 10
-49.003
 11
-48.816
 20
-9.949
 21
-9.721
  0
LINE
  8
0
 10
-48.816
 11
-48.589
 20
-9.721
 21
-9.535
  0
LINE
  8
0
 10
-48.589
 11
-48.33
 20
-9.535
 21
-9.396
  0
LINE
  8
0
 10
-48.33
 11
-48.048
 20
-9.396
 21
-9.311
  0
LINE
  8
0
 10
-48.048
 11
-47.756
 20
-9.311
 21
-9.282
  0
LINE
  8
0
 10
-47.756
 11
-31.107
 20
-9.282
 21
-9.282
  0
LINE
  8
0
 10
-31.107
 11
-31.082
 20
-9.282
 21
-3.267
  0
LINE
  8
0
 10
-31.082
 11
-42.58
 20
-3.267
 21
-3.267
  0
LINE
  8
0
 10
-42.58
 11
-42.725
 20
-3.267
 21
-3.745
  0
LINE
  8
0
 10
-42.725
 11
-43.203
 20
-3.745
 21
-4.639
  0
LINE
  8
0
 10
-43.203
 11
-43.845
 20
-4.639
 21
-5.422
  0
LINE
  8
0
 10
-43.845
 11
-44.629
 20
-5.422
 21
-6.065
  0
LINE
  8
0
 10
-44.629
 11
-45.522
 20
-6.065
 21
-6.543
  0
LINE
  8
0
 10
-45.522
 11
-46.492
 20
-6.543
 21
-6.837
  0
LINE
  8
0
 10
-46.492
 11
-47.5
 20
-6.837
 21
-6.936
  0
LINE
  8
0
 10
-47.5
 11
-48.509
 20
-6.936
 21
-6.837
  0
LINE
  8
0
 10
-48.509
 11
-49.479
 20
-6.837
 21
-6.543
  0
LINE
  8
0
 10
-49.479
 11
-50.372
 20
-6.543
 21
-6.065
  0
LINE
  8
0
 10
-50.372
 11
-51.156
 20
-6.065
 21
-5.422
  0
LINE
  8
0
 10
-51.156
 11
-51.798
 20
-5.422
 21
-4.639
  0
LINE
  8
0
 10
-51.798
 11
-52.276
 20
-4.639
 21
-3.745
  0
LINE
  8
0
 10
-52.276
 11
-52.57
 20
-3.745
 21
-2.775
  0
LINE
  8
0
 10
-52.57
 11
-52.67
 20
-2.775
 21
-1.767
  0
LINE
  8
0
 10
-50.154
 11
-50.103
 20
-1.767
 21
-1.249
  0
LINE
  8
0
 10
-50.103
 11
-49.952
 20
-1.249
 21
-0.752
  0
LINE
  8
0
 10
-49.952
 11
-49.707
 20
-0.752
 21
-0.293
  0
LINE
  8
0
 10
-49.707
 11
-49.377
 20
-0.293
 21
0.109
  0
LINE
  8
0
 10
-49.377
 11
-48.975
 20
0.109
 21
0.439
  0
LINE
  8
0
 10
-48.975
 11
-48.516
 20
0.439
 21
0.685
  0
LINE
  8
0
 10
-48.516
 11
-48.018
 20
0.685
 21
0.836
  0
LINE
  8
0
 10
-48.018
 11
-47.5
 20
0.836
 21
0.886
  0
LINE
  8
0
 10
-47.5
 11
-46.983
 20
0.886
 21
0.836
  0
LINE
  8
0
 10
-46.983
 11
-46.485
 20
0.836
 21
0.685
  0
LINE
  8
0
 10
-46.485
 11
-46.026
 20
0.685
 21
0.439
  0
LINE
  8
0
 10
-46.026
 11
-45.624
 20
0.439
 21
0.109
  0
LINE
  8
0
 10
-45.624
 11
-45.315
 20
0.109
 21
-0.267
  0
LINE
  8
0
 10
-45.315
 11
-47.455
 20
-0.267
 21
-0.267
  0
LINE
  8
0
 10
-47.455
 11
-47.748
 20
-0.267
 21
-0.296
  0
LINE
  8
0
 10
-47.748
 11
-48.03
 20
-0.296
 21
-0.381
  0
LINE
  8
0
 10
-48.03
 11
-48.289
 20
-0.381
 21
-0.52
  0
LINE
  8
0
 10
-48.289
 11
-48.516
 20
-0.52
 21
-0.706
  0
LINE
  8
0
 10
-48.516
 11
-48.703
 20
-0.706
 21
-0.934
  0
LINE
  8
0
 10
-48.703
 11
-48.841
 20
-0.934
 21
-1.193
  0
LINE
  8
0
 10
-48.841
 11
-48.927
 20
-1.193
 21
-1.474
  0
LINE
  8
0
 10
-48.927
 11
-48.955
 20
-1.474
 21
-1.767
  0
LINE
  8
0
 10
-48.955
 11
-48.927
 20
-1.767
 21
-2.06
  0
LINE
  8
0
 10
-48.927
 11
-48.841
 20
-2.06
 21
-2.341
  0
LINE
  8
0
 10
-48.841
 11
-48.703
 20
-2.341
 21
-2.6
  0
LINE
  8
0
 10
-48.703
 11
-48.516
 20
-2.6
 21
-2.828
  0
LINE
  8
0
 10
-48.516
 11
-48.289
 20
-2.828
 21
-3.014
  0
LINE
  8
0
 10
-48.289
 11
-48.03
 20
-3.014
 21
-3.153
  0
LINE
  8
0
 10
-48.03
 11
-47.748
 20
-3.153
 21
-3.238
  0
LINE
  8
0
 10
-47.748
 11
-47.455
 20
-3.238
 21
-3.267
  0
LINE
  8
0
 10
-47.455
 11
-45.315
 20
-3.267
 21
-3.267
  0
LINE
  8
0
 10
-45.315
 11
-45.624
 20
-3.267
 21
-3.643
  0
LINE
  8
0
 10
-45.624
 11
-46.026
 20
-3.643
 21
-3.973
  0
LINE
  8
0
 10
-46.026
 11
-46.485
 20
-3.973
 21
-4.219
  0
LINE
  8
0
 10
-46.485
 11
-46.983
 20
-4.219
 21
-4.37
  0
LINE
  8
0
 10
-46.983
 11
-47.5
 20
-4.37
 21
-4.42
  0
LINE
  8
0
 10
-47.5
 11
-48.018
 20
-4.42
 21
-4.37
  0
LINE
  8
0
 10
-48.018
 11
-48.516
 20
-4.37
 21
-4.219
  0
LINE
  8
0
 10
-48.516
 11
-48.975
 20
-4.219
 21
-3.973
  0
LINE
  8
0
 10
-48.975
 11
-49.377
 20
-3.973
 21
-3.643
  0
LINE
  8
0
 10
-49.377
 11
-49.707
 20
-3.643
 21
-3.241
  0
LINE
  8
0
 10
-49.707
 11
-49.952
 20
-3.241
 21
-2.782
  0
LINE
  8
0
 10
-49.952
 11
-50.103
 20
-2.782
 21
-2.285
  0
LINE
  8
0
 10
-50.103
 11
-50.154
 20
-2.285
 21
-1.767
  0
LINE
  8
0
 10
-46.243
 11
-31.119
 20
-12.282
 21
-12.282
  0
LINE
  8
0
 10
-31.119
 11
-31.144
 20
-12.282
 21
-18.222
  0
LINE
  8
0
 10
-31.144
 11
-46.193
 20
-18.222
 21
-18.222
  0
LINE
  8
0
 10
-46.193
 11
-46.243
 20
-18.222
 21
-12.282
  0
LINE
  8
0
 10
-25.82
 11
-25.72
 20
-19.827
 21
-18.819
  0
LINE
  8
0
 10
-25.72
 11
-25.426
 20
-18.819
 21
-17.849
  0
LINE
  8
0
 10
-25.426
 11
-24.948
 20
-17.849
 21
-16.955
  0
LINE
  8
0
 10
-24.948
 11
-24.306
 20
-16.955
 21
-16.172
  0
LINE
  8
0
 10
-24.306
 11
-23.522
 20
-16.172
 21
-15.529
  0
LINE
  8
0
 10
-23.522
 11
-22.629
 20
-15.529
 21
-15.051
  0
LINE
  8
0
 10
-22.629
 11
-21.659
 20
-15.051
 21
-14.757
  0
LINE
  8
0
 10
-21.659
 11
-20.651
 20
-14.757
 21
-14.658
  0
LINE
  8
0
 10
-20.651
 11
-19.642
 20
-14.658
 21
-14.757
  0
LINE
  8
0
 10
-19.642
 11
-18.672
 20
-14.757
 21
-15.051
  0
LINE
  8
0
 10
-18.672
 11
-17.779
 20
-15.051
 21
-15.529
  0
LINE
  8
0
 10
-17.779
 11
-16.995
 20
-15.529
 21
-16.172
  0
LINE
  8
0
 10
-16.995
 11
-16.353
 20
-16.172
 21
-16.955
  0
LINE
  8
0
 10
-16.353
 11
-15.875
 20
-16.955
 21
-17.849
  0
LINE
  8
0
 10
-15.875
 11
-15.716
 20
-17.849
 21
-18.372
  0
LINE
  8
0
 10
-15.716
 11
-4.183
 20
-18.372
 21
-18.372
  0
LINE
  8
0
 10
-4.183
 11
-4.183
 20
-18.372
 21
-12.357
  0
LINE
  8
0
 10
-4.183
 11
-20.639
 20
-12.357
 21
-12.357
  0
LINE
  8
0
 10
-20.639
 11
-20.931
 20
-12.357
 21
-12.328
  0
LINE
  8
0
 10
-20.931
 11
-21.213
 20
-12.328
 21
-12.243
  0
LINE
  8
0
 10
-21.213
 11
-21.472
 20
-12.243
 21
-12.104
  0
LINE
  8
0
 10
-21.472
 11
-21.699
 20
-12.104
 21
-11.918
  0
LINE
  8
0
 10
-21.699
 11
-21.886
 20
-11.918
 21
-11.69
  0
LINE
  8
0
 10
-21.886
 11
-22.024
 20
-11.69
 21
-11.431
  0
LINE
  8
0
 10
-22.024
 11
-22.11
 20
-11.431
 21
-11.15
  0
LINE
  8
0
 10
-22.11
 11
-22.139
 20
-11.15
 21
-10.857
  0
LINE
  8
0
 10
-22.139
 11
-22.139
 20
-10.857
 21
-1.767
  0
LINE
  8
0
 10
-22.139
 11
-22.11
 20
-1.767
 21
-1.474
  0
LINE
  8
0
 10
-22.11
 11
-22.024
 20
-1.474
 21
-1.193
  0
LINE
  8
0
 10
-22.024
 11
-21.886
 20
-1.193
 21
-0.934
  0
LINE
  8
0
 10
-21.886
 11
-21.699
 20
-0.934
 21
-0.706
  0
LINE
  8
0
 10
-21.699
 11
-21.472
 20
-0.706
 21
-0.52
  0
LINE
  8
0
 10
-21.472
 11
-21.213
 20
-0.52
 21
-0.381
  0
LINE
  8
0
 10
-21.213
 11
-20.931
 20
-0.381
 21
-0.296
  0
LINE
  8
0
 10
-20.931
 11
-20.639
 20
-0.296
 21
-0.267
  0
LINE
  8
0
 10
-20.639
 11
-7.271
 20
-0.267
 21
-0.267
  0
LINE
  8
0
 10
-7.271
 11
-7.126
 20
-0.267
 21
0.211
  0
LINE
  8
0
 10
-7.126
 11
-6.648
 20
0.211
 21
1.105
  0
LINE
  8
0
 10
-6.648
 11
-6.006
 20
1.105
 21
1.888
  0
LINE
  8
0
 10
-6.006
 11
-5.222
 20
1.888
 21
2.531
  0
LINE
  8
0
 10
-5.222
 11
-4.329
 20
2.531
 21
3.009
  0
LINE
  8
0
 10
-4.329
 11
-3.359
 20
3.009
 21
3.303
  0
LINE
  8
0
 10
-3.359
 11
-2.351
 20
3.303
 21
3.402
  0
LINE
  8
0
 10
-2.351
 11
-1.342
 20
3.402
 21
3.303
  0
LINE
  8
0
 10
-1.342
 11
-0.372
 20
3.303
 21
3.009
  0
LINE
  8
0
 10
-0.372
 11
0.521
 20
3.009
 21
2.531
  0
LINE
  8
0
 10
0.521
 11
1.305
 20
2.531
 21
1.888
  0
LINE
  8
0
 10
1.305
 11
1.947
 20
1.888
 21
1.105
  0
LINE
  8
0
 10
1.947
 11
2.425
 20
1.105
 21
0.211
  0
LINE
  8
0
 10
2.425
 11
2.719
 20
0.211
 21
-0.759
  0
LINE
  8
0
 10
2.719
 11
2.818
 20
-0.759
 21
-1.767
  0
LINE
  8
0
 10
2.818
 11
2.719
 20
-1.767
 21
-2.775
  0
LINE
  8
0
 10
2.719
 11
2.425
 20
-2.775
 21
-3.745
  0
LINE
  8
0
 10
2.425
 11
1.947
 20
-3.745
 21
-4.639
  0
LINE
  8
0
 10
1.947
 11
1.305
 20
-4.639
 21
-5.422
  0
LINE
  8
0
 10
1.305
 11
0.521
 20
-5.422
 21
-6.065
  0
LINE
  8
0
 10
0.521
 11
-0.372
 20
-6.065
 21
-6.543
  0
LINE
  8
0
 10
-0.372
 11
-1.342
 20
-6.543
 21
-6.837
  0
LINE
  8
0
 10
-1.342
 11
-2.351
 20
-6.837
 21
-6.936
  0
LINE
  8
0
 10
-2.351
 11
-3.359
 20
-6.936
 21
-6.837
  0
LINE
  8
0
 10
-3.359
 11
-4.329
 20
-6.837
 21
-6.543
  0
LINE
  8
0
 10
-4.329
 11
-5.222
 20
-6.543
 21
-6.065
  0
LINE
  8
0
 10
-5.222
 11
-6.006
 20
-6.065
 21
-5.422
  0
LINE
  8
0
 10
-6.006
 11
-6.648
 20
-5.422
 21
-4.639
  0
LINE
  8
0
 10
-6.648
 11
-7.126
 20
-4.639
 21
-3.745
  0
LINE
  8
0
 10
-7.126
 11
-7.271
 20
-3.745
 21
-3.267
  0
LINE
  8
0
 10
-7.271
 11
-19.139
 20
-3.267
 21
-3.267
  0
LINE
  8
0
 10
-19.139
 11
-19.139
 20
-3.267
 21
-9.357
  0
LINE
  8
0
 10
-19.139
 11
-2.683
 20
-9.357
 21
-9.357
  0
LINE
  8
0
 10
-2.683
 11
-2.391
 20
-9.357
 21
-9.386
  0
LINE
  8
0
 10
-2.391
 11
-2.109
 20
-9.386
 21
-9.471
  0
LINE
  8
0
 10
-2.109
 11
-1.85
 20
-9.471
 21
-9.61
  0
LINE
  8
0
 10
-1.85
 11
-1.623
 20
-9.61
 21
-9.796
  0
LINE
  8
0
 10
-1.623
 11
-1.436
 20
-9.796
 21
-10.024
  0
LINE
  8
0
 10
-1.436
 11
-1.298
 20
-10.024
 21
-10.283
  0
LINE
  8
0
 10
-1.298
 11
-1.212
 20
-10.283
 21
-10.564
  0
LINE
  8
0
 10
-1.212
 11
-1.183
 20
-10.564
 21
-10.857
  0
LINE
  8
0
 10
-1.183
 11
-1.183
 20
-10.857
 21
-19.872
  0
LINE
  8
0
 10
-1.183
 11
-1.212
 20
-19.872
 21
-20.165
  0
LINE
  8
0
 10
-1.212
 11
-1.298
 20
-20.165
 21
-20.446
  0
LINE
  8
0
 10
-1.298
 11
-1.436
 20
-20.446
 21
-20.705
  0
LINE
  8
0
 10
-1.436
 11
-1.623
 20
-20.705
 21
-20.933
  0
LINE
  8
0
 10
-1.623
 11
-1.85
 20
-20.933
 21
-21.119
  0
LINE
  8
0
 10
-1.85
 11
-2.109
 20
-21.119
 21
-21.258
  0
LINE
  8
0
 10
-2.109
 11
-2.391
 20
-21.258
 21
-21.343
  0
LINE
  8
0
 10
-2.391
 11
-2.683
 20
-21.343
 21
-21.372
  0
LINE
  8
0
 10
-2.683
 11
-15.744
 20
-21.372
 21
-21.372
  0
LINE
  8
0
 10
-15.744
 11
-15.875
 20
-21.372
 21
-21.805
  0
LINE
  8
0
 10
-15.875
 11
-16.353
 20
-21.805
 21
-22.699
  0
LINE
  8
0
 10
-16.353
 11
-16.995
 20
-22.699
 21
-23.482
  0
LINE
  8
0
 10
-16.995
 11
-17.779
 20
-23.482
 21
-24.125
  0
LINE
  8
0
 10
-17.779
 11
-18.672
 20
-24.125
 21
-24.603
  0
LINE
  8
0
 10
-18.672
 11
-19.642
 20
-24.603
 21
-24.897
  0
LINE
  8
0
 10
-19.642
 11
-20.651
 20
-24.897
 21
-24.996
  0
LINE
  8
0
 10
-20.651
 11
-21.659
 20
-24.996
 21
-24.897
  0
LINE
  8
0
 10
-21.659
 11
-22.629
 20
-24.897
 21
-24.603
  0
LINE
  8
0
 10
-22.629
 11
-23.522
 20
-24.603
 21
-24.125
  0
LINE
  8
0
 10
-23.522
 11
-24.306
 20
-24.125
 21
-23.482
  0
LINE
  8
0
 10
-24.306
 11
-24.948
 20
-23.482
 21
-22.699
  0
LINE
  8
0
 10
-24.948
 11
-25.426
 20
-22.699
 21
-21.805
  0
LINE
  8
0
 10
-25.426
 11
-25.72
 20
-21.805
 21
-20.835
  0
LINE
  8
0
 10
-25.72
 11
-25.82
 20
-20.835
 21
-19.827
  0
LINE
  8
0
 10
-23.304
 11
-23.253
 20
-19.827
 21
-19.309
  0
LINE
  8
0
 10
-23.253
 11
-23.102
 20
-19.309
 21
-18.812
  0
LINE
  8
0
 10
-23.102
 11
-22.857
 20
-18.812
 21
-18.353
  0
LINE
  8
0
 10
-22.857
 11
-22.527
 20
-18.353
 21
-17.951
  0
LINE
  8
0
 10
-22.527
 11
-22.125
 20
-17.951
 21
-17.621
  0
LINE
  8
0
 10
-22.125
 11
-21.666
 20
-17.621
 21
-17.375
  0
LINE
  8
0
 10
-21.666
 11
-21.168
 20
-17.375
 21
-17.224
  0
LINE
  8
0
 10
-21.168
 11
-20.651
 20
-17.224
 21
-17.173
  0
LINE
  8
0
 10
-20.651
 11
-20.133
 20
-17.173
 21
-17.224
  0
LINE
  8
0
 10
-20.133
 11
-19.635
 20
-17.224
 21
-17.375
  0
LINE
  8
0
 10
-19.635
 11
-19.176
 20
-17.375
 21
-17.621
  0
LINE
  8
0
 10
-19.176
 11
-18.774
 20
-17.621
 21
-17.951
  0
LINE
  8
0
 10
-18.774
 11
-18.444
 20
-17.951
 21
-18.353
  0
LINE
  8
0
 10
-18.444
 11
-18.434
 20
-18.353
 21
-18.372
  0
LINE
  8
0
 10
-18.434
 11
-20.639
 20
-18.372
 21
-18.372
  0
LINE
  8
0
 10
-20.639
 11
-20.931
 20
-18.372
 21
-18.401
  0
LINE
  8
0
 10
-20.931
 11
-21.213
 20
-18.401
 21
-18.486
  0
LINE
  8
0
 10
-21.213
 11
-21.472
 20
-18.486
 21
-18.625
  0
LINE
  8
0
 10
-21.472
 11
-21.699
 20
-18.625
 21
-18.811
  0
LINE
  8
0
 10
-21.699
 11
-21.886
 20
-18.811
 21
-19.039
  0
LINE
  8
0
 10
-21.886
 11
-22.024
 20
-19.039
 21
-19.298
  0
LINE
  8
0
 10
-22.024
 11
-22.11
 20
-19.298
 21
-19.579
  0
LINE
  8
0
 10
-22.11
 11
-22.139
 20
-19.579
 21
-19.872
  0
LINE
  8
0
 10
-22.139
 11
-22.11
 20
-19.872
 21
-20.165
  0
LINE
  8
0
 10
-22.11
 11
-22.024
 20
-20.165
 21
-20.446
  0
LINE
  8
0
 10
-22.024
 11
-21.886
 20
-20.446
 21
-20.705
  0
LINE
  8
0
 10
-21.886
 11
-21.699
 20
-20.705
 21
-20.933
  0
LINE
  8
0
 10
-21.699
 11
-21.472
 20
-20.933
 21
-21.119
  0
LINE
  8
0
 10
-21.472
 11
-21.213
 20
-21.119
 21
-21.258
  0
LINE
  8
0
 10
-21.213
 11
-20.931
 20
-21.258
 21
-21.343
  0
LINE
  8
0
 10
-20.931
 11
-20.639
 20
-21.343
 21
-21.372
  0
LINE
  8
0
 10
-20.639
 11
-18.502
 20
-21.372
 21
-21.372
  0
LINE
  8
0
 10
-18.502
 11
-18.774
 20
-21.372
 21
-21.703
  0
LINE
  8
0
 10
-18.774
 11
-19.176
 20
-21.703
 21
-22.033
  0
LINE
  8
0
 10
-19.176
 11
-19.635
 20
-22.033
 21
-22.279
  0
LINE
  8
0
 10
-19.635
 11
-20.133
 20
-22.279
 21
-22.43
  0
LINE
  8
0
 10
-20.133
 11
-20.651
 20
-22.43
 21
-22.48
  0
LINE
  8
0
 10
-20.651
 11
-21.168
 20
-22.48
 21
-22.43
  0
LINE
  8
0
 10
-21.168
 11
-21.666
 20
-22.43
 21
-22.279
  0
LINE
  8
0
 10
-21.666
 11
-22.125
 20
-22.279
 21
-22.033
  0
LINE
  8
0
 10
-22.125
 11
-22.527
 20
-22.033
 21
-21.703
  0
LINE
  8
0
 10
-22.527
 11
-22.857
 20
-21.703
 21
-21.301
  0
LINE
  8
0
 10
-22.857
 11
-23.102
 20
-21.301
 21
-20.842
  0
LINE
  8
0
 10
-23.102
 11
-23.253
 20
-20.842
 21
-20.345
  0
LINE
  8
0
 10
-23.253
 11
-23.304
 20
-20.345
 21
-19.827
  0
LINE
  8
0
 10
-4.536
 11
-2.456
 20
-3.267
 21
-3.267
  0
LINE
  8
0
 10
-2.456
 11
-2.163
 20
-3.267
 21
-3.238
  0
LINE
  8
0
 10
-2.163
 11
-1.881
 20
-3.238
 21
-3.153
  0
LINE
  8
0
 10
-1.881
 11
-1.622
 20
-3.153
 21
-3.014
  0
LINE
  8
0
 10
-1.622
 11
-1.395
 20
-3.014
 21
-2.828
  0
LINE
  8
0
 10
-1.395
 11
-1.208
 20
-2.828
 21
-2.6
  0
LINE
  8
0
 10
-1.208
 11
-1.07
 20
-2.6
 21
-2.341
  0
LINE
  8
0
 10
-1.07
 11
-0.984
 20
-2.341
 21
-2.06
  0
LINE
  8
0
 10
-0.984
 11
-0.956
 20
-2.06
 21
-1.767
  0
LINE
  8
0
 10
-0.956
 11
-0.984
 20
-1.767
 21
-1.474
  0
LINE
  8
0
 10
-0.984
 11
-1.07
 20
-1.474
 21
-1.193
  0
LINE
  8
0
 10
-1.07
 11
-1.208
 20
-1.193
 21
-0.934
  0
LINE
  8
0
 10
-1.208
 11
-1.395
 20
-0.934
 21
-0.706
  0
LINE
  8
0
 10
-1.395
 11
-1.622
 20
-0.706
 21
-0.52
  0
LINE
  8
0
 10
-1.622
 11
-1.881
 20
-0.52
 21
-0.381
  0
LINE
  8
0
 10
-1.881
 11
-2.163
 20
-0.381
 21
-0.296
  0
LINE
  8
0
 10
-2.163
 11
-2.456
 20
-0.296
 21
-0.267
  0
LINE
  8
0
 10
-2.456
 11
-4.536
 20
-0.267
 21
-0.267
  0
LINE
  8
0
 10
-4.536
 11
-4.227
 20
-0.267
 21
0.109
  0
LINE
  8
0
 10
-4.227
 11
-3.825
 20
0.109
 21
0.439
  0
LINE
  8
0
 10
-3.825
 11
-3.366
 20
0.439
 21
0.685
  0
LINE
  8
0
 10
-3.366
 11
-2.868
 20
0.685
 21
0.836
  0
LINE
  8
0
 10
-2.868
 11
-2.351
 20
0.836
 21
0.886
  0
LINE
  8
0
 10
-2.351
 11
-1.833
 20
0.886
 21
0.836
  0
LINE
  8
0
 10
-1.833
 11
-1.335
 20
0.836
 21
0.685
  0
LINE
  8
0
 10
-1.335
 11
-0.876
 20
0.685
 21
0.439
  0
LINE
  8
0
 10
-0.876
 11
-0.474
 20
0.439
 21
0.109
  0
LINE
  8
0
 10
-0.474
 11
-0.144
 20
0.109
 21
-0.293
  0
LINE
  8
0
 10
-0.144
 11
0.101
 20
-0.293
 21
-0.752
  0
LINE
  8
0
 10
0.101
 11
0.252
 20
-0.752
 21
-1.249
  0
LINE
  8
0
 10
0.252
 11
0.303
 20
-1.249
 21
-1.767
  0
LINE
  8
0
 10
0.303
 11
0.252
 20
-1.767
 21
-2.285
  0
LINE
  8
0
 10
0.252
 11
0.101
 20
-2.285
 21
-2.782
  0
LINE
  8
0
 10
0.101
 11
-0.144
 20
-2.782
 21
-3.241
  0
LINE
  8
0
 10
-0.144
 11
-0.474
 20
-3.241
 21
-3.643
  0
LINE
  8
0
 10
-0.474
 11
-0.876
 20
-3.643
 21
-3.973
  0
LINE
  8
0
 10
-0.876
 11
-1.335
 20
-3.973
 21
-4.219
  0
LINE
  8
0
 10
-1.335
 11
-1.833
 20
-4.219
 21
-4.37
  0
LINE
  8
0
 10
-1.833
 11
-2.351
 20
-4.37
 21
-4.42
  0
LINE
  8
0
 10
-2.351
 11
-2.868
 20
-4.42
 21
-4.37
  0
LINE
  8
0
 10
-2.868
 11
-3.366
 20
-4.37
 21
-4.219
  0
LINE
  8
0
 10
-3.366
 11
-3.825
 20
-4.219
 21
-3.973
  0
LINE
  8
0
 10
-3.825
 11
-4.227
 20
-3.973
 21
-3.643
  0
LINE
  8
0
 10
-4.227
 11
-4.536
 20
-3.643
 21
-3.267
  0
LINE
  8
0
 10
4.714
 11
4.714
 20
-19.767
 21
-1.659
  0
LINE
  8
0
 10
4.714
 11
4.743
 20
-1.659
 21
-1.366
  0
LINE
  8
0
 10
4.743
 11
4.829
 20
-1.366
 21
-1.085
  0
LINE
  8
0
 10
4.829
 11
4.967
 20
-1.085
 21
-0.826
  0
LINE
  8
0
 10
4.967
 11
5.154
 20
-0.826
 21
-0.598
  0
LINE
  8
0
 10
5.154
 11
5.381
 20
-0.598
 21
-0.412
  0
LINE
  8
0
 10
5.381
 11
5.64
 20
-0.412
 21
-0.273
  0
LINE
  8
0
 10
5.64
 11
5.922
 20
-0.273
 21
-0.188
  0
LINE
  8
0
 10
5.922
 11
6.214
 20
-0.188
 21
-0.159
  0
LINE
  8
0
 10
6.214
 11
24.244
 20
-0.159
 21
-0.159
  0
LINE
  8
0
 10
24.244
 11
24.537
 20
-0.159
 21
-0.188
  0
LINE
  8
0
 10
24.537
 11
24.819
 20
-0.188
 21
-0.273
  0
LINE
  8
0
 10
24.819
 11
25.078
 20
-0.273
 21
-0.412
  0
LINE
  8
0
 10
25.078
 11
25.305
 20
-0.412
 21
-0.598
  0
LINE
  8
0
 10
25.305
 11
25.492
 20
-0.598
 21
-0.826
  0
LINE
  8
0
 10
25.492
 11
25.63
 20
-0.826
 21
-1.085
  0
LINE
  8
0
 10
25.63
 11
25.716
 20
-1.085
 21
-1.366
  0
LINE
  8
0
 10
25.716
 11
25.744
 20
-1.366
 21
-1.659
  0
LINE
  8
0
 10
25.744
 11
25.744
 20
-1.659
 21
-10.674
  0
LINE
  8
0
 10
25.744
 11
25.716
 20
-10.674
 21
-10.967
  0
LINE
  8
0
 10
25.716
 11
25.63
 20
-10.967
 21
-11.248
  0
LINE
  8
0
 10
25.63
 11
25.492
 20
-11.248
 21
-11.507
  0
LINE
  8
0
 10
25.492
 11
25.305
 20
-11.507
 21
-11.735
  0
LINE
  8
0
 10
25.305
 11
25.078
 20
-11.735
 21
-11.921
  0
LINE
  8
0
 10
25.078
 11
24.819
 20
-11.921
 21
-12.06
  0
LINE
  8
0
 10
24.819
 11
24.537
 20
-12.06
 21
-12.145
  0
LINE
  8
0
 10
24.537
 11
24.244
 20
-12.145
 21
-12.174
  0
LINE
  8
0
 10
24.244
 11
7.714
 20
-12.174
 21
-12.174
  0
LINE
  8
0
 10
7.714
 11
7.714
 20
-12.174
 21
-18.267
  0
LINE
  8
0
 10
7.714
 11
19.429
 20
-18.267
 21
-18.267
  0
LINE
  8
0
 10
19.429
 11
19.574
 20
-18.267
 21
-17.789
  0
LINE
  8
0
 10
19.574
 11
20.052
 20
-17.789
 21
-16.895
  0
LINE
  8
0
 10
20.052
 11
20.694
 20
-16.895
 21
-16.112
  0
LINE
  8
0
 10
20.694
 11
21.478
 20
-16.112
 21
-15.469
  0
LINE
  8
0
 10
21.478
 11
22.371
 20
-15.469
 21
-14.991
  0
LINE
  8
0
 10
22.371
 11
23.341
 20
-14.991
 21
-14.697
  0
LINE
  8
0
 10
23.341
 11
24.35
 20
-14.697
 21
-14.598
  0
LINE
  8
0
 10
24.35
 11
25.358
 20
-14.598
 21
-14.697
  0
LINE
  8
0
 10
25.358
 11
26.328
 20
-14.697
 21
-14.991
  0
LINE
  8
0
 10
26.328
 11
27.221
 20
-14.991
 21
-15.469
  0
LINE
  8
0
 10
27.221
 11
28.005
 20
-15.469
 21
-16.112
  0
LINE
  8
0
 10
28.005
 11
28.647
 20
-16.112
 21
-16.895
  0
LINE
  8
0
 10
28.647
 11
29.125
 20
-16.895
 21
-17.789
  0
LINE
  8
0
 10
29.125
 11
29.419
 20
-17.789
 21
-18.759
  0
LINE
  8
0
 10
29.419
 11
29.519
 20
-18.759
 21
-19.767
  0
LINE
  8
0
 10
29.519
 11
29.419
 20
-19.767
 21
-20.775
  0
LINE
  8
0
 10
29.419
 11
29.125
 20
-20.775
 21
-21.745
  0
LINE
  8
0
 10
29.125
 11
28.647
 20
-21.745
 21
-22.639
  0
LINE
  8
0
 10
28.647
 11
28.005
 20
-22.639
 21
-23.422
  0
LINE
  8
0
 10
28.005
 11
27.221
 20
-23.422
 21
-24.065
  0
LINE
  8
0
 10
27.221
 11
26.328
 20
-24.065
 21
-24.543
  0
LINE
  8
0
 10
26.328
 11
25.358
 20
-24.543
 21
-24.837
  0
LINE
  8
0
 10
25.358
 11
24.35
 20
-24.837
 21
-24.936
  0
LINE
  8
0
 10
24.35
 11
23.341
 20
-24.936
 21
-24.837
  0
LINE
  8
0
 10
23.341
 11
22.371
 20
-24.837
 21
-24.543
  0
LINE
  8
0
 10
22.371
 11
21.478
 20
-24.543
 21
-24.065
  0
LINE
  8
0
 10
21.478
 11
20.694
 20
-24.065
 21
-23.422
  0
LINE
  8
0
 10
20.694
 11
20.052
 20
-23.422
 21
-22.639
  0
LINE
  8
0
 10
20.052
 11
19.574
 20
-22.639
 21
-21.745
  0
LINE
  8
0
 10
19.574
 11
19.429
 20
-21.745
 21
-21.267
  0
LINE
  8
0
 10
19.429
 11
6.214
 20
-21.267
 21
-21.267
  0
LINE
  8
0
 10
6.214
 11
5.922
 20
-21.267
 21
-21.238
  0
LINE
  8
0
 10
5.922
 11
5.64
 20
-21.238
 21
-21.153
  0
LINE
  8
0
 10
5.64
 11
5.381
 20
-21.153
 21
-21.014
  0
LINE
  8
0
 10
5.381
 11
5.154
 20
-21.014
 21
-20.828
  0
LINE
  8
0
 10
5.154
 11
4.967
 20
-20.828
 21
-20.6
  0
LINE
  8
0
 10
4.967
 11
4.829
 20
-20.6
 21
-20.341
  0
LINE
  8
0
 10
4.829
 11
4.743
 20
-20.341
 21
-20.06
  0
LINE
  8
0
 10
4.743
 11
4.714
 20
-20.06
 21
-19.767
  0
LINE
  8
0
 10
7.714
 11
7.714
 20
-9.174
 21
-3.159
  0
LINE
  8
0
 10
7.714
 11
22.744
 20
-3.159
 21
-3.159
  0
LINE
  8
0
 10
22.744
 11
22.744
 20
-3.159
 21
-9.174
  0
LINE
  8
0
 10
22.744
 11
7.714
 20
-9.174
 21
-9.174
  0
LINE
  8
0
 10
22.164
 11
24.244
 20
-21.267
 21
-21.267
  0
LINE
  8
0
 10
24.244
 11
24.537
 20
-21.267
 21
-21.238
  0
LINE
  8
0
 10
24.537
 11
24.819
 20
-21.238
 21
-21.153
  0
LINE
  8
0
 10
24.819
 11
25.078
 20
-21.153
 21
-21.014
  0
LINE
  8
0
 10
25.078
 11
25.305
 20
-21.014
 21
-20.828
  0
LINE
  8
0
 10
25.305
 11
25.492
 20
-20.828
 21
-20.6
  0
LINE
  8
0
 10
25.492
 11
25.63
 20
-20.6
 21
-20.341
  0
LINE
  8
0
 10
25.63
 11
25.716
 20
-20.341
 21
-20.06
  0
LINE
  8
0
 10
25.716
 11
25.744
 20
-20.06
 21
-19.767
  0
LINE
  8
0
 10
25.744
 11
25.716
 20
-19.767
 21
-19.474
  0
LINE
  8
0
 10
25.716
 11
25.63
 20
-19.474
 21
-19.193
  0
LINE
  8
0
 10
25.63
 11
25.492
 20
-19.193
 21
-18.934
  0
LINE
  8
0
 10
25.492
 11
25.305
 20
-18.934
 21
-18.706
  0
LINE
  8
0
 10
25.305
 11
25.078
 20
-18.706
 21
-18.52
  0
LINE
  8
0
 10
25.078
 11
24.819
 20
-18.52
 21
-18.381
  0
LINE
  8
0
 10
24.819
 11
24.537
 20
-18.381
 21
-18.296
  0
LINE
  8
0
 10
24.537
 11
24.244
 20
-18.296
 21
-18.267
  0
LINE
  8
0
 10
24.244
 11
22.164
 20
-18.267
 21
-18.267
  0
LINE
  8
0
 10
22.164
 11
22.473
 20
-18.267
 21
-17.891
  0
LINE
  8
0
 10
22.473
 11
22.875
 20
-17.891
 21
-17.561
  0
LINE
  8
0
 10
22.875
 11
23.334
 20
-17.561
 21
-17.315
  0
LINE
  8
0
 10
23.334
 11
23.832
 20
-17.315
 21
-17.164
  0
LINE
  8
0
 10
23.832
 11
24.35
 20
-17.164
 21
-17.113
  0
LINE
  8
0
 10
24.35
 11
24.867
 20
-17.113
 21
-17.164
  0
LINE
  8
0
 10
24.867
 11
25.365
 20
-17.164
 21
-17.315
  0
LINE
  8
0
 10
25.365
 11
25.824
 20
-17.315
 21
-17.561
  0
LINE
  8
0
 10
25.824
 11
26.226
 20
-17.561
 21
-17.891
  0
LINE
  8
0
 10
26.226
 11
26.556
 20
-17.891
 21
-18.293
  0
LINE
  8
0
 10
26.556
 11
26.801
 20
-18.293
 21
-18.752
  0
LINE
  8
0
 10
26.801
 11
26.952
 20
-18.752
 21
-19.249
  0
LINE
  8
0
 10
26.952
 11
27.003
 20
-19.249
 21
-19.767
  0
LINE
  8
0
 10
27.003
 11
26.952
 20
-19.767
 21
-20.285
  0
LINE
  8
0
 10
26.952
 11
26.801
 20
-20.285
 21
-20.782
  0
LINE
  8
0
 10
26.801
 11
26.556
 20
-20.782
 21
-21.241
  0
LINE
  8
0
 10
26.556
 11
26.226
 20
-21.241
 21
-21.643
  0
LINE
  8
0
 10
26.226
 11
25.824
 20
-21.643
 21
-21.973
  0
LINE
  8
0
 10
25.824
 11
25.365
 20
-21.973
 21
-22.219
  0
LINE
  8
0
 10
25.365
 11
24.867
 20
-22.219
 21
-22.37
  0
LINE
  8
0
 10
24.867
 11
24.35
 20
-22.37
 21
-22.42
  0
LINE
  8
0
 10
24.35
 11
23.832
 20
-22.42
 21
-22.37
  0
LINE
  8
0
 10
23.832
 11
23.334
 20
-22.37
 21
-22.219
  0
LINE
  8
0
 10
23.334
 11
22.875
 20
-22.219
 21
-21.973
  0
LINE
  8
0
 10
22.875
 11
22.473
 20
-21.973
 21
-21.643
  0
LINE
  8
0
 10
22.473
 11
22.164
 20
-21.643
 21
-21.267
  0
LINE
  8
0
 10
28.181
 11
28.28
 20
16.533
 21
17.541
  0
LINE
  8
0
 10
28.28
 11
28.574
 20
17.541
 21
18.511
  0
LINE
  8
0
 10
28.574
 11
29.052
 20
18.511
 21
19.405
  0
LINE
  8
0
 10
29.052
 11
29.694
 20
19.405
 21
20.188
  0
LINE
  8
0
 10
29.694
 11
30.478
 20
20.188
 21
20.831
  0
LINE
  8
0
 10
30.478
 11
31.371
 20
20.831
 21
21.309
  0
LINE
  8
0
 10
31.371
 11
32.341
 20
21.309
 21
21.603
  0
LINE
  8
0
 10
32.341
 11
33.35
 20
21.603
 21
21.702
  0
LINE
  8
0
 10
33.35
 11
34.358
 20
21.702
 21
21.603
  0
LINE
  8
0
 10
34.358
 11
35.328
 20
21.603
 21
21.309
  0
LINE
  8
0
 10
35.328
 11
36.221
 20
21.309
 21
20.831
  0
LINE
  8
0
 10
36.221
 11
37.005
 20
20.831
 21
20.188
  0
LINE
  8
0
 10
37.005
 11
37.647
 20
20.188
 21
19.405
  0
LINE
  8
0
 10
37.647
 11
38.125
 20
19.405
 21
18.511
  0
LINE
  8
0
 10
38.125
 11
38.419
 20
18.511
 21
17.541
  0
LINE
  8
0
 10
38.419
 11
38.519
 20
17.541
 21
16.533
  0
LINE
  8
0
 10
38.519
 11
38.419
 20
16.533
 21
15.525
  0
LINE
  8
0
 10
38.419
 11
38.125
 20
15.525
 21
14.555
  0
LINE
  8
0
 10
38.125
 11
37.647
 20
14.555
 21
13.661
  0
LINE
  8
0
 10
37.647
 11
37.005
 20
13.661
 21
12.878
  0
LINE
  8
0
 10
37.005
 11
36.221
 20
12.878
 21
12.235
  0
LINE
  8
0
 10
36.221
 11
35.328
 20
12.235
 21
11.757
  0
LINE
  8
0
 10
35.328
 11
34.894
 20
11.757
 21
11.626
  0
LINE
  8
0
 10
34.894
 11
34.894
 20
11.626
 21
-0.075
  0
LINE
  8
0
 10
34.894
 11
49.85
 20
-0.075
 21
-0.075
  0
LINE
  8
0
 10
49.85
 11
49.85
 20
-0.075
 21
11.612
  0
LINE
  8
0
 10
49.85
 11
49.371
 20
11.612
 21
11.757
  0
LINE
  8
0
 10
49.371
 11
48.478
 20
11.757
 21
12.235
  0
LINE
  8
0
 10
48.478
 11
47.694
 20
12.235
 21
12.878
  0
LINE
  8
0
 10
47.694
 11
47.052
 20
12.878
 21
13.661
  0
LINE
  8
0
 10
47.052
 11
46.574
 20
13.661
 21
14.555
  0
LINE
  8
0
 10
46.574
 11
46.28
 20
14.555
 21
15.525
  0
LINE
  8
0
 10
46.28
 11
46.181
 20
15.525
 21
16.533
  0
LINE
  8
0
 10
46.181
 11
46.28
 20
16.533
 21
17.541
  0
LINE
  8
0
 10
46.28
 11
46.574
 20
17.541
 21
18.511
  0
LINE
  8
0
 10
46.574
 11
47.052
 20
18.511
 21
19.405
  0
LINE
  8
0
 10
47.052
 11
47.694
 20
19.405
 21
20.188
  0
LINE
  8
0
 10
47.694
 11
48.478
 20
20.188
 21
20.831
  0
LINE
  8
0
 10
48.478
 11
49.371
 20
20.831
 21
21.309
  0
LINE
  8
0
 10
49.371
 11
50.341
 20
21.309
 21
21.603
  0
LINE
  8
0
 10
50.341
 11
51.35
 20
21.603
 21
21.702
  0
LINE
  8
0
 10
51.35
 11
52.358
 20
21.702
 21
21.603
  0
LINE
  8
0
 10
52.358
 11
53.328
 20
21.603
 21
21.309
  0
LINE
  8
0
 10
53.328
 11
54.221
 20
21.309
 21
20.831
  0
LINE
  8
0
 10
54.221
 11
55.005
 20
20.831
 21
20.188
  0
LINE
  8
0
 10
55.005
 11
55.647
 20
20.188
 21
19.405
  0
LINE
  8
0
 10
55.647
 11
56.125
 20
19.405
 21
18.511
  0
LINE
  8
0
 10
56.125
 11
56.419
 20
18.511
 21
17.541
  0
LINE
  8
0
 10
56.419
 11
56.519
 20
17.541
 21
16.533
  0
LINE
  8
0
 10
56.519
 11
56.419
 20
16.533
 21
15.525
  0
LINE
  8
0
 10
56.419
 11
56.125
 20
15.525
 21
14.555
  0
LINE
  8
0
 10
56.125
 11
55.647
 20
14.555
 21
13.661
  0
LINE
  8
0
 10
55.647
 11
55.005
 20
13.661
 21
12.878
  0
LINE
  8
0
 10
55.005
 11
54.221
 20
12.878
 21
12.235
  0
LINE
  8
0
 10
54.221
 11
53.328
 20
12.235
 21
11.757
  0
LINE
  8
0
 10
53.328
 11
52.85
 20
11.757
 21
11.612
  0
LINE
  8
0
 10
52.85
 11
52.85
 20
11.612
 21
-14.846
  0
LINE
  8
0
 10
52.85
 11
53.328
 20
-14.846
 21
-14.991
  0
LINE
  8
0
 10
53.328
 11
54.221
 20
-14.991
 21
-15.469
  0
LINE
  8
0
 10
54.221
 11
55.005
 20
-15.469
 21
-16.112
  0
LINE
  8
0
 10
55.005
 11
55.647
 20
-16.112
 21
-16.895
  0
LINE
  8
0
 10
55.647
 11
56.125
 20
-16.895
 21
-17.789
  0
LINE
  8
0
 10
56.125
 11
56.419
 20
-17.789
 21
-18.759
  0
LINE
  8
0
 10
56.419
 11
56.519
 20
-18.759
 21
-19.767
  0
LINE
  8
0
 10
56.519
 11
56.419
 20
-19.767
 21
-20.775
  0
LINE
  8
0
 10
56.419
 11
56.125
 20
-20.775
 21
-21.745
  0
LINE
  8
0
 10
56.125
 11
55.647
 20
-21.745
 21
-22.639
  0
LINE
  8
0
 10
55.647
 11
55.005
 20
-22.639
 21
-23.422
  0
LINE
  8
0
 10
55.005
 11
54.221
 20
-23.422
 21
-24.065
  0
LINE
  8
0
 10
54.221
 11
53.328
 20
-24.065
 21
-24.543
  0
LINE
  8
0
 10
53.328
 11
52.358
 20
-24.543
 21
-24.837
  0
LINE
  8
0
 10
52.358
 11
51.35
 20
-24.837
 21
-24.936
  0
LINE
  8
0
 10
51.35
 11
50.341
 20
-24.936
 21
-24.837
  0
LINE
  8
0
 10
50.341
 11
49.371
 20
-24.837
 21
-24.543
  0
LINE
  8
0
 10
49.371
 11
48.478
 20
-24.543
 21
-24.065
  0
LINE
  8
0
 10
48.478
 11
47.694
 20
-24.065
 21
-23.422
  0
LINE
  8
0
 10
47.694
 11
47.052
 20
-23.422
 21
-22.639
  0
LINE
  8
0
 10
47.052
 11
46.574
 20
-22.639
 21
-21.745
  0
LINE
  8
0
 10
46.574
 11
46.28
 20
-21.745
 21
-20.775
  0
LINE
  8
0
 10
46.28
 11
46.181
 20
-20.775
 21
-19.767
  0
LINE
  8
0
 10
46.181
 11
46.28
 20
-19.767
 21
-18.759
  0
LINE
  8
0
 10
46.28
 11
46.574
 20
-18.759
 21
-17.789
  0
LINE
  8
0
 10
46.574
 11
47.052
 20
-17.789
 21
-16.895
  0
LINE
  8
0
 10
47.052
 11
47.694
 20
-16.895
 21
-16.112
  0
LINE
  8
0
 10
47.694
 11
48.478
 20
-16.112
 21
-15.469
  0
LINE
  8
0
 10
48.478
 11
49.371
 20
-15.469
 21
-14.991
  0
LINE
  8
0
 10
49.371
 11
49.85
 20
-14.991
 21
-14.846
  0
LINE
  8
0
 10
49.85
 11
49.85
 20
-14.846
 21
-3.075
  0
LINE
  8
0
 10
49.85
 11
33.394
 20
-3.075
 21
-3.075
  0
LINE
  8
0
 10
33.394
 11
33.102
 20
-3.075
 21
-3.046
  0
LINE
  8
0
 10
33.102
 11
32.82
 20
-3.046
 21
-2.961
  0
LINE
  8
0
 10
32.82
 11
32.561
 20
-2.961
 21
-2.822
  0
LINE
  8
0
 10
32.561
 11
32.334
 20
-2.822
 21
-2.636
  0
LINE
  8
0
 10
32.334
 11
32.147
 20
-2.636
 21
-2.408
  0
LINE
  8
0
 10
32.147
 11
32.009
 20
-2.408
 21
-2.149
  0
LINE
  8
0
 10
32.009
 11
31.923
 20
-2.149
 21
-1.868
  0
LINE
  8
0
 10
31.923
 11
31.894
 20
-1.868
 21
-1.575
  0
LINE
  8
0
 10
31.894
 11
31.894
 20
-1.575
 21
11.599
  0
LINE
  8
0
 10
31.894
 11
31.371
 20
11.599
 21
11.757
  0
LINE
  8
0
 10
31.371
 11
30.478
 20
11.757
 21
12.235
  0
LINE
  8
0
 10
30.478
 11
29.694
 20
12.235
 21
12.878
  0
LINE
  8
0
 10
29.694
 11
29.052
 20
12.878
 21
13.661
  0
LINE
  8
0
 10
29.052
 11
28.574
 20
13.661
 21
14.555
  0
LINE
  8
0
 10
28.574
 11
28.28
 20
14.555
 21
15.525
  0
LINE
  8
0
 10
28.28
 11
28.181
 20
15.525
 21
16.533
  0
LINE
  8
0
 10
30.696
 11
30.747
 20
16.533
 21
17.051
  0
LINE
  8
0
 10
30.747
 11
30.898
 20
17.051
 21
17.548
  0
LINE
  8
0
 10
30.898
 11
31.143
 20
17.548
 21
18.007
  0
LINE
  8
0
 10
31.143
 11
31.473
 20
18.007
 21
18.409
  0
LINE
  8
0
 10
31.473
 11
31.875
 20
18.409
 21
18.739
  0
LINE
  8
0
 10
31.875
 11
32.334
 20
18.739
 21
18.985
  0
LINE
  8
0
 10
32.334
 11
32.832
 20
18.985
 21
19.136
  0
LINE
  8
0
 10
32.832
 11
33.35
 20
19.136
 21
19.187
  0
LINE
  8
0
 10
33.35
 11
33.867
 20
19.187
 21
19.136
  0
LINE
  8
0
 10
33.867
 11
34.365
 20
19.136
 21
18.985
  0
LINE
  8
0
 10
34.365
 11
34.824
 20
18.985
 21
18.739
  0
LINE
  8
0
 10
34.824
 11
35.226
 20
18.739
 21
18.409
  0
LINE
  8
0
 10
35.226
 11
35.556
 20
18.409
 21
18.007
  0
LINE
  8
0
 10
35.556
 11
35.801
 20
18.007
 21
17.548
  0
LINE
  8
0
 10
35.801
 11
35.952
 20
17.548
 21
17.051
  0
LINE
  8
0
 10
35.952
 11
36.003
 20
17.051
 21
16.533
  0
LINE
  8
0
 10
36.003
 11
35.952
 20
16.533
 21
16.015
  0
LINE
  8
0
 10
35.952
 11
35.801
 20
16.015
 21
15.518
  0
LINE
  8
0
 10
35.801
 11
35.556
 20
15.518
 21
15.059
  0
LINE
  8
0
 10
35.556
 11
35.226
 20
15.059
 21
14.657
  0
LINE
  8
0
 10
35.226
 11
34.894
 20
14.657
 21
14.385
  0
LINE
  8
0
 10
34.894
 11
34.894
 20
14.385
 21
16.533
  0
LINE
  8
0
 10
34.894
 11
34.866
 20
16.533
 21
16.826
  0
LINE
  8
0
 10
34.866
 11
34.78
 20
16.826
 21
17.107
  0
LINE
  8
0
 10
34.78
 11
34.642
 20
17.107
 21
17.366
  0
LINE
  8
0
 10
34.642
 11
34.455
 20
17.366
 21
17.594
  0
LINE
  8
0
 10
34.455
 11
34.228
 20
17.594
 21
17.78
  0
LINE
  8
0
 10
34.228
 11
33.969
 20
17.78
 21
17.919
  0
LINE
  8
0
 10
33.969
 11
33.687
 20
17.919
 21
18.004
  0
LINE
  8
0
 10
33.687
 11
33.394
 20
18.004
 21
18.033
  0
LINE
  8
0
 10
33.394
 11
33.102
 20
18.033
 21
18.004
  0
LINE
  8
0
 10
33.102
 11
32.82
 20
18.004
 21
17.919
  0
LINE
  8
0
 10
32.82
 11
32.561
 20
17.919
 21
17.78
  0
LINE
  8
0
 10
32.561
 11
32.334
 20
17.78
 21
17.594
  0
LINE
  8
0
 10
32.334
 11
32.147
 20
17.594
 21
17.366
  0
LINE
  8
0
 10
32.147
 11
32.009
 20
17.366
 21
17.107
  0
LINE
  8
0
 10
32.009
 11
31.923
 20
17.107
 21
16.826
  0
LINE
  8
0
 10
31.923
 11
31.894
 20
16.826
 21
16.533
  0
LINE
  8
0
 10
31.894
 11
31.894
 20
16.533
 21
14.316
  0
LINE
  8
0
 10
31.894
 11
31.875
 20
14.316
 21
14.327
  0
LINE
  8
0
 10
31.875
 11
31.473
 20
14.327
 21
14.657
  0
LINE
  8
0
 10
31.473
 11
31.143
 20
14.657
 21
15.059
  0
LINE
  8
0
 10
31.143
 11
30.898
 20
15.059
 21
15.518
  0
LINE
  8
0
 10
30.898
 11
30.747
 20
15.518
 21
16.015
  0
LINE
  8
0
 10
30.747
 11
30.696
 20
16.015
 21
16.533
  0
LINE
  8
0
 10
48.696
 11
48.747
 20
-19.767
 21
-19.249
  0
LINE
  8
0
 10
48.747
 11
48.898
 20
-19.249
 21
-18.752
  0
LINE
  8
0
 10
48.898
 11
49.143
 20
-18.752
 21
-18.293
  0
LINE
  8
0
 10
49.143
 11
49.473
 20
-18.293
 21
-17.891
  0
LINE
  8
0
 10
49.473
 11
49.85
 20
-17.891
 21
-17.582
  0
LINE
  8
0
 10
49.85
 11
49.85
 20
-17.582
 21
-19.758
  0
LINE
  8
0
 10
49.85
 11
49.878
 20
-19.758
 21
-20.051
  0
LINE
  8
0
 10
49.878
 11
49.964
 20
-20.051
 21
-20.332
  0
LINE
  8
0
 10
49.964
 11
50.102
 20
-20.332
 21
-20.591
  0
LINE
  8
0
 10
50.102
 11
50.289
 20
-20.591
 21
-20.819
  0
LINE
  8
0
 10
50.289
 11
50.516
 20
-20.819
 21
-21.005
  0
LINE
  8
0
 10
50.516
 11
50.775
 20
-21.005
 21
-21.144
  0
LINE
  8
0
 10
50.775
 11
51.057
 20
-21.144
 21
-21.229
  0
LINE
  8
0
 10
51.057
 11
51.35
 20
-21.229
 21
-21.258
  0
LINE
  8
0
 10
51.35
 11
51.642
 20
-21.258
 21
-21.229
  0
LINE
  8
0
 10
51.642
 11
51.924
 20
-21.229
 21
-21.144
  0
LINE
  8
0
 10
51.924
 11
52.183
 20
-21.144
 21
-21.005
  0
LINE
  8
0
 10
52.183
 11
52.41
 20
-21.005
 21
-20.819
  0
LINE
  8
0
 10
52.41
 11
52.597
 20
-20.819
 21
-20.591
  0
LINE
  8
0
 10
52.597
 11
52.735
 20
-20.591
 21
-20.332
  0
LINE
  8
0
 10
52.735
 11
52.821
 20
-20.332
 21
-20.051
  0
LINE
  8
0
 10
52.821
 11
52.85
 20
-20.051
 21
-19.758
  0
LINE
  8
0
 10
52.85
 11
52.85
 20
-19.758
 21
-17.582
  0
LINE
  8
0
 10
52.85
 11
53.226
 20
-17.582
 21
-17.891
  0
LINE
  8
0
 10
53.226
 11
53.556
 20
-17.891
 21
-18.293
  0
LINE
  8
0
 10
53.556
 11
53.801
 20
-18.293
 21
-18.752
  0
LINE
  8
0
 10
53.801
 11
53.952
 20
-18.752
 21
-19.249
  0
LINE
  8
0
 10
53.952
 11
54.003
 20
-19.249
 21
-19.767
  0
LINE
  8
0
 10
54.003
 11
53.952
 20
-19.767
 21
-20.285
  0
LINE
  8
0
 10
53.952
 11
53.801
 20
-20.285
 21
-20.782
  0
LINE
  8
0
 10
53.801
 11
53.556
 20
-20.782
 21
-21.241
  0
LINE
  8
0
 10
53.556
 11
53.226
 20
-21.241
 21
-21.643
  0
LINE
  8
0
 10
53.226
 11
52.824
 20
-21.643
 21
-21.973
  0
LINE
  8
0
 10
52.824
 11
52.365
 20
-21.973
 21
-22.219
  0
LINE
  8
0
 10
52.365
 11
51.867
 20
-22.219
 21
-22.37
  0
LINE
  8
0
 10
51.867
 11
51.35
 20
-22.37
 21
-22.42
  0
LINE
  8
0
 10
51.35
 11
50.832
 20
-22.42
 21
-22.37
  0
LINE
  8
0
 10
50.832
 11
50.334
 20
-22.37
 21
-22.219
  0
LINE
  8
0
 10
50.334
 11
49.875
 20
-22.219
 21
-21.973
  0
LINE
  8
0
 10
49.875
 11
49.473
 20
-21.973
 21
-21.643
  0
LINE
  8
0
 10
49.473
 11
49.143
 20
-21.643
 21
-21.241
  0
LINE
  8
0
 10
49.143
 11
48.898
 20
-21.241
 21
-20.782
  0
LINE
  8
0
 10
48.898
 11
48.747
 20
-20.782
 21
-20.285
  0
LINE
  8
0
 10
48.747
 11
48.696
 20
-20.285
 21
-19.767
  0
LINE
  8
0
 10
48.696
 11
48.747
 20
16.533
 21
17.051
  0
LINE
  8
0
 10
48.747
 11
48.898
 20
17.051
 21
17.548
  0
LINE
  8
0
 10
48.898
 11
49.143
 20
17.548
 21
18.007
  0
LINE
  8
0
 10
49.143
 11
49.473
 20
18.007
 21
18.409
  0
LINE
  8
0
 10
49.473
 11
49.875
 20
18.409
 21
18.739
  0
LINE
  8
0
 10
49.875
 11
50.334
 20
18.739
 21
18.985
  0
LINE
  8
0
 10
50.334
 11
50.832
 20
18.985
 21
19.136
  0
LINE
  8
0
 10
50.832
 11
51.35
 20
19.136
 21
19.187
  0
LINE
  8
0
 10
51.35
 11
51.867
 20
19.187
 21
19.136
  0
LINE
  8
0
 10
51.867
 11
52.365
 20
19.136
 21
18.985
  0
LINE
  8
0
 10
52.365
 11
52.824
 20
18.985
 21
18.739
  0
LINE
  8
0
 10
52.824
 11
53.226
 20
18.739
 21
18.409
  0
LINE
  8
0
 10
53.226
 11
53.556
 20
18.409
 21
18.007
  0
LINE
  8
0
 10
53.556
 11
53.801
 20
18.007
 21
17.548
  0
LINE
  8
0
 10
53.801
 11
53.952
 20
17.548
 21
17.051
  0
LINE
  8
0
 10
53.952
 11
54.003
 20
17.051
 21
16.533
  0
LINE
  8
0
 10
54.003
 11
53.952
 20
16.533
 21
16.015
  0
LINE
  8
0
 10
53.952
 11
53.801
 20
16.015
 21
15.518
  0
LINE
  8
0
 10
53.801
 11
53.556
 20
15.518
 21
15.059
  0
LINE
  8
0
 10
53.556
 11
53.226
 20
15.059
 21
14.657
  0
LINE
  8
0
 10
53.226
 11
52.85
 20
14.657
 21
14.348
  0
LINE
  8
0
 10
52.85
 11
52.85
 20
14.348
 21
16.455
  0
LINE
  8
0
 10
52.85
 11
52.821
 20
16.455
 21
16.748
  0
LINE
  8
0
 10
52.821
 11
52.735
 20
16.748
 21
17.029
  0
LINE
  8
0
 10
52.735
 11
52.597
 20
17.029
 21
17.288
  0
LINE
  8
0
 10
52.597
 11
52.41
 20
17.288
 21
17.516
  0
LINE
  8
0
 10
52.41
 11
52.183
 20
17.516
 21
17.702
  0
LINE
  8
0
 10
52.183
 11
51.924
 20
17.702
 21
17.841
  0
LINE
  8
0
 10
51.924
 11
51.642
 20
17.841
 21
17.926
  0
LINE
  8
0
 10
51.642
 11
51.35
 20
17.926
 21
17.955
  0
LINE
  8
0
 10
51.35
 11
51.057
 20
17.955
 21
17.926
  0
LINE
  8
0
 10
51.057
 11
50.775
 20
17.926
 21
17.841
  0
LINE
  8
0
 10
50.775
 11
50.516
 20
17.841
 21
17.702
  0
LINE
  8
0
 10
50.516
 11
50.289
 20
17.702
 21
17.516
  0
LINE
  8
0
 10
50.289
 11
50.102
 20
17.516
 21
17.288
  0
LINE
  8
0
 10
50.102
 11
49.964
 20
17.288
 21
17.029
  0
LINE
  8
0
 10
49.964
 11
49.878
 20
17.029
 21
16.748
  0
LINE
  8
0
 10
49.878
 11
49.85
 20
16.748
 21
16.455
  0
LINE
  8
0
 10
49.85
 11
49.85
 20
16.455
 21
14.348
  0
LINE
  8
0
 10
49.85
 11
49.473
 20
14.348
 21
14.657
  0
LINE
  8
0
 10
49.473
 11
49.143
 20
14.657
 21
15.059
  0
LINE
  8
0
 10
49.143
 11
48.898
 20
15.059
 21
15.518
  0
LINE
  8
0
 10
48.898
 11
48.747
 20
15.518
 21
16.015
  0
LINE
  8
0
 10
48.747
 11
48.696
 20
16.015
 21
16.533
  0
LINE
  8
0
 10
58.744
 11
58.773
 20
16.533
 21
16.826
  0
LINE
  8
0
 10
58.773
 11
58.859
 20
16.826
 21
17.107
  0
LINE
  8
0
 10
58.859
 11
58.997
 20
17.107
 21
17.366
  0
LINE
  8
0
 10
58.997
 11
59.184
 20
17.366
 21
17.594
  0
LINE
  8
0
 10
59.184
 11
59.411
 20
17.594
 21
17.78
  0
LINE
  8
0
 10
59.411
 11
59.67
 20
17.78
 21
17.919
  0
LINE
  8
0
 10
59.67
 11
59.952
 20
17.919
 21
18.004
  0
LINE
  8
0
 10
59.952
 11
60.244
 20
18.004
 21
18.033
  0
LINE
  8
0
 10
60.244
 11
78.655
 20
18.033
 21
18.033
  0
LINE
  8
0
 10
78.655
 11
78.948
 20
18.033
 21
18.004
  0
LINE
  8
0
 10
78.948
 11
79.23
 20
18.004
 21
17.919
  0
LINE
  8
0
 10
79.23
 11
79.489
 20
17.919
 21
17.78
  0
LINE
  8
0
 10
79.489
 11
79.716
 20
17.78
 21
17.594
  0
LINE
  8
0
 10
79.716
 11
79.903
 20
17.594
 21
17.366
  0
LINE
  8
0
 10
79.903
 11
80.041
 20
17.366
 21
17.107
  0
LINE
  8
0
 10
80.041
 11
80.127
 20
17.107
 21
16.826
  0
LINE
  8
0
 10
80.127
 11
80.155
 20
16.826
 21
16.533
  0
LINE
  8
0
 10
80.155
 11
80.155
 20
16.533
 21
-20.433
  0
LINE
  8
0
 10
80.155
 11
80.127
 20
-20.433
 21
-20.726
  0
LINE
  8
0
 10
80.127
 11
80.041
 20
-20.726
 21
-21.007
  0
LINE
  8
0
 10
80.041
 11
79.903
 20
-21.007
 21
-21.266
  0
LINE
  8
0
 10
79.903
 11
79.716
 20
-21.266
 21
-21.494
  0
LINE
  8
0
 10
79.716
 11
79.489
 20
-21.494
 21
-21.68
  0
LINE
  8
0
 10
79.489
 11
79.23
 20
-21.68
 21
-21.819
  0
LINE
  8
0
 10
79.23
 11
78.948
 20
-21.819
 21
-21.904
  0
LINE
  8
0
 10
78.948
 11
78.655
 20
-21.904
 21
-21.933
  0
LINE
  8
0
 10
78.655
 11
60.322
 20
-21.933
 21
-21.933
  0
LINE
  8
0
 10
60.322
 11
60.03
 20
-21.933
 21
-21.904
  0
LINE
  8
0
 10
60.03
 11
59.748
 20
-21.904
 21
-21.819
  0
LINE
  8
0
 10
59.748
 11
59.489
 20
-21.819
 21
-21.68
  0
LINE
  8
0
 10
59.489
 11
59.262
 20
-21.68
 21
-21.494
  0
LINE
  8
0
 10
59.262
 11
59.075
 20
-21.494
 21
-21.266
  0
LINE
  8
0
 10
59.075
 11
58.937
 20
-21.266
 21
-21.007
  0
LINE
  8
0
 10
58.937
 11
58.851
 20
-21.007
 21
-20.726
  0
LINE
  8
0
 10
58.851
 11
58.822
 20
-20.726
 21
-20.433
  0
LINE
  8
0
 10
58.822
 11
58.744
 20
-20.433
 21
16.533
  0
LINE
  8
0
 10
61.748
 11
77.155
 20
15.033
 21
15.033
  0
LINE
  8
0
 10
77.155
 11
77.155
 20
15.033
 21
-0.267
  0
LINE
  8
0
 10
77.155
 11
61.78
 20
-0.267
 21
-0.267
  0
LINE
  8
0
 10
61.78
 11
61.748
 20
-0.267
 21
15.033
  0
LINE
  8
0
 10
61.786
 11
77.155
 20
-3.267
 21
-3.267
  0
LINE
  8
0
 10
77.155
 11
77.155
 20
-3.267
 21
-18.933
  0
LINE
  8
0
 10
77.155
 11
61.819
 20
-18.933
 21
-18.933
  0
LINE
  8
0
 10
61.819
 11
61.786
 20
-18.933
 21
-3.267
  0
ENDSEC
  0
SECTION
  2
OBJECTS
  0
DICTIONARY
  0
ENDSEC
  0
EOF
