  0
SECTION
  2
BLOCKS
  0
ENDSEC
  0
SECTION
  2
ENTITIES
  0
LINE
  8
0
 10
-266.565
 11
-266.234
 20
55.11
 21
58.471
  0
LINE
  8
0
 10
-266.234
 11
-265.253
 20
58.471
 21
61.704
  0
LINE
  8
0
 10
-265.253
 11
-263.661
 20
61.704
 21
64.682
  0
LINE
  8
0
 10
-263.661
 11
-261.518
 20
64.682
 21
67.293
  0
LINE
  8
0
 10
-261.518
 11
-258.907
 20
67.293
 21
69.436
  0
LINE
  8
0
 10
-258.907
 11
-255.929
 20
69.436
 21
71.028
  0
LINE
  8
0
 10
-255.929
 11
-252.696
 20
71.028
 21
72.009
  0
LINE
  8
0
 10
-252.696
 11
-249.335
 20
72.009
 21
72.34
  0
LINE
  8
0
 10
-249.335
 11
-245.974
 20
72.34
 21
72.009
  0
LINE
  8
0
 10
-245.974
 11
-242.741
 20
72.009
 21
71.028
  0
LINE
  8
0
 10
-242.741
 11
-239.763
 20
71.028
 21
69.436
  0
LINE
  8
0
 10
-239.763
 11
-237.152
 20
69.436
 21
67.293
  0
LINE
  8
0
 10
-237.152
 11
-235.009
 20
67.293
 21
64.682
  0
LINE
  8
0
 10
-235.009
 11
-233.417
 20
64.682
 21
61.704
  0
LINE
  8
0
 10
-233.417
 11
-232.436
 20
61.704
 21
58.471
  0
LINE
  8
0
 10
-232.436
 11
-232.105
 20
58.471
 21
55.11
  0
LINE
  8
0
 10
-232.105
 11
-232.436
 20
55.11
 21
51.749
  0
LINE
  8
0
 10
-232.436
 11
-233.417
 20
51.749
 21
48.516
  0
LINE
  8
0
 10
-233.417
 11
-235.009
 20
48.516
 21
45.538
  0
LINE
  8
0
 10
-235.009
 11
-237.152
 20
45.538
 21
42.927
  0
LINE
  8
0
 10
-237.152
 11
-239.763
 20
42.927
 21
40.784
  0
LINE
  8
0
 10
-239.763
 11
-242.741
 20
40.784
 21
39.192
  0
LINE
  8
0
 10
-242.741
 11
-244.185
 20
39.192
 21
38.754
  0
LINE
  8
0
 10
-244.185
 11
-244.185
 20
38.754
 21
-0.521
  0
LINE
  8
0
 10
-244.185
 11
-189.085
 20
-0.521
 21
-0.75
  0
LINE
  8
0
 10
-189.085
 11
-188.11
 20
-0.75
 21
-0.846
  0
LINE
  8
0
 10
-188.11
 11
-187.172
 20
-0.846
 21
-1.131
  0
LINE
  8
0
 10
-187.172
 11
-186.307
 20
-1.131
 21
-1.593
  0
LINE
  8
0
 10
-186.307
 11
-185.549
 20
-1.593
 21
-2.214
  0
LINE
  8
0
 10
-185.549
 11
-184.928
 20
-2.214
 21
-2.972
  0
LINE
  8
0
 10
-184.928
 11
-184.466
 20
-2.972
 21
-3.837
  0
LINE
  8
0
 10
-184.466
 11
-184.181
 20
-3.837
 21
-4.775
  0
LINE
  8
0
 10
-184.181
 11
-184.085
 20
-4.775
 21
-5.75
  0
LINE
  8
0
 10
-184.085
 11
-184.085
 20
-5.75
 21
-66.11
  0
LINE
  8
0
 10
-184.085
 11
-184.181
 20
-66.11
 21
-67.085
  0
LINE
  8
0
 10
-184.181
 11
-184.466
 20
-67.085
 21
-68.023
  0
LINE
  8
0
 10
-184.466
 11
-184.928
 20
-68.023
 21
-68.888
  0
LINE
  8
0
 10
-184.928
 11
-185.549
 20
-68.888
 21
-69.646
  0
LINE
  8
0
 10
-185.549
 11
-186.307
 20
-69.646
 21
-70.267
  0
LINE
  8
0
 10
-186.307
 11
-187.172
 20
-70.267
 21
-70.729
  0
LINE
  8
0
 10
-187.172
 11
-188.11
 20
-70.729
 21
-71.014
  0
LINE
  8
0
 10
-188.11
 11
-189.085
 20
-71.014
 21
-71.11
  0
LINE
  8
0
 10
-189.085
 11
-249.185
 20
-71.11
 21
-70.86
  0
LINE
  8
0
 10
-249.185
 11
-250.16
 20
-70.86
 21
-70.764
  0
LINE
  8
0
 10
-250.16
 11
-251.098
 20
-70.764
 21
-70.479
  0
LINE
  8
0
 10
-251.098
 11
-251.963
 20
-70.479
 21
-70.017
  0
LINE
  8
0
 10
-251.963
 11
-252.721
 20
-70.017
 21
-69.396
  0
LINE
  8
0
 10
-252.721
 11
-253.342
 20
-69.396
 21
-68.638
  0
LINE
  8
0
 10
-253.342
 11
-253.804
 20
-68.638
 21
-67.773
  0
LINE
  8
0
 10
-253.804
 11
-254.089
 20
-67.773
 21
-66.835
  0
LINE
  8
0
 10
-254.089
 11
-254.185
 20
-66.835
 21
-65.86
  0
LINE
  8
0
 10
-254.185
 11
-254.185
 20
-65.86
 21
38.663
  0
LINE
  8
0
 10
-254.185
 11
-255.929
 20
38.663
 21
39.192
  0
LINE
  8
0
 10
-255.929
 11
-258.907
 20
39.192
 21
40.784
  0
LINE
  8
0
 10
-258.907
 11
-261.518
 20
40.784
 21
42.927
  0
LINE
  8
0
 10
-261.518
 11
-263.661
 20
42.927
 21
45.538
  0
LINE
  8
0
 10
-263.661
 11
-265.253
 20
45.538
 21
48.516
  0
LINE
  8
0
 10
-265.253
 11
-266.234
 20
48.516
 21
51.749
  0
LINE
  8
0
 10
-266.234
 11
-266.565
 20
51.749
 21
55.11
  0
LINE
  8
0
 10
-258.18
 11
-258.01
 20
55.11
 21
56.836
  0
LINE
  8
0
 10
-258.01
 11
-257.507
 20
56.836
 21
58.495
  0
LINE
  8
0
 10
-257.507
 11
-256.689
 20
58.495
 21
60.024
  0
LINE
  8
0
 10
-256.689
 11
-255.589
 20
60.024
 21
61.364
  0
LINE
  8
0
 10
-255.589
 11
-254.249
 20
61.364
 21
62.464
  0
LINE
  8
0
 10
-254.249
 11
-252.72
 20
62.464
 21
63.282
  0
LINE
  8
0
 10
-252.72
 11
-251.061
 20
63.282
 21
63.785
  0
LINE
  8
0
 10
-251.061
 11
-249.335
 20
63.785
 21
63.955
  0
LINE
  8
0
 10
-249.335
 11
-247.609
 20
63.955
 21
63.785
  0
LINE
  8
0
 10
-247.609
 11
-245.95
 20
63.785
 21
63.282
  0
LINE
  8
0
 10
-245.95
 11
-244.421
 20
63.282
 21
62.464
  0
LINE
  8
0
 10
-244.421
 11
-243.081
 20
62.464
 21
61.364
  0
LINE
  8
0
 10
-243.081
 11
-241.981
 20
61.364
 21
60.024
  0
LINE
  8
0
 10
-241.981
 11
-241.163
 20
60.024
 21
58.495
  0
LINE
  8
0
 10
-241.163
 11
-240.66
 20
58.495
 21
56.836
  0
LINE
  8
0
 10
-240.66
 11
-240.49
 20
56.836
 21
55.11
  0
LINE
  8
0
 10
-240.49
 11
-240.66
 20
55.11
 21
53.384
  0
LINE
  8
0
 10
-240.66
 11
-241.163
 20
53.384
 21
51.725
  0
LINE
  8
0
 10
-241.163
 11
-241.981
 20
51.725
 21
50.196
  0
LINE
  8
0
 10
-241.981
 11
-243.081
 20
50.196
 21
48.856
  0
LINE
  8
0
 10
-243.081
 11
-244.185
 20
48.856
 21
47.949
  0
LINE
  8
0
 10
-244.185
 11
-244.185
 20
47.949
 21
55.11
  0
LINE
  8
0
 10
-244.185
 11
-244.281
 20
55.11
 21
56.085
  0
LINE
  8
0
 10
-244.281
 11
-244.566
 20
56.085
 21
57.023
  0
LINE
  8
0
 10
-244.566
 11
-245.028
 20
57.023
 21
57.888
  0
LINE
  8
0
 10
-245.028
 11
-245.649
 20
57.888
 21
58.646
  0
LINE
  8
0
 10
-245.649
 11
-246.407
 20
58.646
 21
59.267
  0
LINE
  8
0
 10
-246.407
 11
-247.272
 20
59.267
 21
59.729
  0
LINE
  8
0
 10
-247.272
 11
-248.21
 20
59.729
 21
60.014
  0
LINE
  8
0
 10
-248.21
 11
-249.185
 20
60.014
 21
60.11
  0
LINE
  8
0
 10
-249.185
 11
-250.16
 20
60.11
 21
60.014
  0
LINE
  8
0
 10
-250.16
 11
-251.098
 20
60.014
 21
59.729
  0
LINE
  8
0
 10
-251.098
 11
-251.963
 20
59.729
 21
59.267
  0
LINE
  8
0
 10
-251.963
 11
-252.721
 20
59.267
 21
58.646
  0
LINE
  8
0
 10
-252.721
 11
-253.342
 20
58.646
 21
57.888
  0
LINE
  8
0
 10
-253.342
 11
-253.804
 20
57.888
 21
57.023
  0
LINE
  8
0
 10
-253.804
 11
-254.089
 20
57.023
 21
56.085
  0
LINE
  8
0
 10
-254.089
 11
-254.185
 20
56.085
 21
55.11
  0
LINE
  8
0
 10
-254.185
 11
-254.185
 20
55.11
 21
47.721
  0
LINE
  8
0
 10
-254.185
 11
-254.249
 20
47.721
 21
47.756
  0
LINE
  8
0
 10
-254.249
 11
-255.589
 20
47.756
 21
48.856
  0
LINE
  8
0
 10
-255.589
 11
-256.689
 20
48.856
 21
50.196
  0
LINE
  8
0
 10
-256.689
 11
-257.507
 20
50.196
 21
51.725
  0
LINE
  8
0
 10
-257.507
 11
-258.01
 20
51.725
 21
53.384
  0
LINE
  8
0
 10
-258.01
 11
-258.18
 20
53.384
 21
55.11
  0
LINE
  8
0
 10
-244.185
 11
-244.185
 20
-60.881
 21
-10.521
  0
LINE
  8
0
 10
-244.185
 11
-194.085
 20
-10.521
 21
-10.729
  0
LINE
  8
0
 10
-194.085
 11
-194.085
 20
-10.729
 21
-61.089
  0
LINE
  8
0
 10
-194.085
 11
-244.185
 20
-61.089
 21
-60.881
  0
LINE
  8
0
 10
-175.565
 11
-175.234
 20
-5.89
 21
-2.529
  0
LINE
  8
0
 10
-175.234
 11
-174.253
 20
-2.529
 21
0.704
  0
LINE
  8
0
 10
-174.253
 11
-172.661
 20
0.704
 21
3.682
  0
LINE
  8
0
 10
-172.661
 11
-170.518
 20
3.682
 21
6.293
  0
LINE
  8
0
 10
-170.518
 11
-167.907
 20
6.293
 21
8.436
  0
LINE
  8
0
 10
-167.907
 11
-164.929
 20
8.436
 21
10.028
  0
LINE
  8
0
 10
-164.929
 11
-161.696
 20
10.028
 21
11.009
  0
LINE
  8
0
 10
-161.696
 11
-158.335
 20
11.009
 21
11.34
  0
LINE
  8
0
 10
-158.335
 11
-154.974
 20
11.34
 21
11.009
  0
LINE
  8
0
 10
-154.974
 11
-151.741
 20
11.009
 21
10.028
  0
LINE
  8
0
 10
-151.741
 11
-148.763
 20
10.028
 21
8.436
  0
LINE
  8
0
 10
-148.763
 11
-146.152
 20
8.436
 21
6.293
  0
LINE
  8
0
 10
-146.152
 11
-144.009
 20
6.293
 21
3.682
  0
LINE
  8
0
 10
-144.009
 11
-142.417
 20
3.682
 21
0.704
  0
LINE
  8
0
 10
-142.417
 11
-141.933
 20
0.704
 21
-0.89
  0
LINE
  8
0
 10
-141.933
 11
-98.585
 20
-0.89
 21
-0.89
  0
LINE
  8
0
 10
-98.585
 11
-97.61
 20
-0.89
 21
-0.986
  0
LINE
  8
0
 10
-97.61
 11
-96.672
 20
-0.986
 21
-1.271
  0
LINE
  8
0
 10
-96.672
 11
-95.807
 20
-1.271
 21
-1.733
  0
LINE
  8
0
 10
-95.807
 11
-95.049
 20
-1.733
 21
-2.354
  0
LINE
  8
0
 10
-95.049
 11
-94.428
 20
-2.354
 21
-3.112
  0
LINE
  8
0
 10
-94.428
 11
-93.966
 20
-3.112
 21
-3.977
  0
LINE
  8
0
 10
-93.966
 11
-93.681
 20
-3.977
 21
-4.915
  0
LINE
  8
0
 10
-93.681
 11
-93.585
 20
-4.915
 21
-5.89
  0
LINE
  8
0
 10
-93.585
 11
-93.706
 20
-5.89
 21
-34.85
  0
LINE
  8
0
 10
-93.706
 11
-93.671
 20
-34.85
 21
-34.965
  0
LINE
  8
0
 10
-93.671
 11
-93.575
 20
-34.965
 21
-35.94
  0
LINE
  8
0
 10
-93.575
 11
-93.671
 20
-35.94
 21
-36.915
  0
LINE
  8
0
 10
-93.671
 11
-93.715
 20
-36.915
 21
-37.061
  0
LINE
  8
0
 10
-93.715
 11
-93.835
 20
-37.061
 21
-65.74
  0
LINE
  8
0
 10
-93.835
 11
-93.931
 20
-65.74
 21
-66.715
  0
LINE
  8
0
 10
-93.931
 11
-94.216
 20
-66.715
 21
-67.653
  0
LINE
  8
0
 10
-94.216
 11
-94.678
 20
-67.653
 21
-68.518
  0
LINE
  8
0
 10
-94.678
 11
-95.299
 20
-68.518
 21
-69.276
  0
LINE
  8
0
 10
-95.299
 11
-96.057
 20
-69.276
 21
-69.897
  0
LINE
  8
0
 10
-96.057
 11
-96.922
 20
-69.897
 21
-70.359
  0
LINE
  8
0
 10
-96.922
 11
-97.86
 20
-70.359
 21
-70.644
  0
LINE
  8
0
 10
-97.86
 11
-98.835
 20
-70.644
 21
-70.74
  0
LINE
  8
0
 10
-98.835
 11
-158.935
 20
-70.74
 21
-70.74
  0
LINE
  8
0
 10
-158.935
 11
-159.91
 20
-70.74
 21
-70.644
  0
LINE
  8
0
 10
-159.91
 11
-160.848
 20
-70.644
 21
-70.359
  0
LINE
  8
0
 10
-160.848
 11
-161.713
 20
-70.359
 21
-69.897
  0
LINE
  8
0
 10
-161.713
 11
-162.471
 20
-69.897
 21
-69.276
  0
LINE
  8
0
 10
-162.471
 11
-163.092
 20
-69.276
 21
-68.518
  0
LINE
  8
0
 10
-163.092
 11
-163.554
 20
-68.518
 21
-67.653
  0
LINE
  8
0
 10
-163.554
 11
-163.839
 20
-67.653
 21
-66.715
  0
LINE
  8
0
 10
-163.839
 11
-163.935
 20
-66.715
 21
-65.74
  0
LINE
  8
0
 10
-163.935
 11
-164.185
 20
-65.74
 21
-35.94
  0
LINE
  8
0
 10
-164.185
 11
-164.089
 20
-35.94
 21
-34.965
  0
LINE
  8
0
 10
-164.089
 11
-163.804
 20
-34.965
 21
-34.027
  0
LINE
  8
0
 10
-163.804
 11
-163.342
 20
-34.027
 21
-33.162
  0
LINE
  8
0
 10
-163.342
 11
-162.721
 20
-33.162
 21
-32.404
  0
LINE
  8
0
 10
-162.721
 11
-161.963
 20
-32.404
 21
-31.783
  0
LINE
  8
0
 10
-161.963
 11
-161.098
 20
-31.783
 21
-31.321
  0
LINE
  8
0
 10
-161.098
 11
-160.16
 20
-31.321
 21
-31.036
  0
LINE
  8
0
 10
-160.16
 11
-159.185
 20
-31.036
 21
-30.94
  0
LINE
  8
0
 10
-159.185
 11
-103.69
 20
-30.94
 21
-30.94
  0
LINE
  8
0
 10
-103.69
 11
-103.606
 20
-30.94
 21
-10.89
  0
LINE
  8
0
 10
-103.606
 11
-141.933
 20
-10.89
 21
-10.89
  0
LINE
  8
0
 10
-141.933
 11
-142.417
 20
-10.89
 21
-12.484
  0
LINE
  8
0
 10
-142.417
 11
-144.009
 20
-12.484
 21
-15.462
  0
LINE
  8
0
 10
-144.009
 11
-146.152
 20
-15.462
 21
-18.073
  0
LINE
  8
0
 10
-146.152
 11
-148.763
 20
-18.073
 21
-20.216
  0
LINE
  8
0
 10
-148.763
 11
-151.741
 20
-20.216
 21
-21.808
  0
LINE
  8
0
 10
-151.741
 11
-154.974
 20
-21.808
 21
-22.789
  0
LINE
  8
0
 10
-154.974
 11
-158.335
 20
-22.789
 21
-23.12
  0
LINE
  8
0
 10
-158.335
 11
-161.696
 20
-23.12
 21
-22.789
  0
LINE
  8
0
 10
-161.696
 11
-164.929
 20
-22.789
 21
-21.808
  0
LINE
  8
0
 10
-164.929
 11
-167.907
 20
-21.808
 21
-20.216
  0
LINE
  8
0
 10
-167.907
 11
-170.518
 20
-20.216
 21
-18.073
  0
LINE
  8
0
 10
-170.518
 11
-172.661
 20
-18.073
 21
-15.462
  0
LINE
  8
0
 10
-172.661
 11
-174.253
 20
-15.462
 21
-12.484
  0
LINE
  8
0
 10
-174.253
 11
-175.234
 20
-12.484
 21
-9.251
  0
LINE
  8
0
 10
-175.234
 11
-175.565
 20
-9.251
 21
-5.89
  0
LINE
  8
0
 10
-167.18
 11
-167.01
 20
-5.89
 21
-4.164
  0
LINE
  8
0
 10
-167.01
 11
-166.507
 20
-4.164
 21
-2.505
  0
LINE
  8
0
 10
-166.507
 11
-165.689
 20
-2.505
 21
-0.976
  0
LINE
  8
0
 10
-165.689
 11
-164.589
 20
-0.976
 21
0.364
  0
LINE
  8
0
 10
-164.589
 11
-163.249
 20
0.364
 21
1.464
  0
LINE
  8
0
 10
-163.249
 11
-161.72
 20
1.464
 21
2.282
  0
LINE
  8
0
 10
-161.72
 11
-160.061
 20
2.282
 21
2.785
  0
LINE
  8
0
 10
-160.061
 11
-158.335
 20
2.785
 21
2.955
  0
LINE
  8
0
 10
-158.335
 11
-156.609
 20
2.955
 21
2.785
  0
LINE
  8
0
 10
-156.609
 11
-154.95
 20
2.785
 21
2.282
  0
LINE
  8
0
 10
-154.95
 11
-153.421
 20
2.282
 21
1.464
  0
LINE
  8
0
 10
-153.421
 11
-152.081
 20
1.464
 21
0.364
  0
LINE
  8
0
 10
-152.081
 11
-151.051
 20
0.364
 21
-0.89
  0
LINE
  8
0
 10
-151.051
 11
-158.185
 20
-0.89
 21
-0.89
  0
LINE
  8
0
 10
-158.185
 11
-159.16
 20
-0.89
 21
-0.986
  0
LINE
  8
0
 10
-159.16
 11
-160.098
 20
-0.986
 21
-1.271
  0
LINE
  8
0
 10
-160.098
 11
-160.963
 20
-1.271
 21
-1.733
  0
LINE
  8
0
 10
-160.963
 11
-161.721
 20
-1.733
 21
-2.354
  0
LINE
  8
0
 10
-161.721
 11
-162.342
 20
-2.354
 21
-3.112
  0
LINE
  8
0
 10
-162.342
 11
-162.804
 20
-3.112
 21
-3.977
  0
LINE
  8
0
 10
-162.804
 11
-163.089
 20
-3.977
 21
-4.915
  0
LINE
  8
0
 10
-163.089
 11
-163.185
 20
-4.915
 21
-5.89
  0
LINE
  8
0
 10
-163.185
 11
-163.089
 20
-5.89
 21
-6.865
  0
LINE
  8
0
 10
-163.089
 11
-162.804
 20
-6.865
 21
-7.803
  0
LINE
  8
0
 10
-162.804
 11
-162.342
 20
-7.803
 21
-8.668
  0
LINE
  8
0
 10
-162.342
 11
-161.721
 20
-8.668
 21
-9.426
  0
LINE
  8
0
 10
-161.721
 11
-160.963
 20
-9.426
 21
-10.047
  0
LINE
  8
0
 10
-160.963
 11
-160.098
 20
-10.047
 21
-10.509
  0
LINE
  8
0
 10
-160.098
 11
-159.16
 20
-10.509
 21
-10.794
  0
LINE
  8
0
 10
-159.16
 11
-158.185
 20
-10.794
 21
-10.89
  0
LINE
  8
0
 10
-158.185
 11
-151.051
 20
-10.89
 21
-10.89
  0
LINE
  8
0
 10
-151.051
 11
-152.081
 20
-10.89
 21
-12.144
  0
LINE
  8
0
 10
-152.081
 11
-153.421
 20
-12.144
 21
-13.244
  0
LINE
  8
0
 10
-153.421
 11
-154.95
 20
-13.244
 21
-14.062
  0
LINE
  8
0
 10
-154.95
 11
-156.609
 20
-14.062
 21
-14.565
  0
LINE
  8
0
 10
-156.609
 11
-158.335
 20
-14.565
 21
-14.735
  0
LINE
  8
0
 10
-158.335
 11
-160.061
 20
-14.735
 21
-14.565
  0
LINE
  8
0
 10
-160.061
 11
-161.72
 20
-14.565
 21
-14.062
  0
LINE
  8
0
 10
-161.72
 11
-163.249
 20
-14.062
 21
-13.244
  0
LINE
  8
0
 10
-163.249
 11
-164.589
 20
-13.244
 21
-12.144
  0
LINE
  8
0
 10
-164.589
 11
-165.689
 20
-12.144
 21
-10.804
  0
LINE
  8
0
 10
-165.689
 11
-166.507
 20
-10.804
 21
-9.275
  0
LINE
  8
0
 10
-166.507
 11
-167.01
 20
-9.275
 21
-7.616
  0
LINE
  8
0
 10
-167.01
 11
-167.18
 20
-7.616
 21
-5.89
  0
LINE
  8
0
 10
-154.143
 11
-103.731
 20
-40.94
 21
-40.94
  0
LINE
  8
0
 10
-103.731
 11
-103.814
 20
-40.94
 21
-60.74
  0
LINE
  8
0
 10
-103.814
 11
-153.977
 20
-60.74
 21
-60.74
  0
LINE
  8
0
 10
-153.977
 11
-154.143
 20
-60.74
 21
-40.94
  0
LINE
  8
0
 10
-77.68
 11
-77.51
 20
-66.09
 21
-64.364
  0
LINE
  8
0
 10
-77.51
 11
-77.007
 20
-64.364
 21
-62.705
  0
LINE
  8
0
 10
-77.007
 11
-76.189
 20
-62.705
 21
-61.176
  0
LINE
  8
0
 10
-76.189
 11
-75.089
 20
-61.176
 21
-59.836
  0
LINE
  8
0
 10
-75.089
 11
-73.749
 20
-59.836
 21
-58.736
  0
LINE
  8
0
 10
-73.749
 11
-72.22
 20
-58.736
 21
-57.918
  0
LINE
  8
0
 10
-72.22
 11
-70.561
 20
-57.918
 21
-57.415
  0
LINE
  8
0
 10
-70.561
 11
-68.835
 20
-57.415
 21
-57.245
  0
LINE
  8
0
 10
-68.835
 11
-67.109
 20
-57.245
 21
-57.415
  0
LINE
  8
0
 10
-67.109
 11
-65.45
 20
-57.415
 21
-57.918
  0
LINE
  8
0
 10
-65.45
 11
-63.921
 20
-57.918
 21
-58.736
  0
LINE
  8
0
 10
-63.921
 11
-62.581
 20
-58.736
 21
-59.836
  0
LINE
  8
0
 10
-62.581
 11
-61.481
 20
-59.836
 21
-61.176
  0
LINE
  8
0
 10
-61.481
 11
-61.446
 20
-61.176
 21
-61.24
  0
LINE
  8
0
 10
-61.446
 11
-68.795
 20
-61.24
 21
-61.24
  0
LINE
  8
0
 10
-68.795
 11
-69.77
 20
-61.24
 21
-61.336
  0
LINE
  8
0
 10
-69.77
 11
-70.708
 20
-61.336
 21
-61.621
  0
LINE
  8
0
 10
-70.708
 11
-71.573
 20
-61.621
 21
-62.083
  0
LINE
  8
0
 10
-71.573
 11
-72.331
 20
-62.083
 21
-62.704
  0
LINE
  8
0
 10
-72.331
 11
-72.952
 20
-62.704
 21
-63.462
  0
LINE
  8
0
 10
-72.952
 11
-73.414
 20
-63.462
 21
-64.327
  0
LINE
  8
0
 10
-73.414
 11
-73.699
 20
-64.327
 21
-65.265
  0
LINE
  8
0
 10
-73.699
 11
-73.795
 20
-65.265
 21
-66.24
  0
LINE
  8
0
 10
-73.795
 11
-73.699
 20
-66.24
 21
-67.215
  0
LINE
  8
0
 10
-73.699
 11
-73.414
 20
-67.215
 21
-68.153
  0
LINE
  8
0
 10
-73.414
 11
-72.952
 20
-68.153
 21
-69.018
  0
LINE
  8
0
 10
-72.952
 11
-72.331
 20
-69.018
 21
-69.776
  0
LINE
  8
0
 10
-72.331
 11
-71.573
 20
-69.776
 21
-70.397
  0
LINE
  8
0
 10
-71.573
 11
-70.708
 20
-70.397
 21
-70.859
  0
LINE
  8
0
 10
-70.708
 11
-69.77
 20
-70.859
 21
-71.144
  0
LINE
  8
0
 10
-69.77
 11
-68.795
 20
-71.144
 21
-71.24
  0
LINE
  8
0
 10
-68.795
 11
-61.674
 20
-71.24
 21
-71.24
  0
LINE
  8
0
 10
-61.674
 11
-62.581
 20
-71.24
 21
-72.344
  0
LINE
  8
0
 10
-62.581
 11
-63.921
 20
-72.344
 21
-73.444
  0
LINE
  8
0
 10
-63.921
 11
-65.45
 20
-73.444
 21
-74.262
  0
LINE
  8
0
 10
-65.45
 11
-67.109
 20
-74.262
 21
-74.765
  0
LINE
  8
0
 10
-67.109
 11
-68.835
 20
-74.765
 21
-74.935
  0
LINE
  8
0
 10
-68.835
 11
-70.561
 20
-74.935
 21
-74.765
  0
LINE
  8
0
 10
-70.561
 11
-72.22
 20
-74.765
 21
-74.262
  0
LINE
  8
0
 10
-72.22
 11
-73.749
 20
-74.262
 21
-73.444
  0
LINE
  8
0
 10
-73.749
 11
-75.089
 20
-73.444
 21
-72.344
  0
LINE
  8
0
 10
-75.089
 11
-76.189
 20
-72.344
 21
-71.004
  0
LINE
  8
0
 10
-76.189
 11
-77.007
 20
-71.004
 21
-69.475
  0
LINE
  8
0
 10
-77.007
 11
-77.51
 20
-69.475
 21
-67.816
  0
LINE
  8
0
 10
-77.51
 11
-77.68
 20
-67.816
 21
-66.09
  0
LINE
  8
0
 10
-86.065
 11
-85.734
 20
-66.09
 21
-62.729
  0
LINE
  8
0
 10
-85.734
 11
-84.753
 20
-62.729
 21
-59.496
  0
LINE
  8
0
 10
-84.753
 11
-83.161
 20
-59.496
 21
-56.518
  0
LINE
  8
0
 10
-83.161
 11
-81.018
 20
-56.518
 21
-53.907
  0
LINE
  8
0
 10
-81.018
 11
-78.407
 20
-53.907
 21
-51.764
  0
LINE
  8
0
 10
-78.407
 11
-75.429
 20
-51.764
 21
-50.172
  0
LINE
  8
0
 10
-75.429
 11
-72.196
 20
-50.172
 21
-49.191
  0
LINE
  8
0
 10
-72.196
 11
-68.835
 20
-49.191
 21
-48.86
  0
LINE
  8
0
 10
-68.835
 11
-65.474
 20
-48.86
 21
-49.191
  0
LINE
  8
0
 10
-65.474
 11
-62.241
 20
-49.191
 21
-50.172
  0
LINE
  8
0
 10
-62.241
 11
-59.263
 20
-50.172
 21
-51.764
  0
LINE
  8
0
 10
-59.263
 11
-56.652
 20
-51.764
 21
-53.907
  0
LINE
  8
0
 10
-56.652
 11
-54.509
 20
-53.907
 21
-56.518
  0
LINE
  8
0
 10
-54.509
 11
-52.917
 20
-56.518
 21
-59.496
  0
LINE
  8
0
 10
-52.917
 11
-52.388
 20
-59.496
 21
-61.24
  0
LINE
  8
0
 10
-52.388
 11
-13.945
 20
-61.24
 21
-61.24
  0
LINE
  8
0
 10
-13.945
 11
-13.945
 20
-61.24
 21
-41.19
  0
LINE
  8
0
 10
-13.945
 11
-68.795
 20
-41.19
 21
-41.19
  0
LINE
  8
0
 10
-68.795
 11
-69.77
 20
-41.19
 21
-41.094
  0
LINE
  8
0
 10
-69.77
 11
-70.708
 20
-41.094
 21
-40.809
  0
LINE
  8
0
 10
-70.708
 11
-71.573
 20
-40.809
 21
-40.347
  0
LINE
  8
0
 10
-71.573
 11
-72.331
 20
-40.347
 21
-39.726
  0
LINE
  8
0
 10
-72.331
 11
-72.952
 20
-39.726
 21
-38.968
  0
LINE
  8
0
 10
-72.952
 11
-73.414
 20
-38.968
 21
-38.103
  0
LINE
  8
0
 10
-73.414
 11
-73.699
 20
-38.103
 21
-37.165
  0
LINE
  8
0
 10
-73.699
 11
-73.795
 20
-37.165
 21
-36.19
  0
LINE
  8
0
 10
-73.795
 11
-73.795
 20
-36.19
 21
-5.89
  0
LINE
  8
0
 10
-73.795
 11
-73.699
 20
-5.89
 21
-4.915
  0
LINE
  8
0
 10
-73.699
 11
-73.414
 20
-4.915
 21
-3.977
  0
LINE
  8
0
 10
-73.414
 11
-72.952
 20
-3.977
 21
-3.112
  0
LINE
  8
0
 10
-72.952
 11
-72.331
 20
-3.112
 21
-2.354
  0
LINE
  8
0
 10
-72.331
 11
-71.573
 20
-2.354
 21
-1.733
  0
LINE
  8
0
 10
-71.573
 11
-70.708
 20
-1.733
 21
-1.271
  0
LINE
  8
0
 10
-70.708
 11
-69.77
 20
-1.271
 21
-0.986
  0
LINE
  8
0
 10
-69.77
 11
-68.795
 20
-0.986
 21
-0.89
  0
LINE
  8
0
 10
-68.795
 11
-24.237
 20
-0.89
 21
-0.89
  0
LINE
  8
0
 10
-24.237
 11
-23.753
 20
-0.89
 21
0.704
  0
LINE
  8
0
 10
-23.753
 11
-22.161
 20
0.704
 21
3.682
  0
LINE
  8
0
 10
-22.161
 11
-20.018
 20
3.682
 21
6.293
  0
LINE
  8
0
 10
-20.018
 11
-17.407
 20
6.293
 21
8.436
  0
LINE
  8
0
 10
-17.407
 11
-14.429
 20
8.436
 21
10.028
  0
LINE
  8
0
 10
-14.429
 11
-11.196
 20
10.028
 21
11.009
  0
LINE
  8
0
 10
-11.196
 11
-7.835
 20
11.009
 21
11.34
  0
LINE
  8
0
 10
-7.835
 11
-4.474
 20
11.34
 21
11.009
  0
LINE
  8
0
 10
-4.474
 11
-1.241
 20
11.009
 21
10.028
  0
LINE
  8
0
 10
-1.241
 11
1.737
 20
10.028
 21
8.436
  0
LINE
  8
0
 10
1.737
 11
4.348
 20
8.436
 21
6.293
  0
LINE
  8
0
 10
4.348
 11
6.491
 20
6.293
 21
3.682
  0
LINE
  8
0
 10
6.491
 11
8.083
 20
3.682
 21
0.704
  0
LINE
  8
0
 10
8.083
 11
9.064
 20
0.704
 21
-2.529
  0
LINE
  8
0
 10
9.064
 11
9.395
 20
-2.529
 21
-5.89
  0
LINE
  8
0
 10
9.395
 11
9.064
 20
-5.89
 21
-9.251
  0
LINE
  8
0
 10
9.064
 11
8.083
 20
-9.251
 21
-12.484
  0
LINE
  8
0
 10
8.083
 11
6.491
 20
-12.484
 21
-15.462
  0
LINE
  8
0
 10
6.491
 11
4.348
 20
-15.462
 21
-18.073
  0
LINE
  8
0
 10
4.348
 11
1.737
 20
-18.073
 21
-20.216
  0
LINE
  8
0
 10
1.737
 11
-1.241
 20
-20.216
 21
-21.808
  0
LINE
  8
0
 10
-1.241
 11
-4.474
 20
-21.808
 21
-22.789
  0
LINE
  8
0
 10
-4.474
 11
-7.835
 20
-22.789
 21
-23.12
  0
LINE
  8
0
 10
-7.835
 11
-11.196
 20
-23.12
 21
-22.789
  0
LINE
  8
0
 10
-11.196
 11
-14.429
 20
-22.789
 21
-21.808
  0
LINE
  8
0
 10
-14.429
 11
-17.407
 20
-21.808
 21
-20.216
  0
LINE
  8
0
 10
-17.407
 11
-20.018
 20
-20.216
 21
-18.073
  0
LINE
  8
0
 10
-20.018
 11
-22.161
 20
-18.073
 21
-15.462
  0
LINE
  8
0
 10
-22.161
 11
-23.753
 20
-15.462
 21
-12.484
  0
LINE
  8
0
 10
-23.753
 11
-24.237
 20
-12.484
 21
-10.89
  0
LINE
  8
0
 10
-24.237
 11
-63.795
 20
-10.89
 21
-10.89
  0
LINE
  8
0
 10
-63.795
 11
-63.795
 20
-10.89
 21
-31.19
  0
LINE
  8
0
 10
-63.795
 11
-8.945
 20
-31.19
 21
-31.19
  0
LINE
  8
0
 10
-8.945
 11
-7.97
 20
-31.19
 21
-31.286
  0
LINE
  8
0
 10
-7.97
 11
-7.032
 20
-31.286
 21
-31.571
  0
LINE
  8
0
 10
-7.032
 11
-6.167
 20
-31.571
 21
-32.033
  0
LINE
  8
0
 10
-6.167
 11
-5.409
 20
-32.033
 21
-32.654
  0
LINE
  8
0
 10
-5.409
 11
-4.788
 20
-32.654
 21
-33.412
  0
LINE
  8
0
 10
-4.788
 11
-4.326
 20
-33.412
 21
-34.277
  0
LINE
  8
0
 10
-4.326
 11
-4.041
 20
-34.277
 21
-35.215
  0
LINE
  8
0
 10
-4.041
 11
-3.945
 20
-35.215
 21
-36.19
  0
LINE
  8
0
 10
-3.945
 11
-3.945
 20
-36.19
 21
-66.24
  0
LINE
  8
0
 10
-3.945
 11
-4.041
 20
-66.24
 21
-67.215
  0
LINE
  8
0
 10
-4.041
 11
-4.326
 20
-67.215
 21
-68.153
  0
LINE
  8
0
 10
-4.326
 11
-4.788
 20
-68.153
 21
-69.018
  0
LINE
  8
0
 10
-4.788
 11
-5.409
 20
-69.018
 21
-69.776
  0
LINE
  8
0
 10
-5.409
 11
-6.167
 20
-69.776
 21
-70.397
  0
LINE
  8
0
 10
-6.167
 11
-7.032
 20
-70.397
 21
-70.859
  0
LINE
  8
0
 10
-7.032
 11
-7.97
 20
-70.859
 21
-71.144
  0
LINE
  8
0
 10
-7.97
 11
-8.945
 20
-71.144
 21
-71.24
  0
LINE
  8
0
 10
-8.945
 11
-52.479
 20
-71.24
 21
-71.24
  0
LINE
  8
0
 10
-52.479
 11
-52.917
 20
-71.24
 21
-72.684
  0
LINE
  8
0
 10
-52.917
 11
-54.509
 20
-72.684
 21
-75.662
  0
LINE
  8
0
 10
-54.509
 11
-56.652
 20
-75.662
 21
-78.273
  0
LINE
  8
0
 10
-56.652
 11
-59.263
 20
-78.273
 21
-80.416
  0
LINE
  8
0
 10
-59.263
 11
-62.241
 20
-80.416
 21
-82.008
  0
LINE
  8
0
 10
-62.241
 11
-65.474
 20
-82.008
 21
-82.989
  0
LINE
  8
0
 10
-65.474
 11
-68.835
 20
-82.989
 21
-83.32
  0
LINE
  8
0
 10
-68.835
 11
-72.196
 20
-83.32
 21
-82.989
  0
LINE
  8
0
 10
-72.196
 11
-75.429
 20
-82.989
 21
-82.008
  0
LINE
  8
0
 10
-75.429
 11
-78.407
 20
-82.008
 21
-80.416
  0
LINE
  8
0
 10
-78.407
 11
-81.018
 20
-80.416
 21
-78.273
  0
LINE
  8
0
 10
-81.018
 11
-83.161
 20
-78.273
 21
-75.662
  0
LINE
  8
0
 10
-83.161
 11
-84.753
 20
-75.662
 21
-72.684
  0
LINE
  8
0
 10
-84.753
 11
-85.734
 20
-72.684
 21
-69.451
  0
LINE
  8
0
 10
-85.734
 11
-86.065
 20
-69.451
 21
-66.09
  0
LINE
  8
0
 10
-15.119
 11
-8.185
 20
-10.89
 21
-10.89
  0
LINE
  8
0
 10
-8.185
 11
-7.21
 20
-10.89
 21
-10.794
  0
LINE
  8
0
 10
-7.21
 11
-6.272
 20
-10.794
 21
-10.509
  0
LINE
  8
0
 10
-6.272
 11
-5.407
 20
-10.509
 21
-10.047
  0
LINE
  8
0
 10
-5.407
 11
-4.649
 20
-10.047
 21
-9.426
  0
LINE
  8
0
 10
-4.649
 11
-4.028
 20
-9.426
 21
-8.668
  0
LINE
  8
0
 10
-4.028
 11
-3.566
 20
-8.668
 21
-7.803
  0
LINE
  8
0
 10
-3.566
 11
-3.281
 20
-7.803
 21
-6.865
  0
LINE
  8
0
 10
-3.281
 11
-3.185
 20
-6.865
 21
-5.89
  0
LINE
  8
0
 10
-3.185
 11
-3.281
 20
-5.89
 21
-4.915
  0
LINE
  8
0
 10
-3.281
 11
-3.566
 20
-4.915
 21
-3.977
  0
LINE
  8
0
 10
-3.566
 11
-4.028
 20
-3.977
 21
-3.112
  0
LINE
  8
0
 10
-4.028
 11
-4.649
 20
-3.112
 21
-2.354
  0
LINE
  8
0
 10
-4.649
 11
-5.407
 20
-2.354
 21
-1.733
  0
LINE
  8
0
 10
-5.407
 11
-6.272
 20
-1.733
 21
-1.271
  0
LINE
  8
0
 10
-6.272
 11
-7.21
 20
-1.271
 21
-0.986
  0
LINE
  8
0
 10
-7.21
 11
-8.185
 20
-0.986
 21
-0.89
  0
LINE
  8
0
 10
-8.185
 11
-15.119
 20
-0.89
 21
-0.89
  0
LINE
  8
0
 10
-15.119
 11
-14.089
 20
-0.89
 21
0.364
  0
LINE
  8
0
 10
-14.089
 11
-12.749
 20
0.364
 21
1.464
  0
LINE
  8
0
 10
-12.749
 11
-11.22
 20
1.464
 21
2.282
  0
LINE
  8
0
 10
-11.22
 11
-9.561
 20
2.282
 21
2.785
  0
LINE
  8
0
 10
-9.561
 11
-7.835
 20
2.785
 21
2.955
  0
LINE
  8
0
 10
-7.835
 11
-6.109
 20
2.955
 21
2.785
  0
LINE
  8
0
 10
-6.109
 11
-4.45
 20
2.785
 21
2.282
  0
LINE
  8
0
 10
-4.45
 11
-2.921
 20
2.282
 21
1.464
  0
LINE
  8
0
 10
-2.921
 11
-1.581
 20
1.464
 21
0.364
  0
LINE
  8
0
 10
-1.581
 11
-0.481
 20
0.364
 21
-0.976
  0
LINE
  8
0
 10
-0.481
 11
0.337
 20
-0.976
 21
-2.505
  0
LINE
  8
0
 10
0.337
 11
0.84
 20
-2.505
 21
-4.164
  0
LINE
  8
0
 10
0.84
 11
1.01
 20
-4.164
 21
-5.89
  0
LINE
  8
0
 10
1.01
 11
0.84
 20
-5.89
 21
-7.616
  0
LINE
  8
0
 10
0.84
 11
0.337
 20
-7.616
 21
-9.275
  0
LINE
  8
0
 10
0.337
 11
-0.481
 20
-9.275
 21
-10.804
  0
LINE
  8
0
 10
-0.481
 11
-1.581
 20
-10.804
 21
-12.144
  0
LINE
  8
0
 10
-1.581
 11
-2.921
 20
-12.144
 21
-13.244
  0
LINE
  8
0
 10
-2.921
 11
-4.45
 20
-13.244
 21
-14.062
  0
LINE
  8
0
 10
-4.45
 11
-6.109
 20
-14.062
 21
-14.565
  0
LINE
  8
0
 10
-6.109
 11
-7.835
 20
-14.565
 21
-14.735
  0
LINE
  8
0
 10
-7.835
 11
-9.561
 20
-14.735
 21
-14.565
  0
LINE
  8
0
 10
-9.561
 11
-11.22
 20
-14.565
 21
-14.062
  0
LINE
  8
0
 10
-11.22
 11
-12.749
 20
-14.062
 21
-13.244
  0
LINE
  8
0
 10
-12.749
 11
-14.089
 20
-13.244
 21
-12.144
  0
LINE
  8
0
 10
-14.089
 11
-15.119
 20
-12.144
 21
-10.89
  0
LINE
  8
0
 10
15.715
 11
15.715
 20
-65.89
 21
-5.53
  0
LINE
  8
0
 10
15.715
 11
15.811
 20
-5.53
 21
-4.555
  0
LINE
  8
0
 10
15.811
 11
16.096
 20
-4.555
 21
-3.617
  0
LINE
  8
0
 10
16.096
 11
16.558
 20
-3.617
 21
-2.752
  0
LINE
  8
0
 10
16.558
 11
17.179
 20
-2.752
 21
-1.994
  0
LINE
  8
0
 10
17.179
 11
17.937
 20
-1.994
 21
-1.373
  0
LINE
  8
0
 10
17.937
 11
18.802
 20
-1.373
 21
-0.911
  0
LINE
  8
0
 10
18.802
 11
19.74
 20
-0.911
 21
-0.626
  0
LINE
  8
0
 10
19.74
 11
20.715
 20
-0.626
 21
-0.53
  0
LINE
  8
0
 10
20.715
 11
80.815
 20
-0.53
 21
-0.53
  0
LINE
  8
0
 10
80.815
 11
81.79
 20
-0.53
 21
-0.626
  0
LINE
  8
0
 10
81.79
 11
82.728
 20
-0.626
 21
-0.911
  0
LINE
  8
0
 10
82.728
 11
83.593
 20
-0.911
 21
-1.373
  0
LINE
  8
0
 10
83.593
 11
84.351
 20
-1.373
 21
-1.994
  0
LINE
  8
0
 10
84.351
 11
84.972
 20
-1.994
 21
-2.752
  0
LINE
  8
0
 10
84.972
 11
85.434
 20
-2.752
 21
-3.617
  0
LINE
  8
0
 10
85.434
 11
85.719
 20
-3.617
 21
-4.555
  0
LINE
  8
0
 10
85.719
 11
85.815
 20
-4.555
 21
-5.53
  0
LINE
  8
0
 10
85.815
 11
85.815
 20
-5.53
 21
-35.58
  0
LINE
  8
0
 10
85.815
 11
85.719
 20
-35.58
 21
-36.555
  0
LINE
  8
0
 10
85.719
 11
85.434
 20
-36.555
 21
-37.493
  0
LINE
  8
0
 10
85.434
 11
84.972
 20
-37.493
 21
-38.358
  0
LINE
  8
0
 10
84.972
 11
84.351
 20
-38.358
 21
-39.116
  0
LINE
  8
0
 10
84.351
 11
83.593
 20
-39.116
 21
-39.737
  0
LINE
  8
0
 10
83.593
 11
82.728
 20
-39.737
 21
-40.199
  0
LINE
  8
0
 10
82.728
 11
81.79
 20
-40.199
 21
-40.484
  0
LINE
  8
0
 10
81.79
 11
80.815
 20
-40.484
 21
-40.58
  0
LINE
  8
0
 10
80.815
 11
25.715
 20
-40.58
 21
-40.58
  0
LINE
  8
0
 10
25.715
 11
25.715
 20
-40.58
 21
-60.89
  0
LINE
  8
0
 10
25.715
 11
64.763
 20
-60.89
 21
-60.89
  0
LINE
  8
0
 10
64.763
 11
65.247
 20
-60.89
 21
-59.296
  0
LINE
  8
0
 10
65.247
 11
66.839
 20
-59.296
 21
-56.318
  0
LINE
  8
0
 10
66.839
 11
68.982
 20
-56.318
 21
-53.707
  0
LINE
  8
0
 10
68.982
 11
71.593
 20
-53.707
 21
-51.564
  0
LINE
  8
0
 10
71.593
 11
74.571
 20
-51.564
 21
-49.972
  0
LINE
  8
0
 10
74.571
 11
77.804
 20
-49.972
 21
-48.991
  0
LINE
  8
0
 10
77.804
 11
81.165
 20
-48.991
 21
-48.66
  0
LINE
  8
0
 10
81.165
 11
84.526
 20
-48.66
 21
-48.991
  0
LINE
  8
0
 10
84.526
 11
87.759
 20
-48.991
 21
-49.972
  0
LINE
  8
0
 10
87.759
 11
90.737
 20
-49.972
 21
-51.564
  0
LINE
  8
0
 10
90.737
 11
93.348
 20
-51.564
 21
-53.707
  0
LINE
  8
0
 10
93.348
 11
95.491
 20
-53.707
 21
-56.318
  0
LINE
  8
0
 10
95.491
 11
97.083
 20
-56.318
 21
-59.296
  0
LINE
  8
0
 10
97.083
 11
98.064
 20
-59.296
 21
-62.529
  0
LINE
  8
0
 10
98.064
 11
98.395
 20
-62.529
 21
-65.89
  0
LINE
  8
0
 10
98.395
 11
98.064
 20
-65.89
 21
-69.251
  0
LINE
  8
0
 10
98.064
 11
97.083
 20
-69.251
 21
-72.484
  0
LINE
  8
0
 10
97.083
 11
95.491
 20
-72.484
 21
-75.462
  0
LINE
  8
0
 10
95.491
 11
93.348
 20
-75.462
 21
-78.073
  0
LINE
  8
0
 10
93.348
 11
90.737
 20
-78.073
 21
-80.216
  0
LINE
  8
0
 10
90.737
 11
87.759
 20
-80.216
 21
-81.808
  0
LINE
  8
0
 10
87.759
 11
84.526
 20
-81.808
 21
-82.789
  0
LINE
  8
0
 10
84.526
 11
81.165
 20
-82.789
 21
-83.12
  0
LINE
  8
0
 10
81.165
 11
77.804
 20
-83.12
 21
-82.789
  0
LINE
  8
0
 10
77.804
 11
74.571
 20
-82.789
 21
-81.808
  0
LINE
  8
0
 10
74.571
 11
71.593
 20
-81.808
 21
-80.216
  0
LINE
  8
0
 10
71.593
 11
68.982
 20
-80.216
 21
-78.073
  0
LINE
  8
0
 10
68.982
 11
66.839
 20
-78.073
 21
-75.462
  0
LINE
  8
0
 10
66.839
 11
65.247
 20
-75.462
 21
-72.484
  0
LINE
  8
0
 10
65.247
 11
64.763
 20
-72.484
 21
-70.89
  0
LINE
  8
0
 10
64.763
 11
20.715
 20
-70.89
 21
-70.89
  0
LINE
  8
0
 10
20.715
 11
19.74
 20
-70.89
 21
-70.794
  0
LINE
  8
0
 10
19.74
 11
18.802
 20
-70.794
 21
-70.509
  0
LINE
  8
0
 10
18.802
 11
17.937
 20
-70.509
 21
-70.047
  0
LINE
  8
0
 10
17.937
 11
17.179
 20
-70.047
 21
-69.426
  0
LINE
  8
0
 10
17.179
 11
16.558
 20
-69.426
 21
-68.668
  0
LINE
  8
0
 10
16.558
 11
16.096
 20
-68.668
 21
-67.803
  0
LINE
  8
0
 10
16.096
 11
15.811
 20
-67.803
 21
-66.865
  0
LINE
  8
0
 10
15.811
 11
15.715
 20
-66.865
 21
-65.89
  0
LINE
  8
0
 10
25.715
 11
25.715
 20
-30.58
 21
-10.53
  0
LINE
  8
0
 10
25.715
 11
75.815
 20
-10.53
 21
-10.53
  0
LINE
  8
0
 10
75.815
 11
75.815
 20
-10.53
 21
-30.58
  0
LINE
  8
0
 10
75.815
 11
25.715
 20
-30.58
 21
-30.58
  0
LINE
  8
0
 10
73.881
 11
80.815
 20
-70.89
 21
-70.89
  0
LINE
  8
0
 10
80.815
 11
81.79
 20
-70.89
 21
-70.794
  0
LINE
  8
0
 10
81.79
 11
82.728
 20
-70.794
 21
-70.509
  0
LINE
  8
0
 10
82.728
 11
83.593
 20
-70.509
 21
-70.047
  0
LINE
  8
0
 10
83.593
 11
84.351
 20
-70.047
 21
-69.426
  0
LINE
  8
0
 10
84.351
 11
84.972
 20
-69.426
 21
-68.668
  0
LINE
  8
0
 10
84.972
 11
85.434
 20
-68.668
 21
-67.803
  0
LINE
  8
0
 10
85.434
 11
85.719
 20
-67.803
 21
-66.865
  0
LINE
  8
0
 10
85.719
 11
85.815
 20
-66.865
 21
-65.89
  0
LINE
  8
0
 10
85.815
 11
85.719
 20
-65.89
 21
-64.915
  0
LINE
  8
0
 10
85.719
 11
85.434
 20
-64.915
 21
-63.977
  0
LINE
  8
0
 10
85.434
 11
84.972
 20
-63.977
 21
-63.112
  0
LINE
  8
0
 10
84.972
 11
84.351
 20
-63.112
 21
-62.354
  0
LINE
  8
0
 10
84.351
 11
83.593
 20
-62.354
 21
-61.733
  0
LINE
  8
0
 10
83.593
 11
82.728
 20
-61.733
 21
-61.271
  0
LINE
  8
0
 10
82.728
 11
81.79
 20
-61.271
 21
-60.986
  0
LINE
  8
0
 10
81.79
 11
80.815
 20
-60.986
 21
-60.89
  0
LINE
  8
0
 10
80.815
 11
73.881
 20
-60.89
 21
-60.89
  0
LINE
  8
0
 10
73.881
 11
74.911
 20
-60.89
 21
-59.636
  0
LINE
  8
0
 10
74.911
 11
76.251
 20
-59.636
 21
-58.536
  0
LINE
  8
0
 10
76.251
 11
77.78
 20
-58.536
 21
-57.718
  0
LINE
  8
0
 10
77.78
 11
79.439
 20
-57.718
 21
-57.215
  0
LINE
  8
0
 10
79.439
 11
81.165
 20
-57.215
 21
-57.045
  0
LINE
  8
0
 10
81.165
 11
82.891
 20
-57.045
 21
-57.215
  0
LINE
  8
0
 10
82.891
 11
84.55
 20
-57.215
 21
-57.718
  0
LINE
  8
0
 10
84.55
 11
86.079
 20
-57.718
 21
-58.536
  0
LINE
  8
0
 10
86.079
 11
87.419
 20
-58.536
 21
-59.636
  0
LINE
  8
0
 10
87.419
 11
88.519
 20
-59.636
 21
-60.976
  0
LINE
  8
0
 10
88.519
 11
89.337
 20
-60.976
 21
-62.505
  0
LINE
  8
0
 10
89.337
 11
89.84
 20
-62.505
 21
-64.164
  0
LINE
  8
0
 10
89.84
 11
90.01
 20
-64.164
 21
-65.89
  0
LINE
  8
0
 10
90.01
 11
89.84
 20
-65.89
 21
-67.616
  0
LINE
  8
0
 10
89.84
 11
89.337
 20
-67.616
 21
-69.275
  0
LINE
  8
0
 10
89.337
 11
88.519
 20
-69.275
 21
-70.804
  0
LINE
  8
0
 10
88.519
 11
87.419
 20
-70.804
 21
-72.144
  0
LINE
  8
0
 10
87.419
 11
86.079
 20
-72.144
 21
-73.244
  0
LINE
  8
0
 10
86.079
 11
84.55
 20
-73.244
 21
-74.062
  0
LINE
  8
0
 10
84.55
 11
82.891
 20
-74.062
 21
-74.565
  0
LINE
  8
0
 10
82.891
 11
81.165
 20
-74.565
 21
-74.735
  0
LINE
  8
0
 10
81.165
 11
79.439
 20
-74.735
 21
-74.565
  0
LINE
  8
0
 10
79.439
 11
77.78
 20
-74.565
 21
-74.062
  0
LINE
  8
0
 10
77.78
 11
76.251
 20
-74.062
 21
-73.244
  0
LINE
  8
0
 10
76.251
 11
74.911
 20
-73.244
 21
-72.144
  0
LINE
  8
0
 10
74.911
 11
73.881
 20
-72.144
 21
-70.89
  0
LINE
  8
0
 10
93.935
 11
94.266
 20
55.11
 21
58.471
  0
LINE
  8
0
 10
94.266
 11
95.247
 20
58.471
 21
61.704
  0
LINE
  8
0
 10
95.247
 11
96.839
 20
61.704
 21
64.682
  0
LINE
  8
0
 10
96.839
 11
98.982
 20
64.682
 21
67.293
  0
LINE
  8
0
 10
98.982
 11
101.593
 20
67.293
 21
69.436
  0
LINE
  8
0
 10
101.593
 11
104.571
 20
69.436
 21
71.028
  0
LINE
  8
0
 10
104.571
 11
107.804
 20
71.028
 21
72.009
  0
LINE
  8
0
 10
107.804
 11
111.165
 20
72.009
 21
72.34
  0
LINE
  8
0
 10
111.165
 11
114.526
 20
72.34
 21
72.009
  0
LINE
  8
0
 10
114.526
 11
117.759
 20
72.009
 21
71.028
  0
LINE
  8
0
 10
117.759
 11
120.737
 20
71.028
 21
69.436
  0
LINE
  8
0
 10
120.737
 11
123.348
 20
69.436
 21
67.293
  0
LINE
  8
0
 10
123.348
 11
125.491
 20
67.293
 21
64.682
  0
LINE
  8
0
 10
125.491
 11
127.083
 20
64.682
 21
61.704
  0
LINE
  8
0
 10
127.083
 11
128.064
 20
61.704
 21
58.471
  0
LINE
  8
0
 10
128.064
 11
128.395
 20
58.471
 21
55.11
  0
LINE
  8
0
 10
128.395
 11
128.064
 20
55.11
 21
51.749
  0
LINE
  8
0
 10
128.064
 11
127.083
 20
51.749
 21
48.516
  0
LINE
  8
0
 10
127.083
 11
125.491
 20
48.516
 21
45.538
  0
LINE
  8
0
 10
125.491
 11
123.348
 20
45.538
 21
42.927
  0
LINE
  8
0
 10
123.348
 11
120.737
 20
42.927
 21
40.784
  0
LINE
  8
0
 10
120.737
 11
117.759
 20
40.784
 21
39.192
  0
LINE
  8
0
 10
117.759
 11
116.315
 20
39.192
 21
38.754
  0
LINE
  8
0
 10
116.315
 11
116.315
 20
38.754
 21
-0.25
  0
LINE
  8
0
 10
116.315
 11
166.165
 20
-0.25
 21
-0.25
  0
LINE
  8
0
 10
166.165
 11
166.165
 20
-0.25
 21
38.708
  0
LINE
  8
0
 10
166.165
 11
164.571
 20
38.708
 21
39.192
  0
LINE
  8
0
 10
164.571
 11
161.593
 20
39.192
 21
40.784
  0
LINE
  8
0
 10
161.593
 11
158.982
 20
40.784
 21
42.927
  0
LINE
  8
0
 10
158.982
 11
156.839
 20
42.927
 21
45.538
  0
LINE
  8
0
 10
156.839
 11
155.247
 20
45.538
 21
48.516
  0
LINE
  8
0
 10
155.247
 11
154.266
 20
48.516
 21
51.749
  0
LINE
  8
0
 10
154.266
 11
153.935
 20
51.749
 21
55.11
  0
LINE
  8
0
 10
153.935
 11
154.266
 20
55.11
 21
58.471
  0
LINE
  8
0
 10
154.266
 11
155.247
 20
58.471
 21
61.704
  0
LINE
  8
0
 10
155.247
 11
156.839
 20
61.704
 21
64.682
  0
LINE
  8
0
 10
156.839
 11
158.982
 20
64.682
 21
67.293
  0
LINE
  8
0
 10
158.982
 11
161.593
 20
67.293
 21
69.436
  0
LINE
  8
0
 10
161.593
 11
164.571
 20
69.436
 21
71.028
  0
LINE
  8
0
 10
164.571
 11
167.804
 20
71.028
 21
72.009
  0
LINE
  8
0
 10
167.804
 11
171.165
 20
72.009
 21
72.34
  0
LINE
  8
0
 10
171.165
 11
174.526
 20
72.34
 21
72.009
  0
LINE
  8
0
 10
174.526
 11
177.759
 20
72.009
 21
71.028
  0
LINE
  8
0
 10
177.759
 11
180.737
 20
71.028
 21
69.436
  0
LINE
  8
0
 10
180.737
 11
183.348
 20
69.436
 21
67.293
  0
LINE
  8
0
 10
183.348
 11
185.491
 20
67.293
 21
64.682
  0
LINE
  8
0
 10
185.491
 11
187.083
 20
64.682
 21
61.704
  0
LINE
  8
0
 10
187.083
 11
188.064
 20
61.704
 21
58.471
  0
LINE
  8
0
 10
188.064
 11
188.395
 20
58.471
 21
55.11
  0
LINE
  8
0
 10
188.395
 11
188.064
 20
55.11
 21
51.749
  0
LINE
  8
0
 10
188.064
 11
187.083
 20
51.749
 21
48.516
  0
LINE
  8
0
 10
187.083
 11
185.491
 20
48.516
 21
45.538
  0
LINE
  8
0
 10
185.491
 11
183.348
 20
45.538
 21
42.927
  0
LINE
  8
0
 10
183.348
 11
180.737
 20
42.927
 21
40.784
  0
LINE
  8
0
 10
180.737
 11
177.759
 20
40.784
 21
39.192
  0
LINE
  8
0
 10
177.759
 11
176.165
 20
39.192
 21
38.708
  0
LINE
  8
0
 10
176.165
 11
176.165
 20
38.708
 21
-49.488
  0
LINE
  8
0
 10
176.165
 11
177.759
 20
-49.488
 21
-49.972
  0
LINE
  8
0
 10
177.759
 11
180.737
 20
-49.972
 21
-51.564
  0
LINE
  8
0
 10
180.737
 11
183.348
 20
-51.564
 21
-53.707
  0
LINE
  8
0
 10
183.348
 11
185.491
 20
-53.707
 21
-56.318
  0
LINE
  8
0
 10
185.491
 11
187.083
 20
-56.318
 21
-59.296
  0
LINE
  8
0
 10
187.083
 11
188.064
 20
-59.296
 21
-62.529
  0
LINE
  8
0
 10
188.064
 11
188.395
 20
-62.529
 21
-65.89
  0
LINE
  8
0
 10
188.395
 11
188.064
 20
-65.89
 21
-69.251
  0
LINE
  8
0
 10
188.064
 11
187.083
 20
-69.251
 21
-72.484
  0
LINE
  8
0
 10
187.083
 11
185.491
 20
-72.484
 21
-75.462
  0
LINE
  8
0
 10
185.491
 11
183.348
 20
-75.462
 21
-78.073
  0
LINE
  8
0
 10
183.348
 11
180.737
 20
-78.073
 21
-80.216
  0
LINE
  8
0
 10
180.737
 11
177.759
 20
-80.216
 21
-81.808
  0
LINE
  8
0
 10
177.759
 11
174.526
 20
-81.808
 21
-82.789
  0
LINE
  8
0
 10
174.526
 11
171.165
 20
-82.789
 21
-83.12
  0
LINE
  8
0
 10
171.165
 11
167.804
 20
-83.12
 21
-82.789
  0
LINE
  8
0
 10
167.804
 11
164.571
 20
-82.789
 21
-81.808
  0
LINE
  8
0
 10
164.571
 11
161.593
 20
-81.808
 21
-80.216
  0
LINE
  8
0
 10
161.593
 11
158.982
 20
-80.216
 21
-78.073
  0
LINE
  8
0
 10
158.982
 11
156.839
 20
-78.073
 21
-75.462
  0
LINE
  8
0
 10
156.839
 11
155.247
 20
-75.462
 21
-72.484
  0
LINE
  8
0
 10
155.247
 11
154.266
 20
-72.484
 21
-69.251
  0
LINE
  8
0
 10
154.266
 11
153.935
 20
-69.251
 21
-65.89
  0
LINE
  8
0
 10
153.935
 11
154.266
 20
-65.89
 21
-62.529
  0
LINE
  8
0
 10
154.266
 11
155.247
 20
-62.529
 21
-59.296
  0
LINE
  8
0
 10
155.247
 11
156.839
 20
-59.296
 21
-56.318
  0
LINE
  8
0
 10
156.839
 11
158.982
 20
-56.318
 21
-53.707
  0
LINE
  8
0
 10
158.982
 11
161.593
 20
-53.707
 21
-51.564
  0
LINE
  8
0
 10
161.593
 11
164.571
 20
-51.564
 21
-49.972
  0
LINE
  8
0
 10
164.571
 11
166.165
 20
-49.972
 21
-49.488
  0
LINE
  8
0
 10
166.165
 11
166.165
 20
-49.488
 21
-10.25
  0
LINE
  8
0
 10
166.165
 11
111.315
 20
-10.25
 21
-10.25
  0
LINE
  8
0
 10
111.315
 11
110.34
 20
-10.25
 21
-10.154
  0
LINE
  8
0
 10
110.34
 11
109.402
 20
-10.154
 21
-9.869
  0
LINE
  8
0
 10
109.402
 11
108.537
 20
-9.869
 21
-9.407
  0
LINE
  8
0
 10
108.537
 11
107.779
 20
-9.407
 21
-8.786
  0
LINE
  8
0
 10
107.779
 11
107.158
 20
-8.786
 21
-8.028
  0
LINE
  8
0
 10
107.158
 11
106.696
 20
-8.028
 21
-7.163
  0
LINE
  8
0
 10
106.696
 11
106.411
 20
-7.163
 21
-6.225
  0
LINE
  8
0
 10
106.411
 11
106.315
 20
-6.225
 21
-5.25
  0
LINE
  8
0
 10
106.315
 11
106.315
 20
-5.25
 21
38.663
  0
LINE
  8
0
 10
106.315
 11
104.571
 20
38.663
 21
39.192
  0
LINE
  8
0
 10
104.571
 11
101.593
 20
39.192
 21
40.784
  0
LINE
  8
0
 10
101.593
 11
98.982
 20
40.784
 21
42.927
  0
LINE
  8
0
 10
98.982
 11
96.839
 20
42.927
 21
45.538
  0
LINE
  8
0
 10
96.839
 11
95.247
 20
45.538
 21
48.516
  0
LINE
  8
0
 10
95.247
 11
94.266
 20
48.516
 21
51.749
  0
LINE
  8
0
 10
94.266
 11
93.935
 20
51.749
 21
55.11
  0
LINE
  8
0
 10
102.32
 11
102.49
 20
55.11
 21
56.836
  0
LINE
  8
0
 10
102.49
 11
102.993
 20
56.836
 21
58.495
  0
LINE
  8
0
 10
102.993
 11
103.811
 20
58.495
 21
60.024
  0
LINE
  8
0
 10
103.811
 11
104.911
 20
60.024
 21
61.364
  0
LINE
  8
0
 10
104.911
 11
106.251
 20
61.364
 21
62.464
  0
LINE
  8
0
 10
106.251
 11
107.78
 20
62.464
 21
63.282
  0
LINE
  8
0
 10
107.78
 11
109.439
 20
63.282
 21
63.785
  0
LINE
  8
0
 10
109.439
 11
111.165
 20
63.785
 21
63.955
  0
LINE
  8
0
 10
111.165
 11
112.891
 20
63.955
 21
63.785
  0
LINE
  8
0
 10
112.891
 11
114.55
 20
63.785
 21
63.282
  0
LINE
  8
0
 10
114.55
 11
116.079
 20
63.282
 21
62.464
  0
LINE
  8
0
 10
116.079
 11
117.419
 20
62.464
 21
61.364
  0
LINE
  8
0
 10
117.419
 11
118.519
 20
61.364
 21
60.024
  0
LINE
  8
0
 10
118.519
 11
119.337
 20
60.024
 21
58.495
  0
LINE
  8
0
 10
119.337
 11
119.84
 20
58.495
 21
56.836
  0
LINE
  8
0
 10
119.84
 11
120.01
 20
56.836
 21
55.11
  0
LINE
  8
0
 10
120.01
 11
119.84
 20
55.11
 21
53.384
  0
LINE
  8
0
 10
119.84
 11
119.337
 20
53.384
 21
51.725
  0
LINE
  8
0
 10
119.337
 11
118.519
 20
51.725
 21
50.196
  0
LINE
  8
0
 10
118.519
 11
117.419
 20
50.196
 21
48.856
  0
LINE
  8
0
 10
117.419
 11
116.315
 20
48.856
 21
47.949
  0
LINE
  8
0
 10
116.315
 11
116.315
 20
47.949
 21
55.11
  0
LINE
  8
0
 10
116.315
 11
116.219
 20
55.11
 21
56.085
  0
LINE
  8
0
 10
116.219
 11
115.934
 20
56.085
 21
57.023
  0
LINE
  8
0
 10
115.934
 11
115.472
 20
57.023
 21
57.888
  0
LINE
  8
0
 10
115.472
 11
114.851
 20
57.888
 21
58.646
  0
LINE
  8
0
 10
114.851
 11
114.093
 20
58.646
 21
59.267
  0
LINE
  8
0
 10
114.093
 11
113.228
 20
59.267
 21
59.729
  0
LINE
  8
0
 10
113.228
 11
112.29
 20
59.729
 21
60.014
  0
LINE
  8
0
 10
112.29
 11
111.315
 20
60.014
 21
60.11
  0
LINE
  8
0
 10
111.315
 11
110.34
 20
60.11
 21
60.014
  0
LINE
  8
0
 10
110.34
 11
109.402
 20
60.014
 21
59.729
  0
LINE
  8
0
 10
109.402
 11
108.537
 20
59.729
 21
59.267
  0
LINE
  8
0
 10
108.537
 11
107.779
 20
59.267
 21
58.646
  0
LINE
  8
0
 10
107.779
 11
107.158
 20
58.646
 21
57.888
  0
LINE
  8
0
 10
107.158
 11
106.696
 20
57.888
 21
57.023
  0
LINE
  8
0
 10
106.696
 11
106.411
 20
57.023
 21
56.085
  0
LINE
  8
0
 10
106.411
 11
106.315
 20
56.085
 21
55.11
  0
LINE
  8
0
 10
106.315
 11
106.315
 20
55.11
 21
47.721
  0
LINE
  8
0
 10
106.315
 11
106.251
 20
47.721
 21
47.756
  0
LINE
  8
0
 10
106.251
 11
104.911
 20
47.756
 21
48.856
  0
LINE
  8
0
 10
104.911
 11
103.811
 20
48.856
 21
50.196
  0
LINE
  8
0
 10
103.811
 11
102.993
 20
50.196
 21
51.725
  0
LINE
  8
0
 10
102.993
 11
102.49
 20
51.725
 21
53.384
  0
LINE
  8
0
 10
102.49
 11
102.32
 20
53.384
 21
55.11
  0
LINE
  8
0
 10
162.32
 11
162.49
 20
-65.89
 21
-64.164
  0
LINE
  8
0
 10
162.49
 11
162.993
 20
-64.164
 21
-62.505
  0
LINE
  8
0
 10
162.993
 11
163.811
 20
-62.505
 21
-60.976
  0
LINE
  8
0
 10
163.811
 11
164.911
 20
-60.976
 21
-59.636
  0
LINE
  8
0
 10
164.911
 11
166.165
 20
-59.636
 21
-58.606
  0
LINE
  8
0
 10
166.165
 11
166.165
 20
-58.606
 21
-65.86
  0
LINE
  8
0
 10
166.165
 11
166.261
 20
-65.86
 21
-66.835
  0
LINE
  8
0
 10
166.261
 11
166.546
 20
-66.835
 21
-67.773
  0
LINE
  8
0
 10
166.546
 11
167.008
 20
-67.773
 21
-68.638
  0
LINE
  8
0
 10
167.008
 11
167.629
 20
-68.638
 21
-69.396
  0
LINE
  8
0
 10
167.629
 11
168.387
 20
-69.396
 21
-70.017
  0
LINE
  8
0
 10
168.387
 11
169.252
 20
-70.017
 21
-70.479
  0
LINE
  8
0
 10
169.252
 11
170.19
 20
-70.479
 21
-70.764
  0
LINE
  8
0
 10
170.19
 11
171.165
 20
-70.764
 21
-70.86
  0
LINE
  8
0
 10
171.165
 11
172.14
 20
-70.86
 21
-70.764
  0
LINE
  8
0
 10
172.14
 11
173.078
 20
-70.764
 21
-70.479
  0
LINE
  8
0
 10
173.078
 11
173.943
 20
-70.479
 21
-70.017
  0
LINE
  8
0
 10
173.943
 11
174.701
 20
-70.017
 21
-69.396
  0
LINE
  8
0
 10
174.701
 11
175.322
 20
-69.396
 21
-68.638
  0
LINE
  8
0
 10
175.322
 11
175.784
 20
-68.638
 21
-67.773
  0
LINE
  8
0
 10
175.784
 11
176.069
 20
-67.773
 21
-66.835
  0
LINE
  8
0
 10
176.069
 11
176.165
 20
-66.835
 21
-65.86
  0
LINE
  8
0
 10
176.165
 11
176.165
 20
-65.86
 21
-58.606
  0
LINE
  8
0
 10
176.165
 11
177.419
 20
-58.606
 21
-59.636
  0
LINE
  8
0
 10
177.419
 11
178.519
 20
-59.636
 21
-60.976
  0
LINE
  8
0
 10
178.519
 11
179.337
 20
-60.976
 21
-62.505
  0
LINE
  8
0
 10
179.337
 11
179.84
 20
-62.505
 21
-64.164
  0
LINE
  8
0
 10
179.84
 11
180.01
 20
-64.164
 21
-65.89
  0
LINE
  8
0
 10
180.01
 11
179.84
 20
-65.89
 21
-67.616
  0
LINE
  8
0
 10
179.84
 11
179.337
 20
-67.616
 21
-69.275
  0
LINE
  8
0
 10
179.337
 11
178.519
 20
-69.275
 21
-70.804
  0
LINE
  8
0
 10
178.519
 11
177.419
 20
-70.804
 21
-72.144
  0
LINE
  8
0
 10
177.419
 11
176.079
 20
-72.144
 21
-73.244
  0
LINE
  8
0
 10
176.079
 11
174.55
 20
-73.244
 21
-74.062
  0
LINE
  8
0
 10
174.55
 11
172.891
 20
-74.062
 21
-74.565
  0
LINE
  8
0
 10
172.891
 11
171.165
 20
-74.565
 21
-74.735
  0
LINE
  8
0
 10
171.165
 11
169.439
 20
-74.735
 21
-74.565
  0
LINE
  8
0
 10
169.439
 11
167.78
 20
-74.565
 21
-74.062
  0
LINE
  8
0
 10
167.78
 11
166.251
 20
-74.062
 21
-73.244
  0
LINE
  8
0
 10
166.251
 11
164.911
 20
-73.244
 21
-72.144
  0
LINE
  8
0
 10
164.911
 11
163.811
 20
-72.144
 21
-70.804
  0
LINE
  8
0
 10
163.811
 11
162.993
 20
-70.804
 21
-69.275
  0
LINE
  8
0
 10
162.993
 11
162.49
 20
-69.275
 21
-67.616
  0
LINE
  8
0
 10
162.49
 11
162.32
 20
-67.616
 21
-65.89
  0
LINE
  8
0
 10
162.32
 11
162.49
 20
55.11
 21
56.836
  0
LINE
  8
0
 10
162.49
 11
162.993
 20
56.836
 21
58.495
  0
LINE
  8
0
 10
162.993
 11
163.811
 20
58.495
 21
60.024
  0
LINE
  8
0
 10
163.811
 11
164.911
 20
60.024
 21
61.364
  0
LINE
  8
0
 10
164.911
 11
166.251
 20
61.364
 21
62.464
  0
LINE
  8
0
 10
166.251
 11
167.78
 20
62.464
 21
63.282
  0
LINE
  8
0
 10
167.78
 11
169.439
 20
63.282
 21
63.785
  0
LINE
  8
0
 10
169.439
 11
171.165
 20
63.785
 21
63.955
  0
LINE
  8
0
 10
171.165
 11
172.891
 20
63.955
 21
63.785
  0
LINE
  8
0
 10
172.891
 11
174.55
 20
63.785
 21
63.282
  0
LINE
  8
0
 10
174.55
 11
176.079
 20
63.282
 21
62.464
  0
LINE
  8
0
 10
176.079
 11
177.419
 20
62.464
 21
61.364
  0
LINE
  8
0
 10
177.419
 11
178.519
 20
61.364
 21
60.024
  0
LINE
  8
0
 10
178.519
 11
179.337
 20
60.024
 21
58.495
  0
LINE
  8
0
 10
179.337
 11
179.84
 20
58.495
 21
56.836
  0
LINE
  8
0
 10
179.84
 11
180.01
 20
56.836
 21
55.11
  0
LINE
  8
0
 10
180.01
 11
179.84
 20
55.11
 21
53.384
  0
LINE
  8
0
 10
179.84
 11
179.337
 20
53.384
 21
51.725
  0
LINE
  8
0
 10
179.337
 11
178.519
 20
51.725
 21
50.196
  0
LINE
  8
0
 10
178.519
 11
177.419
 20
50.196
 21
48.856
  0
LINE
  8
0
 10
177.419
 11
176.165
 20
48.856
 21
47.826
  0
LINE
  8
0
 10
176.165
 11
176.165
 20
47.826
 21
54.85
  0
LINE
  8
0
 10
176.165
 11
176.069
 20
54.85
 21
55.825
  0
LINE
  8
0
 10
176.069
 11
175.784
 20
55.825
 21
56.763
  0
LINE
  8
0
 10
175.784
 11
175.322
 20
56.763
 21
57.628
  0
LINE
  8
0
 10
175.322
 11
174.701
 20
57.628
 21
58.386
  0
LINE
  8
0
 10
174.701
 11
173.943
 20
58.386
 21
59.007
  0
LINE
  8
0
 10
173.943
 11
173.078
 20
59.007
 21
59.469
  0
LINE
  8
0
 10
173.078
 11
172.14
 20
59.469
 21
59.754
  0
LINE
  8
0
 10
172.14
 11
171.165
 20
59.754
 21
59.85
  0
LINE
  8
0
 10
171.165
 11
170.19
 20
59.85
 21
59.754
  0
LINE
  8
0
 10
170.19
 11
169.252
 20
59.754
 21
59.469
  0
LINE
  8
0
 10
169.252
 11
168.387
 20
59.469
 21
59.007
  0
LINE
  8
0
 10
168.387
 11
167.629
 20
59.007
 21
58.386
  0
LINE
  8
0
 10
167.629
 11
167.008
 20
58.386
 21
57.628
  0
LINE
  8
0
 10
167.008
 11
166.546
 20
57.628
 21
56.763
  0
LINE
  8
0
 10
166.546
 11
166.261
 20
56.763
 21
55.825
  0
LINE
  8
0
 10
166.261
 11
166.165
 20
55.825
 21
54.85
  0
LINE
  8
0
 10
166.165
 11
166.165
 20
54.85
 21
47.826
  0
LINE
  8
0
 10
166.165
 11
164.911
 20
47.826
 21
48.856
  0
LINE
  8
0
 10
164.911
 11
163.811
 20
48.856
 21
50.196
  0
LINE
  8
0
 10
163.811
 11
162.993
 20
50.196
 21
51.725
  0
LINE
  8
0
 10
162.993
 11
162.49
 20
51.725
 21
53.384
  0
LINE
  8
0
 10
162.49
 11
162.32
 20
53.384
 21
55.11
  0
LINE
  8
0
 10
195.815
 11
195.911
 20
55.11
 21
56.085
  0
LINE
  8
0
 10
195.911
 11
196.196
 20
56.085
 21
57.023
  0
LINE
  8
0
 10
196.196
 11
196.658
 20
57.023
 21
57.888
  0
LINE
  8
0
 10
196.658
 11
197.279
 20
57.888
 21
58.646
  0
LINE
  8
0
 10
197.279
 11
198.037
 20
58.646
 21
59.267
  0
LINE
  8
0
 10
198.037
 11
198.902
 20
59.267
 21
59.729
  0
LINE
  8
0
 10
198.902
 11
199.84
 20
59.729
 21
60.014
  0
LINE
  8
0
 10
199.84
 11
200.815
 20
60.014
 21
60.11
  0
LINE
  8
0
 10
200.815
 11
262.185
 20
60.11
 21
60.11
  0
LINE
  8
0
 10
262.185
 11
263.16
 20
60.11
 21
60.014
  0
LINE
  8
0
 10
263.16
 11
264.098
 20
60.014
 21
59.729
  0
LINE
  8
0
 10
264.098
 11
264.963
 20
59.729
 21
59.267
  0
LINE
  8
0
 10
264.963
 11
265.721
 20
59.267
 21
58.646
  0
LINE
  8
0
 10
265.721
 11
266.342
 20
58.646
 21
57.888
  0
LINE
  8
0
 10
266.342
 11
266.804
 20
57.888
 21
57.023
  0
LINE
  8
0
 10
266.804
 11
267.089
 20
57.023
 21
56.085
  0
LINE
  8
0
 10
267.089
 11
267.185
 20
56.085
 21
55.11
  0
LINE
  8
0
 10
267.185
 11
267.185
 20
55.11
 21
-66.11
  0
LINE
  8
0
 10
267.185
 11
267.089
 20
-66.11
 21
-67.085
  0
LINE
  8
0
 10
267.089
 11
266.804
 20
-67.085
 21
-68.023
  0
LINE
  8
0
 10
266.804
 11
266.342
 20
-68.023
 21
-68.888
  0
LINE
  8
0
 10
266.342
 11
265.721
 20
-68.888
 21
-69.646
  0
LINE
  8
0
 10
265.721
 11
264.963
 20
-69.646
 21
-70.267
  0
LINE
  8
0
 10
264.963
 11
264.098
 20
-70.267
 21
-70.729
  0
LINE
  8
0
 10
264.098
 11
263.16
 20
-70.729
 21
-71.014
  0
LINE
  8
0
 10
263.16
 11
262.185
 20
-71.014
 21
-71.11
  0
LINE
  8
0
 10
262.185
 11
201.075
 20
-71.11
 21
-73.11
  0
LINE
  8
0
 10
201.075
 11
200.1
 20
-73.11
 21
-73.014
  0
LINE
  8
0
 10
200.1
 11
199.162
 20
-73.014
 21
-72.729
  0
LINE
  8
0
 10
199.162
 11
198.297
 20
-72.729
 21
-72.267
  0
LINE
  8
0
 10
198.297
 11
197.539
 20
-72.267
 21
-71.646
  0
LINE
  8
0
 10
197.539
 11
196.918
 20
-71.646
 21
-70.888
  0
LINE
  8
0
 10
196.918
 11
196.456
 20
-70.888
 21
-70.023
  0
LINE
  8
0
 10
196.456
 11
196.171
 20
-70.023
 21
-69.085
  0
LINE
  8
0
 10
196.171
 11
196.075
 20
-69.085
 21
-68.11
  0
LINE
  8
0
 10
196.075
 11
195.815
 20
-68.11
 21
55.11
  0
LINE
  8
0
 10
205.826
 11
257.185
 20
50.11
 21
50.11
  0
LINE
  8
0
 10
257.185
 11
257.185
 20
50.11
 21
-0.89
  0
LINE
  8
0
 10
257.185
 11
205.933
 20
-0.89
 21
-0.89
  0
LINE
  8
0
 10
205.933
 11
205.826
 20
-0.89
 21
50.11
  0
LINE
  8
0
 10
205.954
 11
257.185
 20
-10.89
 21
-10.89
  0
LINE
  8
0
 10
257.185
 11
257.185
 20
-10.89
 21
-61.274
  0
LINE
  8
0
 10
257.185
 11
206.064
 20
-61.274
 21
-62.947
  0
LINE
  8
0
 10
206.064
 11
205.954
 20
-62.947
 21
-10.89
  0
ENDSEC
  0
SECTION
  2
OBJECTS
  0
DICTIONARY
  0
ENDSEC
  0
EOF
